<svg fill="none" stroke-linecap="square" stroke-miterlimit="10" width="669" height="665" xmlns="http://www.w3.org/2000/svg"><path fill="#242424" d="M0 0h669v665H0V0Z"/><path stroke="#3a3a3a" stroke-linecap="butt" d="M50.5.5v665m227-665v665m98-665v665m227-665v665m-602-37h669m-669-37h669m-669-74h669m-669-37h669m-669-74h669m-669-37h669m-669-74h669m-669-37h669m-669-74h669m-669-37h669m-669-74h669m-669-37h669"/><clipPath id="a"><path d="M0 0h669v665H0V0Z"/></clipPath><path stroke="#ed333b" stroke-width="2" stroke-linecap="butt" clip-path="url(#a)" d="M23.9 624s49.4-104.3 64.6-133.8c15.2-29.5 31-58.2 45.6-82.4a824 824 0 0 1 44-65.4 473 473 0 0 1 43.4-51.5 339.2 339.2 0 0 1 48.8-39.4c16.3-11 39-21 58.4-31s62.4-30.5 88-43.6c25.7-13.2 54.8-29.2 77-40.9 22.1-11.7 44.3-23.6 66.4-34.8 22.2-11 88.4-42.5 88.4-42.5"/><path stroke="#e5a50a" stroke-width="2" stroke-linecap="butt" clip-path="url(#a)" d="M28.2 622.5s48.6-106.2 63.5-135.3c14.9-29 31-57.2 44.7-79a560.6 560.6 0 0 1 41-58c13.1-15.7 26.2-26.6 39.4-38.8 13-12.2 32.4-30.8 48.7-42.9 16.2-12 45.3-27.5 68-41 22.7-13.6 66-39.6 94.4-55.8A4191.5 4191.5 0 0 1 577 91.2C598.4 80.4 648.5 56 648.5 56"/><path clip-path="url(#a)" d="M26.9 624a3 3 0 1 1-6 0 3 3 0 0 1 6 0Zm64.6-133.8a3 3 0 1 1-6 0 3 3 0 0 1 6 0Zm45.6-82.4a3 3 0 1 1-6 0 3 3 0 0 1 6 0Zm43.9-65.4a3 3 0 1 1-6 0 3 3 0 0 1 6 0Zm43.5-51.5a3 3 0 1 1-6 0 3 3 0 0 1 6 0Zm48.8-39.4a3 3 0 1 1-6 0 3 3 0 0 1 6 0Zm58.4-31.1a3 3 0 1 1-6 0 3 3 0 0 1 6 0Zm88-43.5a3 3 0 1 1-6 0 3 3 0 0 1 6 0Zm76.9-40.9a3 3 0 1 1-6 0 3 3 0 0 1 6 0Zm66.5-34.8a3 3 0 1 1-6 0 3 3 0 0 1 6 0Zm88.4-42.5a3 3 0 1 1-6 0 3 3 0 0 1 6 0Z"/><path clip-path="url(#a)" d="M31.2 622.5a3 3 0 1 1-6 0 3 3 0 0 1 6 0Zm63.5-135.3a3 3 0 1 1-6 0 3 3 0 0 1 6 0Zm44.7-79a3 3 0 1 1-6 0 3 3 0 0 1 6 0Zm41-58a3 3 0 1 1-6 0 3 3 0 0 1 6 0Zm39.4-38.8a3 3 0 1 1-6 0 3 3 0 0 1 6 0Zm48.7-42.9a3 3 0 1 1-6 0 3 3 0 0 1 6 0Zm68-41.1a3 3 0 1 1-6 0 3 3 0 0 1 6 0Zm94.4-55.7a3 3 0 1 1-6 0 3 3 0 0 1 6 0Zm85.1-47a3 3 0 1 1-6 0 3 3 0 0 1 6 0Zm64-33.5a3 3 0 1 1-6 0 3 3 0 0 1 6 0ZM651.5 56a3 3 0 1 1-6 0 3 3 0 0 1 6 0Z"/><path stroke="#242424" stroke-width="3" stroke-linejoin="round" stroke-linecap="round" d="M440.4 10v4q1-1.4 2.5-1.4 1.2 0 2.1 1 1 .9 1 2.2 0 1.3-1 2.2-.9 1-2.1 1-1.5 0-2.5-1.4v1.1h-1.7V18h1.1v-7.5h-1.1V10h1.7Zm5 5.7q0-1-.8-1.8-.7-.8-1.7-.8t-1.8.8q-.7.7-.7 1.8 0 1 .7 1.9.8.7 1.8.7t1.7-.7q.8-.8.8-1.9Zm5.4-6v1.6h-.8V9.8h.8Zm0 3v5.4h2.7l.1.3v.2h-6V18h2.7v-4.8h-2v-.5h2.6Zm6.6 0h3l.4.1v.4l-.3.1h-3.1v3.8q0 .5.4.9.4.3 1.1.3l1.3-.2 1-.4h.5v.4q-.3.3-1.1.5-.8.3-1.6.3-1 0-1.6-.5-.6-.5-.6-1.3v-3.8h-1.4v-.5h1.3V11q0-.2.2-.3h.4v2Zm8.5 0v1.5q1-1 1.6-1.3.6-.3 1-.3.6 0 1 .3l.5.5-.1.3h-.3l-.2-.1q-.3-.3-.5-.3l-.3-.1q-.4 0-1 .3l-1.7 1.4v3.2h2.8l.1.3v.2h-5.2v-.4l.3-.1h1.4v-4.8h-1.4v-.5h2Zm10.3 6v-.9q-1.3 1-2.7 1-1 0-1.6-.4-.6-.6-.6-1.3 0-.9.8-1.5t2.2-.6h.9l1 .2v-1q0-.4-.4-.7-.5-.4-1.3-.4-.7 0-2 .4h-.4V13l.8-.3q1-.3 1.6-.3 1 0 1.7.6.6.5.6 1.2V18h1.1v.5h-1.7Zm0-3h-.8l-1-.1q-1.3 0-2 .5-.5.4-.5 1 0 .5.4.8.4.4 1.2.4.7 0 1.4-.3.6-.3 1.3-1v-1.2Zm5.2-3h3l.4.1v.4l-.3.1h-3.1v3.8q0 .5.4.9.4.3 1.1.3l1.3-.2 1-.4h.5v.4q-.3.3-1.1.5-.8.3-1.6.3-1 0-1.6-.5-.6-.5-.6-1.3v-3.8h-1.4v-.5h1.3V11q0-.2.2-.3h.4v2Zm12.3 3.1h-5.9q.2 1.1 1 1.8.7.7 1.9.7l1.3-.2q.7-.2 1.2-.6h.4v.4q-.4.4-1.2.7-.8.3-1.7.3-1.5 0-2.5-1t-1-2.3q0-1.3 1-2.2.9-.9 2.2-.9 1.5 0 2.4 1 .9.9.9 2.3Zm-.6-.6q-.2-1-1-1.5-.7-.6-1.7-.6t-1.7.6q-.7.6-.9 1.5h5.3Zm13.4 0 .2-1.6q.2-.9.8-2l.8-1.4.2-.1h.2l.1.3q0 0 0 0-.8 1.5-1.1 2.6-.3 1.1-.3 2.2 0 1.2.3 2.3.3 1.1 1 2.5l.1.1v.2l-.3.1h-.2l-.8-1.4q-.6-1.1-.8-2l-.2-1.8Zm5.4-2.5v.6q.8-.8 1.5-.8.5 0 .8.3.3.2.5.7.4-.5.8-.7.4-.3.8-.3.6 0 1 .4.5.5.5 1.2v4h.8v.5h-1.3v-4.5q0-.4-.4-.7-.2-.3-.6-.3l-.6.2q-.4.3-.8 1V18h.7l.1.3v.2h-1.4v-4.4q0-.5-.3-.8-.2-.3-.6-.3l-.6.2-.9 1V18h.8l.1.3v.2h-2.3l-.1-.2V18h.9v-4.8h-.8l-.1-.3v-.2h1.4Zm8.5-2.6v3.8q1-1.4 2.5-1.4 1.2 0 2.1 1 1 .9 1 2.2 0 1.3-1 2.2-.9 1-2.1 1-1.5 0-2.5-1.4v1.1h-1.7V18h1.1v-7.5h-1.1V10h1.7Zm5 5.6q0-1-.8-1.8-.7-.8-1.7-.8t-1.8.8q-.7.7-.7 1.8 0 1 .7 1.9.8.7 1.8.7t1.7-.7q.8-.8.8-1.9Zm7.7-6-4.6 9.9q-.1.2-.3.2h-.2v-.5l4.6-9.9.1-.2h.4v.5Zm7.3 3.4.1-.3h.4l.1.3v1.3h-.5v-.2q0-.4-.5-.7-.5-.4-1.5-.4t-1.5.4q-.4.3-.4.7 0 .4.5.6.3.2 1.3.3l1.6.3q.7.3 1 .7.3.4.3 1t-.7 1.2q-.7.6-2 .6-1.4 0-2.3-.7v.4h-.5v-1.8l.3-.1h.2v.3q0 .3.2.5.2.4.8.6.5.2 1.3.2 1 0 1.6-.4.6-.4.6-.9t-.6-.9q-.6-.3-1.6-.4l-1.6-.3q-.4-.1-.7-.5l-.2-.8q0-.7.7-1.1.7-.5 1.7-.5 1.2 0 2 .6Zm6.3 2.2-.2 1.6q-.2.9-.8 2l-.8 1.5h-.4V20q.7-1.4 1-2.5.4-1.1.4-2.2 0-1.2-.4-2.3-.3-1.1-1-2.5V10h.4l.8 1.4q.6 1.1.8 2l.2 1.8Zm18.4-5.7-4.6 10q-.1.2-.3.2h-.2v-.5l4.6-9.9.1-.2h.4v.5Zm15.3 3.5.1-.3h.4l.1.3v1.3h-.5v-.2q0-.4-.5-.7-.5-.4-1.5-.4t-1.5.4q-.4.3-.4.7 0 .4.5.6.3.2 1.3.3l1.6.3q.7.3 1 .7.3.4.3 1t-.7 1.2q-.7.6-2 .6-1.4 0-2.3-.7v.4h-.5v-1.8l.3-.1h.2v.3q0 .3.2.5.2.4.8.6.5.2 1.3.2 1 0 1.6-.4.6-.4.6-.9t-.6-.9q-.6-.3-1.6-.4l-1.6-.3q-.4-.1-.7-.5l-.2-.8q0-.7.7-1.1.7-.5 1.7-.5 1.2 0 2 .6Zm8 0 .1-.3h.4l.1.3v1.3h-.5v-.2q0-.4-.5-.7-.5-.4-1.5-.4t-1.5.4q-.4.3-.4.7 0 .4.5.6.3.2 1.3.3l1.6.3q.7.3 1 .7.3.4.3 1t-.7 1.2q-.7.6-2 .6-1.4 0-2.3-.7v.4h-.5v-1.8l.3-.1h.2v.3q0 .3.2.5.2.4.8.6.5.2 1.3.2 1 0 1.6-.4.6-.4.6-.9t-.6-.9q-.6-.3-1.6-.4l-1.6-.3q-.4-.1-.7-.5l-.2-.8q0-.7.7-1.1.7-.5 1.7-.5 1.2 0 2 .6Zm6.4-3.3v1.5h-.8V9.8h.8Zm0 3V18h2.7l.1.3v.2h-6V18h2.7v-4.8h-2v-.5h2.6Zm5.1 0v.5q.8-.8 1.5-.8.5 0 .8.3.3.2.5.7.4-.5.8-.7.4-.3.8-.3.6 0 1 .4.5.5.5 1.2v4h.8v.5h-1.3v-4.5q0-.4-.4-.7-.2-.3-.6-.3l-.6.2q-.4.3-.8 1V18h.7l.1.3v.2h-1.4v-4.4q0-.5-.3-.8-.2-.3-.6-.3l-.6.2-.9 1V18h.8l.1.3v.2h-2.3l-.1-.2V18h.9v-4.8h-.8l-.1-.3v-.2h1.4Zm12.6 5.8v-.8q-1.2 1-2.5 1-.9 0-1.3-.4-.6-.6-.6-1.4v-3.7h-1l-.1-.3v-.2h1.8V17q0 .6.4 1 .3.3.8.3 1.5 0 2.6-1.3v-3.7h-1.3l-.1-.3v-.2h2V18h.8v.5h-1.3Zm6.3-8.5v8h2.6v.5h-5.7V18h2.6v-7.5h-2V10h2.5Zm9.4 8.5v-.8q-1.3 1-2.7 1-1 0-1.6-.4-.6-.6-.6-1.3 0-.9.8-1.5t2.2-.6h.9l1 .2v-1q0-.4-.4-.7-.5-.4-1.3-.4-.7 0-2 .4h-.4V13l.8-.3q1-.3 1.6-.3 1 0 1.7.6.6.5.6 1.2V18h1.1v.5h-1.7Zm0-2.8-.9-.2h-.9q-1.3 0-2 .5-.5.4-.5 1 0 .5.4.8.4.4 1.2.4.7 0 1.4-.3.6-.3 1.3-1v-1.2Zm8.7-2.5v-.2l.1-.3h.4l.1.3v1.6l-.3.1h-.2v-.3q0-.5-.7-1-.6-.4-1.6-.4-1.3 0-2 .8-.6.8-.6 1.8 0 1.2.7 1.9.8.7 2 .7l1.3-.2q.7-.3 1.2-.8l.3-.2.2.1v.2q0 .3-.6.8-1.1.7-2.5.7t-2.3-1q-.9-.8-.9-2.2 0-1.3 1-2.3.9-.9 2.2-.9 1.4 0 2.2.8Zm5-.6v1.5q1-1 1.6-1.3.6-.3 1-.3.6 0 1 .3l.5.5-.1.3h-.3l-.2-.1q-.3-.3-.5-.3l-.3-.1q-.4 0-1 .3l-1.7 1.4v3.2h2.8l.1.3v.2h-5.2v-.4l.3-.1h1.4v-4.8h-1.4v-.5h2Zm10.3 6v-.9q-1.3 1-2.7 1-1 0-1.6-.4-.6-.6-.6-1.3 0-.9.8-1.5t2.2-.6h.9l1 .2v-1q0-.4-.4-.7-.5-.4-1.3-.4-.7 0-2 .4h-.4V13l.8-.3q1-.3 1.6-.3 1 0 1.7.6.6.5.6 1.2V18h1.1v.5h-1.7Zm0-3h-.9l-.9-.1q-1.3 0-2 .5-.5.4-.5 1 0 .5.4.8.4.4 1.2.4.7 0 1.4-.3.6-.3 1.3-1v-1.2Zm3.9 2.4h4.4v-.5l.3-.1h.2v1.3h-5.5v-.9l3.4-3.2 1-1.1.5-.6v-.6q0-.7-.5-1.3-.6-.6-1.4-.6-.8 0-1.4.5-.6.4-.7 1l-.1.3h-.4l-.1-.2q0-.4.4-1 .3-.5 1-.8.6-.3 1.2-.3 1.1 0 1.9.7.8.8.8 1.7 0 .4-.2.7l-.4.8-1.1 1.1-3.4 3h0Z"/><path fill="#bdbdbd" d="M440.4 10v4q1-1.4 2.5-1.4 1.2 0 2.1 1 1 .9 1 2.2 0 1.3-1 2.2-.9 1-2.1 1-1.5 0-2.5-1.4v1.1h-1.7V18h1.1v-7.5h-1.1V10h1.7Zm5 5.7q0-1-.8-1.8-.7-.8-1.7-.8t-1.8.8q-.7.7-.7 1.8 0 1 .7 1.9.8.7 1.8.7t1.7-.7q.8-.8.8-1.9Zm5.4-6v1.6h-.8V9.8h.8Zm0 3v5.4h2.7l.1.3v.2h-6V18h2.7v-4.8h-2v-.5h2.6Zm6.6 0h3l.4.1v.4l-.3.1h-3.1v3.8q0 .5.4.9.4.3 1.1.3l1.3-.2 1-.4h.5v.4q-.3.3-1.1.5-.8.3-1.6.3-1 0-1.6-.5-.6-.5-.6-1.3v-3.8h-1.4v-.5h1.3V11q0-.2.2-.3h.4v2Zm8.5 0v1.5q1-1 1.6-1.3.6-.3 1-.3.6 0 1 .3l.5.5-.1.3h-.3l-.2-.1q-.3-.3-.5-.3l-.3-.1q-.4 0-1 .3l-1.7 1.4v3.2h2.8l.1.3v.2h-5.2v-.4l.3-.1h1.4v-4.8h-1.4v-.5h2Zm10.3 6v-.9q-1.3 1-2.7 1-1 0-1.6-.4-.6-.6-.6-1.3 0-.9.8-1.5t2.2-.6h.9l1 .2v-1q0-.4-.4-.7-.5-.4-1.3-.4-.7 0-2 .4h-.4V13l.8-.3q1-.3 1.6-.3 1 0 1.7.6.6.5.6 1.2V18h1.1v.5h-1.7Zm0-3h-.8l-1-.1q-1.3 0-2 .5-.5.4-.5 1 0 .5.4.8.4.4 1.2.4.7 0 1.4-.3.6-.3 1.3-1v-1.2Zm5.2-3h3l.4.1v.4l-.3.1h-3.1v3.8q0 .5.4.9.4.3 1.1.3l1.3-.2 1-.4h.5v.4q-.3.3-1.1.5-.8.3-1.6.3-1 0-1.6-.5-.6-.5-.6-1.3v-3.8h-1.4v-.5h1.3V11q0-.2.2-.3h.4v2Zm12.3 3.1h-5.9q.2 1.1 1 1.8.7.7 1.9.7l1.3-.2q.7-.2 1.2-.6h.4v.4q-.4.4-1.2.7-.8.3-1.7.3-1.5 0-2.5-1t-1-2.3q0-1.3 1-2.2.9-.9 2.2-.9 1.5 0 2.4 1 .9.9.9 2.3Zm-.6-.6q-.2-1-1-1.5-.7-.6-1.7-.6t-1.7.6q-.7.6-.9 1.5h5.3Zm13.4 0 .2-1.6q.2-.9.8-2l.8-1.4.2-.1h.2l.1.3q-.8 1.5-1.1 2.6-.3 1.1-.3 2.2 0 1.2.3 2.3.3 1.1 1 2.5l.1.1v.2l-.3.1h-.2l-.8-1.4q-.6-1.1-.8-2l-.2-1.8Zm5.4-2.5v.6q.8-.8 1.5-.8.5 0 .8.3.3.2.5.7.4-.5.8-.7.4-.3.8-.3.6 0 1 .4.5.5.5 1.2v4h.8v.5h-1.3v-4.5q0-.4-.4-.7-.2-.3-.6-.3l-.6.2q-.4.3-.8 1V18h.7l.1.3v.2h-1.4v-4.4q0-.5-.3-.8-.2-.3-.6-.3l-.6.2-.9 1V18h.8l.1.3v.2h-2.3l-.1-.2V18h.9v-4.8h-.8l-.1-.3v-.2h1.4Zm8.5-2.6v3.8q1-1.4 2.5-1.4 1.2 0 2.1 1 1 .9 1 2.2 0 1.3-1 2.2-.9 1-2.1 1-1.5 0-2.5-1.4v1.1h-1.7V18h1.1v-7.5h-1.1V10h1.7Zm5 5.6q0-1-.8-1.8-.7-.8-1.7-.8t-1.8.8q-.7.7-.7 1.8 0 1 .7 1.9.8.7 1.8.7t1.7-.7q.8-.8.8-1.9Zm7.7-6-4.6 9.9q-.1.2-.3.2h-.2v-.5l4.6-9.9.1-.2h.4v.5Zm7.3 3.4.1-.3h.4l.1.3v1.3h-.5v-.2q0-.4-.5-.7-.5-.4-1.5-.4t-1.5.4q-.4.3-.4.7 0 .4.5.6.3.2 1.3.3l1.6.3q.7.3 1 .7.3.4.3 1t-.7 1.2q-.7.6-2 .6-1.4 0-2.3-.7v.4h-.5v-1.8l.3-.1h.2v.3q0 .3.2.5.2.4.8.6.5.2 1.3.2 1 0 1.6-.4.6-.4.6-.9t-.6-.9q-.6-.3-1.6-.4l-1.6-.3q-.4-.1-.7-.5l-.2-.8q0-.7.7-1.1.7-.5 1.7-.5 1.2 0 2 .6Zm6.3 2.2-.2 1.6q-.2.9-.8 2l-.8 1.5h-.4V20q.7-1.4 1-2.5.4-1.1.4-2.2 0-1.2-.4-2.3-.3-1.1-1-2.5V10h.4l.8 1.4q.6 1.1.8 2l.2 1.8Zm18.4-5.7-4.6 10q-.1.2-.3.2h-.2v-.5l4.6-9.9.1-.2h.4v.5Zm15.3 3.5.1-.3h.4l.1.3v1.3h-.5v-.2q0-.4-.5-.7-.5-.4-1.5-.4t-1.5.4q-.4.3-.4.7 0 .4.5.6.3.2 1.3.3l1.6.3q.7.3 1 .7.3.4.3 1t-.7 1.2q-.7.6-2 .6-1.4 0-2.3-.7v.4h-.5v-1.8l.3-.1h.2v.3q0 .3.2.5.2.4.8.6.5.2 1.3.2 1 0 1.6-.4.6-.4.6-.9t-.6-.9q-.6-.3-1.6-.4l-1.6-.3q-.4-.1-.7-.5l-.2-.8q0-.7.7-1.1.7-.5 1.7-.5 1.2 0 2 .6Zm8 0 .1-.3h.4l.1.3v1.3h-.5v-.2q0-.4-.5-.7-.5-.4-1.5-.4t-1.5.4q-.4.3-.4.7 0 .4.5.6.3.2 1.3.3l1.6.3q.7.3 1 .7.3.4.3 1t-.7 1.2q-.7.6-2 .6-1.4 0-2.3-.7v.4h-.5v-1.8l.3-.1h.2v.3q0 .3.2.5.2.4.8.6.5.2 1.3.2 1 0 1.6-.4.6-.4.6-.9t-.6-.9q-.6-.3-1.6-.4l-1.6-.3q-.4-.1-.7-.5l-.2-.8q0-.7.7-1.1.7-.5 1.7-.5 1.2 0 2 .6Zm6.4-3.3v1.5h-.8V9.8h.8Zm0 3V18h2.7l.1.3v.2h-6V18h2.7v-4.8h-2v-.5h2.6Zm5.1 0v.5q.8-.8 1.5-.8.5 0 .8.3.3.2.5.7.4-.5.8-.7.4-.3.8-.3.6 0 1 .4.5.5.5 1.2v4h.8v.5h-1.3v-4.5q0-.4-.4-.7-.2-.3-.6-.3l-.6.2q-.4.3-.8 1V18h.7l.1.3v.2h-1.4v-4.4q0-.5-.3-.8-.2-.3-.6-.3l-.6.2-.9 1V18h.8l.1.3v.2h-2.3l-.1-.2V18h.9v-4.8h-.8l-.1-.3v-.2h1.4Zm12.6 5.8v-.8q-1.2 1-2.5 1-.9 0-1.3-.4-.6-.6-.6-1.4v-3.7h-1l-.1-.3v-.2h1.8V17q0 .6.4 1 .3.3.8.3 1.5 0 2.6-1.3v-3.7h-1.3l-.1-.3v-.2h2V18h.8v.5h-1.3Zm6.3-8.5v8h2.6v.5h-5.7V18h2.6v-7.5h-2V10h2.5Zm9.4 8.5v-.8q-1.3 1-2.7 1-1 0-1.6-.4-.6-.6-.6-1.3 0-.9.8-1.5t2.2-.6h.9l1 .2v-1q0-.4-.4-.7-.5-.4-1.3-.4-.7 0-2 .4h-.4V13l.8-.3q1-.3 1.6-.3 1 0 1.7.6.6.5.6 1.2V18h1.1v.5h-1.7Zm0-2.8-.9-.2h-.9q-1.3 0-2 .5-.5.4-.5 1 0 .5.4.8.4.4 1.2.4.7 0 1.4-.3.6-.3 1.3-1v-1.2Zm8.7-2.5v-.2l.1-.3h.4l.1.3v1.6l-.3.1h-.2v-.3q0-.5-.7-1-.6-.4-1.6-.4-1.3 0-2 .8-.6.8-.6 1.8 0 1.2.7 1.9.8.7 2 .7l1.3-.2q.7-.3 1.2-.8l.3-.2.2.1v.2q0 .3-.6.8-1.1.7-2.5.7t-2.3-1q-.9-.8-.9-2.2 0-1.3 1-2.3.9-.9 2.2-.9 1.4 0 2.2.8Zm5-.6v1.5q1-1 1.6-1.3.6-.3 1-.3.6 0 1 .3l.5.5-.1.3h-.3l-.2-.1q-.3-.3-.5-.3l-.3-.1q-.4 0-1 .3l-1.7 1.4v3.2h2.8l.1.3v.2h-5.2v-.4l.3-.1h1.4v-4.8h-1.4v-.5h2Zm10.3 6v-.9q-1.3 1-2.7 1-1 0-1.6-.4-.6-.6-.6-1.3 0-.9.8-1.5t2.2-.6h.9l1 .2v-1q0-.4-.4-.7-.5-.4-1.3-.4-.7 0-2 .4h-.4V13l.8-.3q1-.3 1.6-.3 1 0 1.7.6.6.5.6 1.2V18h1.1v.5h-1.7Zm0-3h-.9l-.9-.1q-1.3 0-2 .5-.5.4-.5 1 0 .5.4.8.4.4 1.2.4.7 0 1.4-.3.6-.3 1.3-1v-1.2Zm3.9 2.4h4.4v-.5l.3-.1h.2v1.3h-5.5v-.9l3.4-3.2 1-1.1.5-.6v-.6q0-.7-.5-1.3-.6-.6-1.4-.6-.8 0-1.4.5-.6.4-.7 1l-.1.3h-.4l-.1-.2q0-.4.4-1 .3-.5 1-.8.6-.3 1.2-.3 1.1 0 1.9.7.8.8.8 1.7 0 .4-.2.7l-.4.8-1.1 1.1-3.4 3Z"/><path stroke="#242424" stroke-width="3" stroke-linejoin="round" stroke-linecap="round" d="M14.1 563.8v.8H8.3v-.8H14Zm5.4-4.3v8h2q.2 0 .3.2v.4h-5.2v-.4l.3-.1h2v-7.3l-1.9.6h-.4v-.5l.3-.1 2.6-.8Zm10.3 3.7v1.4q0 1.8-.8 3-.7.8-1.8.8l-1-.2q-.4-.2-.7-.6l-.4-.7-.4-1-.1-1.3v-1.4q0-1.9.9-3 .6-.8 1.7-.8l1 .2q.4.2.7.6l.4.7.4.9.1 1.4Zm-.5 0q0-.8-.3-1.5-.2-.7-.5-1l-.4-.5q-.4-.2-.9-.2-1 0-1.5 1-.6 1-.6 2.2v1.3q0 .8.3 1.5l.5 1.2.4.4q.4.2 1 .2.9 0 1.4-1 .6-1 .6-2.3v-1.3Z"/><path fill="#bdbdbd" d="M14.1 563.8v.8H8.3v-.8H14Zm5.4-4.3v8h2q.2 0 .3.2v.4h-5.2v-.4l.3-.1h2v-7.3l-1.9.6h-.4v-.5l.3-.1 2.6-.8Zm10.3 3.7v1.4q0 1.8-.8 3-.7.8-1.8.8l-1-.2q-.4-.2-.7-.6l-.4-.7-.4-1-.1-1.3v-1.4q0-1.9.9-3 .6-.8 1.7-.8l1 .2q.4.2.7.6l.4.7.4.9.1 1.4Zm-.5 0q0-.8-.3-1.5-.2-.7-.5-1l-.4-.5q-.4-.2-.9-.2-1 0-1.5 1-.6 1-.6 2.2v1.3q0 .8.3 1.5l.5 1.2.4.4q.4.2 1 .2.9 0 1.4-1 .6-1 .6-2.3v-1.3Z"/><path stroke="#242424" stroke-width="3" stroke-linejoin="round" stroke-linecap="round" d="M11.5 448.6v8.2h2.3v.5H8.6v-.5H11v-7.4l-2 .6h-.4v-.4l.3-.1 2.6-.9Zm10.3 3.7v1.5q0 1.8-.8 2.9-.7.8-1.8.8l-1-.2-.7-.5-.4-.7-.4-1-.1-1.3v-1.5q0-1.8.9-2.9.6-.8 1.7-.8l1 .2.7.5.4.8.4.9.1 1.3Zm-.5.1q0-.8-.3-1.5-.2-.7-.5-1.1l-.4-.4q-.4-.3-.9-.3-1 0-1.5 1-.6 1-.6 2.3v1.3q0 .8.3 1.5.2.7.5 1.1l.4.4q.4.3 1 .3.9 0 1.4-1 .6-1 .6-2.3v-1.3Z"/><path fill="#bdbdbd" d="M11.5 448.6v8.2h2.3v.5H8.6v-.5H11v-7.4l-2 .6h-.4v-.4l.3-.1 2.6-.9Zm10.3 3.7v1.5q0 1.8-.8 2.9-.7.8-1.8.8l-1-.2-.7-.5-.4-.7-.4-1-.1-1.3v-1.5q0-1.8.9-2.9.6-.8 1.7-.8l1 .2.7.5.4.8.4.9.1 1.3Zm-.5.1q0-.8-.3-1.5-.2-.7-.5-1.1l-.4-.4q-.4-.3-.9-.3-1 0-1.5 1-.6 1-.6 2.3v1.3q0 .8.3 1.5.2.7.5 1.1l.4.4q.4.3 1 .3.9 0 1.4-1 .6-1 .6-2.3v-1.3Z"/><path stroke="#242424" stroke-width="3" stroke-linejoin="round" stroke-linecap="round" d="M12.4 341.8q.8.4 1.2 1 .4.6.4 1.3 0 1-.8 1.8-.9.8-2.1.8-.8 0-1.6-.3t-1-.6l-.2-.3.1-.2h.4q1.1.8 2.3.8 1 0 1.7-.6.6-.6.6-1.4 0-.5-.3-1t-1-.8q-.6-.3-1.2-.3h-.3l-.1-.2v-.2l.3-.1h.5q.8 0 1.3-.5t.5-1q0-.7-.5-1.2t-1.4-.5q-.6 0-1 .2-.6.2-.9.6l-.1.1h-.4v-.2q0-.3.5-.7.9-.6 2-.6 1 0 1.7.7.7.6.7 1.5 0 .6-.3 1.1-.4.5-1 .8Zm9.4-.3v1.4q0 1.9-.8 3-.7.8-1.8.8l-1-.2q-.4-.2-.7-.6l-.4-.7-.4-.9-.1-1.4v-1.4q0-1.9.9-3 .6-.8 1.7-.8l1 .2q.4.2.7.6l.4.7.4 1 .1 1.3Zm-.5 0q0-.7-.3-1.4-.2-.7-.5-1.1l-.4-.5q-.4-.2-.9-.2-1 0-1.5 1-.6 1-.6 2.3v1.2q0 .9.3 1.6.2.7.5 1l.4.5q.4.2 1 .2.9 0 1.4-1 .6-1 .6-2.3v-1.2Z"/><path fill="#bdbdbd" d="M12.4 341.8q.8.4 1.2 1 .4.6.4 1.3 0 1-.8 1.8-.9.8-2.1.8-.8 0-1.6-.3t-1-.6l-.2-.3.1-.2h.4q1.1.8 2.3.8 1 0 1.7-.6.6-.6.6-1.4 0-.5-.3-1t-1-.8q-.6-.3-1.2-.3h-.3l-.1-.2v-.2l.3-.1h.5q.8 0 1.3-.5t.5-1q0-.7-.5-1.2t-1.4-.5q-.6 0-1 .2-.6.2-.9.6l-.1.1h-.4v-.2q0-.3.5-.7.9-.6 2-.6 1 0 1.7.7.7.6.7 1.5 0 .6-.3 1.1-.4.5-1 .8Zm9.4-.3v1.4q0 1.9-.8 3-.7.8-1.8.8l-1-.2q-.4-.2-.7-.6l-.4-.7-.4-.9-.1-1.4v-1.4q0-1.9.9-3 .6-.8 1.7-.8l1 .2q.4.2.7.6l.4.7.4 1 .1 1.3Zm-.5 0q0-.7-.3-1.4-.2-.7-.5-1.1l-.4-.5q-.4-.2-.9-.2-1 0-1.5 1-.6 1-.6 2.3v1.2q0 .9.3 1.6.2.7.5 1l.4.5q.4.2 1 .2.9 0 1.4-1 .6-1 .6-2.3v-1.2Z"/><path stroke="#242424" stroke-width="3" stroke-linejoin="round" stroke-linecap="round" d="M9.6 227.7v2.8l1-.3.9-.1q1 0 1.8.7.7.8.7 2 0 1.4-.8 2.2-.8.9-2 .9-.9 0-1.6-.4-.6-.2-1-.6-.3-.2-.3-.4l.1-.2H9q1 1 2.2 1 1 0 1.7-.7.6-.7.6-1.8 0-1-.5-1.6-.6-.6-1.5-.6t-1.8.5l-.3.1h-.2V227h4.2l.1.3v.2h-4Zm12.2 3v1.4q0 1.8-.8 3-.7.8-1.8.8l-1-.2q-.4-.2-.7-.6l-.4-.7-.4-1-.1-1.3v-1.4q0-1.9.9-3 .6-.8 1.7-.8l1 .2q.4.2.7.6l.4.7.4.9.1 1.4Zm-.5 0q0-.8-.3-1.5-.2-.7-.5-1l-.4-.5q-.4-.2-.9-.2-1 0-1.5 1-.6 1-.6 2.2v1.3q0 .8.3 1.5l.5 1.2.4.4q.4.2 1 .2.9 0 1.4-1 .6-1 .6-2.3v-1.3Z"/><path fill="#bdbdbd" d="M9.6 227.7v2.8l1-.3.9-.1q1 0 1.8.7.7.8.7 2 0 1.4-.8 2.2-.8.9-2 .9-.9 0-1.6-.4-.6-.2-1-.6-.3-.2-.3-.4l.1-.2H9q1 1 2.2 1 1 0 1.7-.7.6-.7.6-1.8 0-1-.5-1.6-.6-.6-1.5-.6t-1.8.5l-.3.1h-.2V227h4.2l.1.3v.2h-4Zm12.2 3v1.4q0 1.8-.8 3-.7.8-1.8.8l-1-.2q-.4-.2-.7-.6l-.4-.7-.4-1-.1-1.3v-1.4q0-1.9.9-3 .6-.8 1.7-.8l1 .2q.4.2.7.6l.4.7.4.9.1 1.4Zm-.5 0q0-.8-.3-1.5-.2-.7-.5-1l-.4-.5q-.4-.2-.9-.2-1 0-1.5 1-.6 1-.6 2.2v1.3q0 .8.3 1.5l.5 1.2.4.4q.4.2 1 .2.9 0 1.4-1 .6-1 .6-2.3v-1.3Z"/><path stroke="#242424" stroke-width="3" stroke-linejoin="round" stroke-linecap="round" d="M13.1 117.1v-.3h-4v.5q0 .3-.2.3l-.2.1h-.2v-1.4h5.2v.9l-2.3 7.4-.1.2h-.4v-.4L13 117Zm8.7 2.7v1.5q0 1.8-.8 2.9-.7.8-1.8.8l-1-.2-.7-.5-.4-.7-.4-1-.1-1.3v-1.5q0-1.8.9-2.9.6-.8 1.7-.8l1 .2.7.5.4.8.4.9.1 1.3Zm-.5.1q0-.8-.3-1.5-.2-.7-.5-1.1l-.4-.4q-.4-.3-.9-.3-1 0-1.5 1-.6 1-.6 2.3v1.3q0 .8.3 1.5.2.7.5 1.1l.4.4q.4.3 1 .3.9 0 1.4-1 .6-1 .6-2.3v-1.3Z"/><path fill="#bdbdbd" d="M13.1 117.1v-.3h-4v.5q0 .3-.2.3l-.2.1h-.2v-1.4h5.2v.9l-2.3 7.4-.1.2h-.4v-.4L13 117Zm8.7 2.7v1.5q0 1.8-.8 2.9-.7.8-1.8.8l-1-.2-.7-.5-.4-.7-.4-1-.1-1.3v-1.5q0-1.8.9-2.9.6-.8 1.7-.8l1 .2.7.5.4.8.4.9.1 1.3Zm-.5.1q0-.8-.3-1.5-.2-.7-.5-1.1l-.4-.4q-.4-.3-.9-.3-1 0-1.5 1-.6 1-.6 2.3v1.3q0 .8.3 1.5.2.7.5 1.1l.4.4q.4.3 1 .3.9 0 1.4-1 .6-1 .6-2.3v-1.3Z"/><path stroke="#242424" stroke-width="3" stroke-linejoin="round" stroke-linecap="round" d="M46.8 644.3v8.1h2l.3.1.1.2-.1.2-.3.1H44v-.5h2.3V645l-2 .6H44v-.4l.2-.2 2.6-.8Zm10.4 3.7v1.4q0 1.9-.9 3-.7.8-1.7.8l-1-.2q-.4-.2-.7-.6l-.5-.7-.3-.9q-.2-.6-.2-1.4V648q0-1.9 1-3 .6-.8 1.6-.8.6 0 1 .2l.8.6.4.7.3 1q.2.5.2 1.3Zm-.6 0-.2-1.4q-.2-.7-.5-1.1l-.5-.5-.8-.2q-1 0-1.6 1-.5 1-.5 2.3v1.2q0 .9.2 1.6.2.7.5 1l.5.5q.4.2.9.2 1 0 1.5-1t.5-2.3v-1.2Z"/><path fill="#bdbdbd" d="M46.8 644.3v8.1h2l.3.1.1.2-.1.2-.3.1H44v-.5h2.3V645l-2 .6H44v-.4l.2-.2 2.6-.8Zm10.4 3.7v1.4q0 1.9-.9 3-.7.8-1.7.8l-1-.2q-.4-.2-.7-.6l-.5-.7-.3-.9q-.2-.6-.2-1.4V648q0-1.9 1-3 .6-.8 1.6-.8.6 0 1 .2l.8.6.4.7.3 1q.2.5.2 1.3Zm-.6 0-.2-1.4q-.2-.7-.5-1.1l-.5-.5-.8-.2q-1 0-1.6 1-.5 1-.5 2.3v1.2q0 .9.2 1.6.2.7.5 1l.5.5q.4.2.9.2 1 0 1.5-1t.5-2.3v-1.2Z"/><path stroke="#242424" stroke-width="3" stroke-linejoin="round" stroke-linecap="round" d="M272.2 645v2.8l1-.3.8-.1q1.1 0 1.8.8.8.7.8 2t-.9 2.2q-.8.8-2 .8-.8 0-1.6-.4l-1-.6-.2-.4v-.2h.5q1 1 2.3 1 1 0 1.6-.7.7-.6.7-1.8 0-1-.6-1.5-.5-.6-1.4-.6-1 0-1.8.4l-.3.1h-.2v-4.1h4l.2.1.1.2v.2l-.4.1h-3.4Zm12.2 3v1.4q0 1.9-.9 3-.7.8-1.7.8l-1-.2q-.4-.2-.7-.6l-.5-.7-.3-.9q-.2-.6-.2-1.4V648q0-1.9 1-3 .6-.8 1.7-.8l1 .2q.4.2.7.6l.4.7.4 1 .1 1.3Zm-.6 0-.2-1.4q-.2-.7-.5-1.1l-.5-.5q-.3-.2-.8-.2-1 0-1.5 1-.6 1-.6 2.3v1.2q0 .9.2 1.6.3.7.6 1 .1.3.4.5.4.2.9.2 1 0 1.5-1t.5-2.3v-1.2Z"/><path fill="#bdbdbd" d="M272.2 645v2.8l1-.3.8-.1q1.1 0 1.8.8.8.7.8 2t-.9 2.2q-.8.8-2 .8-.8 0-1.6-.4l-1-.6-.2-.4v-.2h.5q1 1 2.3 1 1 0 1.6-.7.7-.6.7-1.8 0-1-.6-1.5-.5-.6-1.4-.6-1 0-1.8.4l-.3.1h-.2v-4.1h4l.2.1.1.2v.2l-.4.1h-3.4Zm12.2 3v1.4q0 1.9-.9 3-.7.8-1.7.8l-1-.2q-.4-.2-.7-.6l-.5-.7-.3-.9q-.2-.6-.2-1.4V648q0-1.9 1-3 .6-.8 1.7-.8l1 .2q.4.2.7.6l.4.7.4 1 .1 1.3Zm-.6 0-.2-1.4q-.2-.7-.5-1.1l-.5-.5q-.3-.2-.8-.2-1 0-1.5 1-.6 1-.6 2.3v1.2q0 .9.2 1.6.3.7.6 1 .1.3.4.5.4.2.9.2 1 0 1.5-1t.5-2.3v-1.2Z"/><path stroke="#242424" stroke-width="3" stroke-linejoin="round" stroke-linecap="round" d="M368 644.3v8.1h1.9l.3.1v.4l-.3.1H365l-.1-.3v-.2h2.4V645l-2 .6h-.1l-.1-.3v-.1l.3-.2 2.6-.8Zm10.3 3.7v1.4q0 1.9-1 3-.6.8-1.7.8l-1-.2q-.4-.2-.7-.6l-.4-.7-.4-.9-.1-1.4V648q0-1.9.9-3 .7-.8 1.7-.8l1 .2q.4.2.7.6l.5.7.3 1q.2.5.2 1.3Zm-.6 0-.2-1.4-.6-1.1q-.1-.3-.4-.5-.4-.2-.9-.2-1 0-1.5 1t-.5 2.3v1.2q0 .9.2 1.6.2.7.5 1l.5.5q.3.2.8.2 1 0 1.5-1 .6-1 .6-2.3v-1.2Zm8.6 0v1.4q0 1.9-1 3-.6.8-1.7.8l-1-.2q-.4-.2-.7-.6l-.4-.7-.4-.9-.1-1.4V648q0-1.9.9-3 .7-.8 1.7-.8l1 .2q.4.2.7.6l.5.7.3 1q.2.5.2 1.3Zm-.6 0-.2-1.4-.6-1.1q-.1-.3-.4-.5-.4-.2-.9-.2-1 0-1.5 1t-.5 2.3v1.2q0 .9.2 1.6.2.7.5 1l.5.5q.3.2.8.2 1 0 1.5-1 .6-1 .6-2.3v-1.2Z"/><path fill="#bdbdbd" d="M368 644.3v8.1h1.9l.3.1v.4l-.3.1H365l-.1-.3v-.2h2.4V645l-2 .6h-.1l-.1-.3v-.1l.3-.2 2.6-.8Zm10.3 3.7v1.4q0 1.9-1 3-.6.8-1.7.8l-1-.2q-.4-.2-.7-.6l-.4-.7-.4-.9-.1-1.4V648q0-1.9.9-3 .7-.8 1.7-.8l1 .2q.4.2.7.6l.5.7.3 1q.2.5.2 1.3Zm-.6 0-.2-1.4-.6-1.1q-.1-.3-.4-.5-.4-.2-.9-.2-1 0-1.5 1t-.5 2.3v1.2q0 .9.2 1.6.2.7.5 1l.5.5q.3.2.8.2 1 0 1.5-1 .6-1 .6-2.3v-1.2Zm8.6 0v1.4q0 1.9-1 3-.6.8-1.7.8l-1-.2q-.4-.2-.7-.6l-.4-.7-.4-.9-.1-1.4V648q0-1.9.9-3 .7-.8 1.7-.8l1 .2q.4.2.7.6l.5.7.3 1q.2.5.2 1.3Zm-.6 0-.2-1.4-.6-1.1q-.1-.3-.4-.5-.4-.2-.9-.2-1 0-1.5 1t-.5 2.3v1.2q0 .9.2 1.6.2.7.5 1l.5.5q.3.2.8.2 1 0 1.5-1 .6-1 .6-2.3v-1.2Z"/><path stroke="#242424" stroke-width="3" stroke-linejoin="round" stroke-linecap="round" d="M593.3 645v2.8l1-.3.8-.1q1 0 1.8.8.7.7.7 2t-.8 2.2q-.8.8-2 .8-.8 0-1.6-.4l-1-.6-.2-.4v-.2h.5q1 1 2.3 1 1 0 1.6-.7.7-.6.7-1.8 0-1-.6-1.5-.6-.6-1.4-.6-1 0-1.8.4l-.3.1h-.2l-.1-.3v-3.8h4l.3.1v.4l-.3.1h-3.4Zm12.2 3v1.4q0 1.9-.9 3-.7.8-1.7.8-.6 0-1-.2l-.8-.6-.4-.7-.3-.9q-.2-.6-.2-1.4V648q0-1.9.9-3 .7-.8 1.7-.8l1 .2.8.6.4.7.3 1q.2.5.2 1.3Zm-.6 0-.2-1.4-.5-1.1-.5-.5q-.4-.2-.9-.2-1 0-1.5 1t-.5 2.3v1.2q0 .9.2 1.6.2.7.5 1l.5.5q.4.2.9.2 1 0 1.5-1t.5-2.3v-1.2Zm8.6 0v1.4q0 1.9-.9 3-.7.8-1.7.8-.6 0-1-.2l-.8-.6-.4-.7-.3-.9q-.2-.6-.2-1.4V648q0-1.9.9-3 .7-.8 1.7-.8l1 .2.8.6.4.7.3 1q.2.5.2 1.3Zm-.6 0-.2-1.4-.5-1.1-.5-.5q-.4-.2-.9-.2-1 0-1.5 1t-.5 2.3v1.2q0 .9.2 1.6.2.7.5 1l.5.5q.4.2.9.2 1 0 1.5-1t.5-2.3v-1.2Z"/><path fill="#bdbdbd" d="M593.3 645v2.8l1-.3.8-.1q1 0 1.8.8.7.7.7 2t-.8 2.2q-.8.8-2 .8-.8 0-1.6-.4l-1-.6-.2-.4v-.2h.5q1 1 2.3 1 1 0 1.6-.7.7-.6.7-1.8 0-1-.6-1.5-.6-.6-1.4-.6-1 0-1.8.4l-.3.1h-.2l-.1-.3v-3.8h4l.3.1v.4l-.3.1h-3.4Zm12.2 3v1.4q0 1.9-.9 3-.7.8-1.7.8-.6 0-1-.2l-.8-.6-.4-.7-.3-.9q-.2-.6-.2-1.4V648q0-1.9.9-3 .7-.8 1.7-.8l1 .2.8.6.4.7.3 1q.2.5.2 1.3Zm-.6 0-.2-1.4-.5-1.1-.5-.5q-.4-.2-.9-.2-1 0-1.5 1t-.5 2.3v1.2q0 .9.2 1.6.2.7.5 1l.5.5q.4.2.9.2 1 0 1.5-1t.5-2.3v-1.2Zm8.6 0v1.4q0 1.9-.9 3-.7.8-1.7.8-.6 0-1-.2l-.8-.6-.4-.7-.3-.9q-.2-.6-.2-1.4V648q0-1.9.9-3 .7-.8 1.7-.8l1 .2.8.6.4.7.3 1q.2.5.2 1.3Zm-.6 0-.2-1.4-.5-1.1-.5-.5q-.4-.2-.9-.2-1 0-1.5 1t-.5 2.3v1.2q0 .9.2 1.6.2.7.5 1l.5.5q.4.2.9.2 1 0 1.5-1t.5-2.3v-1.2Z"/><path stroke="#ed333b" stroke-width="4" stroke-linecap="butt" d="M6.7 84h12"/><path stroke="#242424" stroke-width="3" stroke-linejoin="round" stroke-linecap="round" d="M32.5 87.5v-.8q-1.3 1-2.7 1-1 0-1.6-.4-.6-.6-.6-1.3 0-.9.8-1.5t2.2-.6h.9l1 .2v-1q0-.4-.4-.7-.5-.4-1.3-.4-.7 0-2 .4h-.4V82l.8-.3q1-.3 1.6-.3 1 0 1.7.6.6.5.6 1.2V87h1.1v.5h-1.7Zm0-2.8-.9-.2h-.9q-1.3 0-2 .5-.5.4-.5 1 0 .5.4.8.4.4 1.2.4.7 0 1.4-.3.6-.3 1.3-1v-1.2Zm6.9 2.8h-1L36 82.3h-.9v-.5H38v.4l-.3.1h-1l2.1 4.8h.3l2-4.8h-1.2v-.5h2.8v.4l-.3.1h-.6l-2.3 5.3Zm7.7-8.8v1.5h-.8v-1.5h.8Zm0 3V87h2.7l.1.3v.2H44V87h2.6v-4.8h-2v-.5h2.6Zm9.4 5.8v-.8q-1.3 1-2.7 1-1 0-1.6-.4-.6-.6-.6-1.3 0-.9.8-1.5t2.2-.6h.9l1 .2v-1q0-.4-.4-.7-.5-.4-1.3-.4-.7 0-2 .4h-.4V82l.8-.3q1-.3 1.6-.3 1 0 1.7.6.6.5.6 1.2V87h1.1v.5h-1.7Zm0-2.8-.9-.2h-.9q-1.3 0-2 .5-.5.4-.5 1 0 .5.4.8.4.4 1.2.4.7 0 1.4-.3.6-.3 1.3-1v-1.2Zm5.2-3H65v.4l-.3.1h-3.1V86q0 .5.4.9.4.3 1.1.3l1.3-.2 1-.4h.5v.4q-.3.3-1.1.5-.8.3-1.6.3-1 0-1.6-.5-.6-.5-.6-1.3v-3.8h-1.4v-.5H61v-1.8q0-.2.2-.3h.4v2ZM74 84.5q0 1.3-1 2.2-1 1-2.2 1-1.4 0-2.3-1-1-.9-1-2.2 0-1.3 1-2.2 1-1 2.3-1 1.3 0 2.2 1 1 .9 1 2.2Zm-.6 0q0-1-.8-1.8T71 82q-1.1 0-2 .8-.7.7-.7 1.8 0 1 .8 1.8t1.9.8q1 0 1.8-.8.8-.7.8-1.8Zm4.7-3V83q1-1 1.6-1.3.6-.3 1-.3.6 0 1 .3l.5.5-.1.3h-.2l-.2-.1q-.3-.3-.5-.3L81 82q-.4 0-1 .3l-1.7 1.4V87H81l.1.3v.2h-5.2V87l.3-.1h1.4v-4.8h-1.4v-.5h2Z"/><path fill="#bdbdbd" d="M32.5 87.5v-.8q-1.3 1-2.7 1-1 0-1.6-.4-.6-.6-.6-1.3 0-.9.8-1.5t2.2-.6h.9l1 .2v-1q0-.4-.4-.7-.5-.4-1.3-.4-.7 0-2 .4h-.4V82l.8-.3q1-.3 1.6-.3 1 0 1.7.6.6.5.6 1.2V87h1.1v.5h-1.7Zm0-2.8-.9-.2h-.9q-1.3 0-2 .5-.5.4-.5 1 0 .5.4.8.4.4 1.2.4.7 0 1.4-.3.6-.3 1.3-1v-1.2Zm6.9 2.8h-1L36 82.3h-.9v-.5H38v.4l-.3.1h-1l2.1 4.8h.3l2-4.8h-1.2v-.5h2.8v.4l-.3.1h-.6l-2.3 5.3Zm7.7-8.8v1.5h-.8v-1.5h.8Zm0 3V87h2.7l.1.3v.2H44V87h2.6v-4.8h-2v-.5h2.6Zm9.4 5.8v-.8q-1.3 1-2.7 1-1 0-1.6-.4-.6-.6-.6-1.3 0-.9.8-1.5t2.2-.6h.9l1 .2v-1q0-.4-.4-.7-.5-.4-1.3-.4-.7 0-2 .4h-.4V82l.8-.3q1-.3 1.6-.3 1 0 1.7.6.6.5.6 1.2V87h1.1v.5h-1.7Zm0-2.8-.9-.2h-.9q-1.3 0-2 .5-.5.4-.5 1 0 .5.4.8.4.4 1.2.4.7 0 1.4-.3.6-.3 1.3-1v-1.2Zm5.2-3H65v.4l-.3.1h-3.1V86q0 .5.4.9.4.3 1.1.3l1.3-.2 1-.4h.5v.4q-.3.3-1.1.5-.8.3-1.6.3-1 0-1.6-.5-.6-.5-.6-1.3v-3.8h-1.4v-.5H61v-1.8q0-.2.2-.3h.4v2ZM74 84.5q0 1.3-1 2.2-1 1-2.2 1-1.4 0-2.3-1-1-.9-1-2.2 0-1.3 1-2.2 1-1 2.3-1 1.3 0 2.2 1 1 .9 1 2.2Zm-.6 0q0-1-.8-1.8T71 82q-1.1 0-2 .8-.7.7-.7 1.8 0 1 .8 1.8t1.9.8q1 0 1.8-.8.8-.7.8-1.8Zm4.7-3V83q1-1 1.6-1.3.6-.3 1-.3.6 0 1 .3l.5.5-.1.3h-.2l-.2-.1q-.3-.3-.5-.3L81 82q-.4 0-1 .3l-1.7 1.4V87H81l.1.3v.2h-5.2V87l.3-.1h1.4v-4.8h-1.4v-.5h2Z"/><path stroke="#e5a50a" stroke-width="4" stroke-linecap="butt" d="M98.7 84h12"/><path stroke="#242424" stroke-width="3" stroke-linejoin="round" stroke-linecap="round" d="M121 79v3.5q.5-.6 1-.8.5-.3 1.1-.3.7 0 1.2.3.4.2.8.7.3.5.3 1V87h.9l.1.3v.2h-2.6V87h1v-3.5q0-.7-.5-1-.4-.5-1.2-.5-.6 0-1 .3-.4.2-1.1 1V87h.9v.5h-2.5V87h1v-7.5h-1.1V79h1.7Zm11.5 8.5v-.8q-1.3 1-2.7 1-1 0-1.6-.4-.6-.6-.6-1.3 0-.9.8-1.5t2.2-.6h.9l1 .2v-1q0-.4-.4-.7-.5-.4-1.3-.4-.7 0-2 .4h-.4V82l.8-.3q1-.3 1.6-.3 1 0 1.7.6.6.5.6 1.2V87h1.1v.5h-1.7Zm0-2.8-.8-.2h-1q-1.3 0-2 .5-.5.4-.5 1 0 .5.4.8.4.4 1.2.4.7 0 1.4-.3.6-.3 1.3-1v-1.2Zm4.5-3v.8l1-.8q.6-.3 1.2-.3t1.2.3q.4.2.7.7.3.5.3 1V87h.8v.5H140V87h.8v-3.5q0-.7-.4-1-.5-.5-1.2-.5-.6 0-1 .2l-1.2 1.2V87h.9l.1.3v.2h-2.5l-.1-.2V87h1v-4.8h-.8v-.5h1.3Zm12.7-2.7v8h1l.1.3v.2H149v-1q-1 1.3-2.6 1.3-.7 0-1.4-.4-.8-.5-1.2-1.2-.4-.8-.4-1.6t.4-1.6q.4-.7 1.2-1.2.7-.4 1.5-.4 1.5 0 2.5 1.4v-3.3h-1V79h1.7Zm-.6 5.6q0-1.1-.8-1.8-.7-.8-1.7-.8t-1.8.8q-.7.7-.7 1.8 0 1 .7 1.9.8.7 1.8.7t1.7-.7q.8-.8.8-1.9Zm3.6-5.6v3.8q1-1.4 2.5-1.4 1.2 0 2.1 1 1 .9 1 2.2 0 1.3-1 2.2-.9 1-2.1 1-1.5 0-2.5-1.4v1.1H151V87h1.1v-7.5H151V79h1.7Zm5 5.6q0-1-.8-1.8-.7-.8-1.7-.8t-1.8.8q-.7.7-.7 1.8 0 1 .7 1.9.8.7 1.8.7t1.7-.7q.8-.8.8-1.9Zm4.5-3v1.5q1-1 1.6-1.3.6-.3 1-.3.6 0 1 .3l.5.5-.1.3h-.3l-.2-.1q-.3-.3-.5-.3l-.3-.1q-.4 0-1 .3l-1.7 1.4V87h2.8l.1.3v.2h-5.2V87l.3-.1h1.4v-4.8h-1.4v-.5h2Zm10.3 6v-.9q-1.3 1-2.7 1-1 0-1.6-.4-.6-.6-.6-1.3 0-.9.8-1.5t2.2-.6h.9l1 .2v-1q0-.4-.4-.7-.5-.4-1.3-.4-.7 0-2 .4h-.4V82l.8-.3q1-.3 1.6-.3 1 0 1.7.6.6.5.6 1.2V87h1.1v.5h-1.7Zm0-3h-.8l-1-.1q-1.3 0-2 .5-.5.4-.5 1 0 .5.4.8.4.4 1.2.4.7 0 1.4-.3.6-.3 1.3-1v-1.2Zm5.2.4v2.5H176V87h1.1v-7.5H176V79h1.7v5.3l2.4-2h-.3q-.2 0-.3-.2v-.4h2.5v.4l-.3.1h-.7l-2.2 1.9 2.8 2.9h1v.5H180V87h.7l-2.5-2.6-.6.6Zm12.3-.3h-6q.2 1.1 1 1.8.7.7 1.9.7l1.3-.2q.7-.2 1.2-.6h.4v.4q-.4.4-1.2.7-.8.3-1.7.3-1.5 0-2.5-1t-1-2.3q0-1.3 1-2.2.9-.9 2.2-.9 1.5 0 2.4 1 .9.9.9 2.3Zm-.6-.6q-.2-1-1-1.5-.7-.6-1.7-.6t-1.7.6q-.7.6-.9 1.5h5.3Z"/><path fill="#bdbdbd" d="M121 79v3.5q.5-.6 1-.8.5-.3 1.1-.3.7 0 1.2.3.4.2.8.7.3.5.3 1V87h.9l.1.3v.2h-2.6V87h1v-3.5q0-.7-.5-1-.4-.5-1.2-.5-.6 0-1 .3-.4.2-1.1 1V87h.9v.5h-2.5V87h1v-7.5h-1.1V79h1.7Zm11.5 8.5v-.8q-1.3 1-2.7 1-1 0-1.6-.4-.6-.6-.6-1.3 0-.9.8-1.5t2.2-.6h.9l1 .2v-1q0-.4-.4-.7-.5-.4-1.3-.4-.7 0-2 .4h-.4V82l.8-.3q1-.3 1.6-.3 1 0 1.7.6.6.5.6 1.2V87h1.1v.5h-1.7Zm0-2.8-.8-.2h-1q-1.3 0-2 .5-.5.4-.5 1 0 .5.4.8.4.4 1.2.4.7 0 1.4-.3.6-.3 1.3-1v-1.2Zm4.5-3v.8l1-.8q.6-.3 1.2-.3t1.2.3q.4.2.7.7.3.5.3 1V87h.8v.5H140V87h.8v-3.5q0-.7-.4-1-.5-.5-1.2-.5-.6 0-1 .2l-1.2 1.2V87h.9l.1.3v.2h-2.5l-.1-.2V87h1v-4.8h-.8v-.5h1.3Zm12.7-2.7v8h1l.1.3v.2H149v-1q-1 1.3-2.6 1.3-.7 0-1.4-.4-.8-.5-1.2-1.2-.4-.8-.4-1.6t.4-1.6q.4-.7 1.2-1.2.7-.4 1.5-.4 1.5 0 2.5 1.4v-3.3h-1V79h1.7Zm-.6 5.6q0-1.1-.8-1.8-.7-.8-1.7-.8t-1.8.8q-.7.7-.7 1.8 0 1 .7 1.9.8.7 1.8.7t1.7-.7q.8-.8.8-1.9Zm3.6-5.6v3.8q1-1.4 2.5-1.4 1.2 0 2.1 1 1 .9 1 2.2 0 1.3-1 2.2-.9 1-2.1 1-1.5 0-2.5-1.4v1.1H151V87h1.1v-7.5H151V79h1.7Zm5 5.6q0-1-.8-1.8-.7-.8-1.7-.8t-1.8.8q-.7.7-.7 1.8 0 1 .7 1.9.8.7 1.8.7t1.7-.7q.8-.8.8-1.9Zm4.5-3v1.5q1-1 1.6-1.3.6-.3 1-.3.6 0 1 .3l.5.5-.1.3h-.3l-.2-.1q-.3-.3-.5-.3l-.3-.1q-.4 0-1 .3l-1.7 1.4V87h2.8l.1.3v.2h-5.2V87l.3-.1h1.4v-4.8h-1.4v-.5h2Zm10.3 6v-.9q-1.3 1-2.7 1-1 0-1.6-.4-.6-.6-.6-1.3 0-.9.8-1.5t2.2-.6h.9l1 .2v-1q0-.4-.4-.7-.5-.4-1.3-.4-.7 0-2 .4h-.4V82l.8-.3q1-.3 1.6-.3 1 0 1.7.6.6.5.6 1.2V87h1.1v.5h-1.7Zm0-3h-.8l-1-.1q-1.3 0-2 .5-.5.4-.5 1 0 .5.4.8.4.4 1.2.4.7 0 1.4-.3.6-.3 1.3-1v-1.2Zm5.2.4v2.5H176V87h1.1v-7.5H176V79h1.7v5.3l2.4-2h-.3q-.2 0-.3-.2v-.4h2.5v.4l-.3.1h-.7l-2.2 1.9 2.8 2.9h1v.5H180V87h.7l-2.5-2.6-.6.6Zm12.3-.3h-6q.2 1.1 1 1.8.7.7 1.9.7l1.3-.2q.7-.2 1.2-.6h.4v.4q-.4.4-1.2.7-.8.3-1.7.3-1.5 0-2.5-1t-1-2.3q0-1.3 1-2.2.9-.9 2.2-.9 1.5 0 2.4 1 .9.9.9 2.3Zm-.6-.6q-.2-1-1-1.5-.7-.6-1.7-.6t-1.7.6q-.7.6-.9 1.5h5.3Z"/><path stroke="#242424" stroke-width="3" stroke-linejoin="round" stroke-linecap="round" d="m13 53.3.6-.2q.3 0 .4.2.2.2.2.7v1q0 .4-.2.7-.1.2-.5.2l-.4-.2q-.2-.1-.3-.5 0-.4-.4-.6-.5-.3-1.4-.3-1 0-1.6.6-.6.6-.6 1.5 0 .8.6 1.3.6.4 2 .4l1.3-.1.7-.4q.3-.3.5-.3.3 0 .5.2t.2.5q0 .5-.6 1-1 .5-2.8.5-1.6 0-2.5-.6-1.3-1-1.3-2.5t1-2.5q1-1 2.6-1l1.1.1 1 .3Zm5.6-.2v.9q.8-.7 1.3-.9l1-.2q.7 0 1.3.5.5.4.5.7 0 .3-.2.5t-.5.2l-.6-.2q-.3-.3-.5-.3-.3 0-.9.4-.6.3-1.4 1V58h2q.5 0 .7.2.2.2.2.5t-.2.5q-.2.2-.7.2h-4.3q-.5 0-.7-.2-.2-.2-.2-.5t.2-.5q.2-.2.7-.2h.9v-3.4h-.6q-.5 0-.7-.2-.2-.2-.2-.5t.2-.5q.2-.2.7-.2h2Zm11.9 3.2q0 .8-.5 1.6-.4.7-1.3 1.2-.9.4-1.8.4-1 0-1.9-.4-.9-.5-1.3-1.2-.5-.8-.5-1.6t.5-1.7q.5-.8 1.3-1.2 1-.5 1.9-.5 1 0 1.8.5.9.5 1.3 1.3.5.8.5 1.6Zm-1.4 0q0-.7-.5-1.2-.7-.8-1.7-.8t-1.6.6q-.7.6-.7 1.4 0 .7.7 1.3.6.5 1.6.5t1.5-.5q.7-.6.7-1.3Zm5.8.4-1 2.6h-1.3l-1.2-4.8q-.4 0-.6-.2-.2-.2-.2-.5t.2-.5q.3-.2.8-.2h1.3q.5 0 .7.2.2.2.2.5t-.2.5q-.2.2-.8.2l.6 2.2.8-2.3h1.3l.9 2.3.5-2.2-.7-.1q-.3-.2-.3-.6 0-.3.2-.5t.7-.2h1.4q.4 0 .7.2.2.2.2.5t-.2.5q-.2.2-.6.2l-1.1 4.8h-1.3l-1-2.6ZM46 50.4V58h.2q.5 0 .7.2.2.2.2.5t-.2.5q-.2.2-.7.2h-1.6V59l-1 .4-1.1.1q-1.6 0-2.6-.9t-1-2.3q0-1.4 1-2.4 1.1-1 2.6-1l1 .2q.5.1 1 .5v-1.8h-.2q-.5 0-.7-.2-.2-.2-.2-.5t.2-.5q.2-.2.7-.2H46Zm-1.4 6q0-.9-.6-1.5-.7-.6-1.5-.6-.9 0-1.5.6t-.6 1.5q0 .7.5 1.2.6.5 1.6.5t1.5-.5q.6-.5.6-1.2Zm14-3.4v.9q.8-.7 1.3-.9l1-.2q.7 0 1.3.5.5.4.5.7 0 .3-.2.5t-.5.2l-.6-.2q-.3-.3-.5-.3-.3 0-.9.4-.6.3-1.4 1V58h2q.5 0 .7.2.2.2.2.5t-.2.5q-.2.2-.7.2h-4.3q-.5 0-.7-.2-.2-.2-.2-.5t.2-.5q.2-.2.7-.2h.9v-3.4h-.6q-.5 0-.7-.2-.2-.2-.2-.5t.2-.5q.3-.2.8-.2h1.9Zm11.2 0v4.8q.5 0 .7.2.2.2.2.5t-.2.5q-.2.2-.7.2h-1.4V59l-1.1.4-1 .1q-.7 0-1.3-.3-.5-.3-.8-.8-.2-.3-.2-.9v-3h-.2q-.5 0-.7-.2-.2-.2-.2-.5t.2-.5q.2-.2.7-.2h1.6v4.2q0 .4.3.6.2.2.6.2l1-.1 1.1-.7v-2.8H68q-.5 0-.7-.2-.2-.2-.2-.5t.2-.5q.2-.2.7-.2h2Zm3.6 0v.5q.4-.4.9-.5.4-.2 1-.2 1.2 0 2 .8.5.6.5 1.6v2.6q.5 0 .7.2.2.2.2.5t-.2.5q-.2.2-.7.2h-1.3q-.5 0-.7-.2-.2-.2-.2-.5t.2-.5q.2-.2.6-.2v-2.6q0-.5-.2-.7-.3-.3-1-.3-.5 0-.8.2l-1 .8v2.6l.7.1q.4.2.4.6 0 .3-.3.5-.2.2-.7.2H72q-.5 0-.7-.2-.2-.2-.2-.5 0-.4.3-.6l.7-.1v-3.4q-.4 0-.6-.2-.2-.2-.2-.5t.2-.5q.2-.2.7-.2h1.3Zm17 2.8q0-1.2.3-2.4.3-1 1-2l.6-1q.2-.2.5-.2t.5.2q.2.2.2.5l-.2.5q-.7 1.2-1 2.3-.4 1-.4 2 0 1.2.3 2.3l1.1 2.2.2.5q0 .3-.2.5t-.5.2q-.3 0-.5-.2l-.7-1-.9-2q-.3-1.3-.3-2.4Zm12 1h-5.8q.2.6.8.9.5.3 1.5.3.8 0 2-.3l.8-.1q.3 0 .5.2.2.1.2.4 0 .3-.2.5-.3.3-1.4.5l-2 .2q-1.7 0-2.7-1-1-.9-1-2.3t1-2.4q1.2-.9 2.6-.9.9 0 1.6.3.7.3 1 .7l.9 1.2q.2.5.2 1.2v.6Zm-1.6-1.4q-.3-.6-.8-.9-.5-.3-1.3-.3-.7 0-1.2.3t-.8.9h4.1Zm7.1.6 2.1 1.8q.4 0 .6.2.2.2.2.5t-.2.5q-.2.2-.7.2h-1.6q-.5 0-.8-.2-.2-.2-.2-.5t.2-.4q.1-.2.4-.3l-1-.9-1.1.9q.3 0 .4.3.2.1.2.4 0 .3-.2.5t-.7.2h-1.6q-.5 0-.8-.2-.2-.2-.2-.5t.2-.5q.2-.2.6-.2l2-1.8-1.8-1.6q-.3 0-.5-.2t-.2-.5q0-.3.2-.5t.8-.2h1.3q.5 0 .7.2.2.2.2.5 0 .4-.4.6l.9.7.8-.7q-.4-.2-.4-.6 0-.3.2-.5t.8-.2h1.3q.5 0 .7.2.2.2.2.5t-.2.5q-.2.2-.6.2L108 56Zm5.2 2.4v2.3h.8q.6 0 .8.2.2.2.2.5t-.2.5q-.2.2-.8.2h-2.4q-.5 0-.8-.2-.2-.2-.2-.5t.3-.5q.2-.2.7-.2h.2v-6.3h-.2q-.5 0-.8-.2-.2-.2-.2-.5t.2-.5q.3-.2.8-.2h1.6v.5q.5-.4 1-.5l1.1-.2q1.5 0 2.5 1t1 2.2q0 1.4-1.2 2.3-1 .8-2.3.8l-1-.2-1-.5Zm4.2-2.4q0-.3-.3-.7-.2-.5-.7-.8-.5-.3-1.1-.3-1 0-1.7.8-.4.5-.4 1 0 .6.6 1.1.6.6 1.5.6t1.5-.6q.6-.5.6-1Zm6.8 3.2V59q-.5.3-1.2.4l-1.1.1q-1.1 0-1.8-.6t-.7-1.3q0-.9.9-1.6.9-.8 2.5-.8l1.4.2V55q0-.3-.3-.5-.2-.2-1-.2-.6 0-1.6.3h-.6l-.4-.2q-.2-.2-.2-.5v-.3l.2-.2.5-.2 1-.2h1q1.4 0 2 .5.8.5.8 1.5v3h.3q.5 0 .7.2.2.2.2.5t-.2.5q-.2.2-.7.2H124Zm0-2.5-1.5-.2q-.9 0-1.5.4-.4.3-.4.6 0 .2.2.3.3.2 1 .2l1-.2 1.2-.5v-.6Zm5.3-3.7v.5q.4-.4.9-.5.4-.2 1-.2 1.2 0 2 .8.5.6.5 1.6v2.6q.5 0 .7.2.2.2.2.5t-.2.5q-.2.2-.7.2h-1.3q-.5 0-.7-.2-.2-.2-.2-.5t.2-.5q.2-.2.6-.2v-2.6q0-.5-.2-.7-.3-.3-1-.3-.5 0-.8.2l-1 .8v2.6l.7.1q.4.2.4.6 0 .3-.3.5-.2.2-.7.2H128q-.5 0-.7-.2-.2-.2-.2-.5 0-.4.3-.6l.7-.1v-3.4q-.4 0-.6-.2-.2-.2-.2-.5t.2-.5q.2-.2.7-.2h1.3Zm12.7-2.7V58h.2q.5 0 .7.2.2.2.2.5t-.2.5q-.2.2-.7.2h-1.6V59l-1 .4-1.1.1q-1.6 0-2.6-.9t-1-2.3q0-1.4 1-2.4 1.1-1 2.6-1l1 .2q.6.1 1 .5v-1.8h-.2q-.5 0-.7-.2-.2-.2-.2-.5t.2-.5q.2-.2.7-.2h1.7Zm-1.4 6q0-.9-.6-1.5-.7-.6-1.5-.6-.9 0-1.5.6t-.6 1.5q0 .7.5 1.2.6.5 1.6.5t1.5-.5q.6-.5.6-1.2Zm9.7.5h-5.8q.2.6.8.9.5.3 1.5.3.8 0 2-.3l.8-.1q.3 0 .5.2.2.1.2.4 0 .3-.2.5-.3.3-1.4.5l-2 .2q-1.7 0-2.7-1-1-.9-1-2.3t1-2.4q1.2-.9 2.6-.9.9 0 1.6.3.7.3 1 .7.5.5.8 1.2.3.5.3 1.2v.6Zm-1.6-1.4q-.3-.6-.8-.9-.5-.3-1.3-.3-.7 0-1.2.3t-.8.9h4.1Zm9.3-5v7.4h.2q.5 0 .7.2.2.2.2.5t-.2.5q-.2.2-.7.2h-1.6V59l-1 .4-1.1.1q-1.6 0-2.6-.9t-1-2.3q0-1.4 1-2.4 1.1-1 2.6-1l1 .2q.6.1 1 .5v-1.8h-.2q-.5 0-.7-.2-.2-.2-.2-.5t.2-.5q.2-.2.7-.2h1.7Zm-1.4 5.9q0-.9-.6-1.5-.7-.6-1.5-.6-.9 0-1.5.6t-.6 1.5q0 .7.5 1.2.6.5 1.6.5t1.5-.5q.6-.5.6-1.2Zm5.8 1h1.9l-2 3.8q-.2.3-.5.3h-.3l-.1-.3v-.3l1-3.5Zm17.9-2.7-.8-.3h-.7q-.9 0-1.3.2-.2 0-.2.2t.3.3q.2.2 1 .2l1.9.4q.7.3 1 .8.5.5.5 1 0 .8-.7 1.3-1 .7-2.5.7h-1l-1-.4-.3.2h-.2q-.3 0-.5-.2t-.2-.7v-.5q0-.5.2-.7.2-.3.5-.3l.4.2q.2.1.3.5l.8.4 1 .1q1 0 1.5-.3.2-.1.2-.3 0-.3-.3-.5l-1.5-.2q-1.7-.2-2.3-.7-.5-.5-.5-1.3 0-.7.6-1.2.8-.7 2.3-.7l.9.1.8.3.3-.2h.2q.3 0 .5.2t.2.7v.4q0 .4-.2.6-.2.3-.5.3t-.5-.2q-.2-.1-.2-.4Zm4.7 3.8v2.3h.8q.6 0 .8.2.2.2.2.5t-.2.5q-.2.2-.8.2h-2.4q-.5 0-.8-.2-.2-.2-.2-.5t.3-.5q.2-.2.7-.2h.2v-6.3h-.2q-.5 0-.8-.2-.2-.2-.2-.5t.2-.5q.3-.2.8-.2h1.6v.5q.5-.4 1-.5l1.1-.2q1.5 0 2.5 1t1 2.2q0 1.4-1.2 2.3-1 .8-2.3.8l-1-.2-1-.5Zm4.2-2.4q0-.3-.3-.7-.2-.5-.7-.8-.5-.3-1.1-.3-1 0-1.7.8-.4.5-.4 1 0 .6.6 1.1.6.6 1.5.6t1.5-.6q.6-.5.6-1Zm9 .8h-5.7q.2.6.8.9.5.3 1.5.3.8 0 2-.3l.8-.1q.3 0 .5.2.2.1.2.4 0 .3-.2.5-.3.3-1.4.5l-2 .2q-1.7 0-2.7-1-1-.9-1-2.3t1-2.4q1.2-.9 2.6-.9.9 0 1.6.3.7.3 1 .7.5.5.8 1.2.3.5.3 1.2v.6Zm-1.5-1.4q-.3-.6-.8-.9-.5-.3-1.3-.3-.7 0-1.2.3t-.8.9h4.1Zm9.6 1.4h-5.8q.2.6.8.9.5.3 1.5.3.8 0 2-.3l.8-.1q.3 0 .5.2.2.1.2.4 0 .3-.2.5-.3.3-1.4.5l-2 .2q-1.7 0-2.7-1-1-.9-1-2.3t1-2.4q1.2-.9 2.6-.9.9 0 1.6.3.7.3 1 .7.5.5.8 1.2.3.5.3 1.2v.6Zm-1.6-1.4q-.3-.6-.8-.9-.5-.3-1.3-.3-.7 0-1.2.3t-.8.9h4.1Zm9.3-5v7.4h.2q.5 0 .7.2.2.2.2.5t-.2.5q-.2.2-.7.2h-1.6V59l-1 .4-1.1.1q-1.6 0-2.6-.9t-1-2.3q0-1.4 1-2.4 1.1-1 2.6-1l1 .2q.6.1 1 .5v-1.8h-.2q-.5 0-.7-.2-.2-.2-.2-.5t.2-.5q.2-.2.7-.2h1.7Zm-1.4 5.9q0-.9-.6-1.5-.7-.6-1.5-.6-.9 0-1.5.6t-.6 1.5q0 .7.5 1.2.6.5 1.6.5t1.5-.5q.6-.5.6-1.2Zm12.8-1.9 1-.6 1-.2q1 0 1.9.9.8.9.8 2.2 0 1.2-.7 2-.8.7-2.1.7-1.1 0-1.8-.5t-1.1-1.6q-.4-1-.4-2.4 0-1.5.7-2.6.8-1 1.7-1.6 1-.6 2-.6t1.4.4q.3.2.3.5l-.2.6q-.2.2-.5.2l-.4-.2-.4-.1q-.7 0-1.4.4t-1.2 1.1q-.4.6-.6 1.4Zm.2 2.2q.3.8.6 1.1.4.3 1.1.3.7 0 1-.4.4-.3.4-1t-.4-1.1q-.4-.5-1-.5-.4 0-.9.4-.4.4-.8 1.2Zm9.7-.8q0 1.2-.3 2.4-.3 1-1 2l-.6 1q-.2.2-.5.2t-.5-.2q-.2-.2-.2-.5l.2-.5q.7-1.2 1-2.3.4-1 .4-2.1 0-1-.4-2.1-.3-1.1-1-2.3l-.2-.5q0-.3.2-.5t.5-.2q.3 0 .5.2l.7 1 .9 2q.3 1.3.3 2.4Zm18.4 0h-5.9v-1.2h5.9V56Zm15.1-5.4v5.4q.5 0 .7.2.2.2.2.5t-.2.5q-.3.2-.7.2v.6q.5 0 .7.2.2.2.2.5t-.2.5q-.3.2-.8.2H267q-.6 0-.8-.2-.2-.2-.2-.5t.2-.5q.2-.2.8-.2h.5v-.6h-3.8v-1.1l3.4-5.7h1.8Zm-1.4 5.4v-3.4l-2 3.4h2Zm6.2 1v2.4h-1.6q-.5 0-.8-.2-.2-.2-.2-.5t.2-.5q.3-.2.8-.2h.2v-6h-.2q-.5 0-.8-.3-.2-.2-.2-.5t.2-.5q.3-.2.8-.2h1.6v4.8l1-1v-.4l.1-.5q.2-.2.8-.2h1.5q.5 0 .8.2.2.2.2.5t-.2.5q-.3.2-.8.2h-.3l-1.7 1.4 2.3 2h.4q.5 0 .7.2.2.2.2.5t-.2.5q-.2.2-.7.2H276q-.5 0-.7-.2-.2-.2-.2-.5t.2-.5l-1.4-1.3-.3.2Z"/><path fill="#bdbdbd" d="m13 53.3.6-.2q.3 0 .4.2.2.2.2.7v1q0 .4-.2.7-.1.2-.5.2l-.4-.2q-.2-.1-.3-.5 0-.4-.4-.6-.5-.3-1.4-.3-1 0-1.6.6-.6.6-.6 1.5 0 .8.6 1.3.6.4 2 .4l1.3-.1.7-.4q.3-.3.5-.3.3 0 .5.2t.2.5q0 .5-.6 1-1 .5-2.8.5-1.6 0-2.5-.6-1.3-1-1.3-2.5t1-2.5q1-1 2.6-1l1.1.1 1 .3Zm5.6-.2v.9q.8-.7 1.3-.9l1-.2q.7 0 1.3.5.5.4.5.7 0 .3-.2.5t-.5.2l-.6-.2q-.3-.3-.5-.3-.3 0-.9.4-.6.3-1.4 1V58h2q.5 0 .7.2.2.2.2.5t-.2.5q-.2.2-.7.2h-4.3q-.5 0-.7-.2-.2-.2-.2-.5t.2-.5q.2-.2.7-.2h.9v-3.4h-.6q-.5 0-.7-.2-.2-.2-.2-.5t.2-.5q.2-.2.7-.2h2Zm11.9 3.2q0 .8-.5 1.6-.4.7-1.3 1.2-.9.4-1.8.4-1 0-1.9-.4-.9-.5-1.3-1.2-.5-.8-.5-1.6t.5-1.7q.5-.8 1.3-1.2 1-.5 1.9-.5 1 0 1.8.5.9.5 1.3 1.3.5.8.5 1.6Zm-1.4 0q0-.7-.5-1.2-.7-.8-1.7-.8t-1.6.6q-.7.6-.7 1.4 0 .7.7 1.3.6.5 1.6.5t1.5-.5q.7-.6.7-1.3Zm5.8.4-1 2.6h-1.3l-1.2-4.8q-.4 0-.6-.2-.2-.2-.2-.5t.2-.5q.3-.2.8-.2h1.3q.5 0 .7.2.2.2.2.5t-.2.5q-.2.2-.8.2l.6 2.2.8-2.3h1.3l.9 2.3.5-2.2-.7-.1q-.3-.2-.3-.6 0-.3.2-.5t.7-.2h1.4q.4 0 .7.2.2.2.2.5t-.2.5q-.2.2-.6.2l-1.1 4.8h-1.3l-1-2.6ZM46 50.4V58h.2q.5 0 .7.2.2.2.2.5t-.2.5q-.2.2-.7.2h-1.6V59l-1 .4-1.1.1q-1.6 0-2.6-.9t-1-2.3q0-1.4 1-2.4 1.1-1 2.6-1l1 .2q.5.1 1 .5v-1.8h-.2q-.5 0-.7-.2-.2-.2-.2-.5t.2-.5q.2-.2.7-.2H46Zm-1.4 6q0-.9-.6-1.5-.7-.6-1.5-.6-.9 0-1.5.6t-.6 1.5q0 .7.5 1.2.6.5 1.6.5t1.5-.5q.6-.5.6-1.2Zm14-3.4v.9q.8-.7 1.3-.9l1-.2q.7 0 1.3.5.5.4.5.7 0 .3-.2.5t-.5.2l-.6-.2q-.3-.3-.5-.3-.3 0-.9.4-.6.3-1.4 1V58h2q.5 0 .7.2.2.2.2.5t-.2.5q-.2.2-.7.2h-4.3q-.5 0-.7-.2-.2-.2-.2-.5t.2-.5q.2-.2.7-.2h.9v-3.4h-.6q-.5 0-.7-.2-.2-.2-.2-.5t.2-.5q.3-.2.8-.2h1.9Zm11.2 0v4.8q.5 0 .7.2.2.2.2.5t-.2.5q-.2.2-.7.2h-1.4V59l-1.1.4-1 .1q-.7 0-1.3-.3-.5-.3-.8-.8-.2-.3-.2-.9v-3h-.2q-.5 0-.7-.2-.2-.2-.2-.5t.2-.5q.2-.2.7-.2h1.6v4.2q0 .4.3.6.2.2.6.2l1-.1 1.1-.7v-2.8H68q-.5 0-.7-.2-.2-.2-.2-.5t.2-.5q.2-.2.7-.2h2Zm3.6 0v.5q.4-.4.9-.5.4-.2 1-.2 1.2 0 2 .8.5.6.5 1.6v2.6q.5 0 .7.2.2.2.2.5t-.2.5q-.2.2-.7.2h-1.3q-.5 0-.7-.2-.2-.2-.2-.5t.2-.5q.2-.2.6-.2v-2.6q0-.5-.2-.7-.3-.3-1-.3-.5 0-.8.2l-1 .8v2.6l.7.1q.4.2.4.6 0 .3-.3.5-.2.2-.7.2H72q-.5 0-.7-.2-.2-.2-.2-.5 0-.4.3-.6l.7-.1v-3.4q-.4 0-.6-.2-.2-.2-.2-.5t.2-.5q.2-.2.7-.2h1.3Zm17 2.8q0-1.2.3-2.4.3-1 1-2l.6-1q.2-.2.5-.2t.5.2q.2.2.2.5l-.2.5q-.7 1.2-1 2.3-.4 1-.4 2 0 1.2.3 2.3l1.1 2.2.2.5q0 .3-.2.5t-.5.2q-.3 0-.5-.2l-.7-1-.9-2q-.3-1.3-.3-2.4Zm12 1h-5.8q.2.6.8.9.5.3 1.5.3.8 0 2-.3l.8-.1q.3 0 .5.2.2.1.2.4 0 .3-.2.5-.3.3-1.4.5l-2 .2q-1.7 0-2.7-1-1-.9-1-2.3t1-2.4q1.2-.9 2.6-.9.9 0 1.6.3.7.3 1 .7l.9 1.2q.2.5.2 1.2v.6Zm-1.6-1.4q-.3-.6-.8-.9-.5-.3-1.3-.3-.7 0-1.2.3t-.8.9h4.1Zm7.1.6 2.1 1.8q.4 0 .6.2.2.2.2.5t-.2.5q-.2.2-.7.2h-1.6q-.5 0-.8-.2-.2-.2-.2-.5t.2-.4q.1-.2.4-.3l-1-.9-1.1.9q.3 0 .4.3.2.1.2.4 0 .3-.2.5t-.7.2h-1.6q-.5 0-.8-.2-.2-.2-.2-.5t.2-.5q.2-.2.6-.2l2-1.8-1.8-1.6q-.3 0-.5-.2t-.2-.5q0-.3.2-.5t.8-.2h1.3q.5 0 .7.2.2.2.2.5 0 .4-.4.6l.9.7.8-.7q-.4-.2-.4-.6 0-.3.2-.5t.8-.2h1.3q.5 0 .7.2.2.2.2.5t-.2.5q-.2.2-.6.2L108 56Zm5.2 2.4v2.3h.8q.6 0 .8.2.2.2.2.5t-.2.5q-.2.2-.8.2h-2.4q-.5 0-.8-.2-.2-.2-.2-.5t.3-.5q.2-.2.7-.2h.2v-6.3h-.2q-.5 0-.8-.2-.2-.2-.2-.5t.2-.5q.3-.2.8-.2h1.6v.5q.5-.4 1-.5l1.1-.2q1.5 0 2.5 1t1 2.2q0 1.4-1.2 2.3-1 .8-2.3.8l-1-.2-1-.5Zm4.2-2.4q0-.3-.3-.7-.2-.5-.7-.8-.5-.3-1.1-.3-1 0-1.7.8-.4.5-.4 1 0 .6.6 1.1.6.6 1.5.6t1.5-.6q.6-.5.6-1Zm6.8 3.2V59q-.5.3-1.2.4l-1.1.1q-1.1 0-1.8-.6t-.7-1.3q0-.9.9-1.6.9-.8 2.5-.8l1.4.2V55q0-.3-.3-.5-.2-.2-1-.2-.6 0-1.6.3h-.6l-.4-.2q-.2-.2-.2-.5v-.3l.2-.2.5-.2 1-.2h1q1.4 0 2 .5.8.5.8 1.5v3h.3q.5 0 .7.2.2.2.2.5t-.2.5q-.2.2-.7.2H124Zm0-2.5-1.5-.2q-.9 0-1.5.4-.4.3-.4.6 0 .2.2.3.3.2 1 .2l1-.2 1.2-.5v-.6Zm5.3-3.7v.5q.4-.4.9-.5.4-.2 1-.2 1.2 0 2 .8.5.6.5 1.6v2.6q.5 0 .7.2.2.2.2.5t-.2.5q-.2.2-.7.2h-1.3q-.5 0-.7-.2-.2-.2-.2-.5t.2-.5q.2-.2.6-.2v-2.6q0-.5-.2-.7-.3-.3-1-.3-.5 0-.8.2l-1 .8v2.6l.7.1q.4.2.4.6 0 .3-.3.5-.2.2-.7.2H128q-.5 0-.7-.2-.2-.2-.2-.5 0-.4.3-.6l.7-.1v-3.4q-.4 0-.6-.2-.2-.2-.2-.5t.2-.5q.2-.2.7-.2h1.3Zm12.7-2.7V58h.2q.5 0 .7.2.2.2.2.5t-.2.5q-.2.2-.7.2h-1.6V59l-1 .4-1.1.1q-1.6 0-2.6-.9t-1-2.3q0-1.4 1-2.4 1.1-1 2.6-1l1 .2q.6.1 1 .5v-1.8h-.2q-.5 0-.7-.2-.2-.2-.2-.5t.2-.5q.2-.2.7-.2h1.7Zm-1.4 6q0-.9-.6-1.5-.7-.6-1.5-.6-.9 0-1.5.6t-.6 1.5q0 .7.5 1.2.6.5 1.6.5t1.5-.5q.6-.5.6-1.2Zm9.7.5h-5.8q.2.6.8.9.5.3 1.5.3.8 0 2-.3l.8-.1q.3 0 .5.2.2.1.2.4 0 .3-.2.5-.3.3-1.4.5l-2 .2q-1.7 0-2.7-1-1-.9-1-2.3t1-2.4q1.2-.9 2.6-.9.9 0 1.6.3.7.3 1 .7.5.5.8 1.2.3.5.3 1.2v.6Zm-1.6-1.4q-.3-.6-.8-.9-.5-.3-1.3-.3-.7 0-1.2.3t-.8.9h4.1Zm9.3-5v7.4h.2q.5 0 .7.2.2.2.2.5t-.2.5q-.2.2-.7.2h-1.6V59l-1 .4-1.1.1q-1.6 0-2.6-.9t-1-2.3q0-1.4 1-2.4 1.1-1 2.6-1l1 .2q.6.1 1 .5v-1.8h-.2q-.5 0-.7-.2-.2-.2-.2-.5t.2-.5q.2-.2.7-.2h1.7Zm-1.4 5.9q0-.9-.6-1.5-.7-.6-1.5-.6-.9 0-1.5.6t-.6 1.5q0 .7.5 1.2.6.5 1.6.5t1.5-.5q.6-.5.6-1.2Zm5.8 1h1.9l-2 3.8q-.2.3-.5.3h-.3l-.1-.3v-.3l1-3.5Zm17.9-2.7-.8-.3h-.7q-.9 0-1.3.2-.2 0-.2.2t.3.3q.2.2 1 .2l1.9.4q.7.3 1 .8.5.5.5 1 0 .8-.7 1.3-1 .7-2.5.7h-1l-1-.4-.3.2h-.2q-.3 0-.5-.2t-.2-.7v-.5q0-.5.2-.7.2-.3.5-.3l.4.2q.2.1.3.5l.8.4 1 .1q1 0 1.5-.3.2-.1.2-.3 0-.3-.3-.5l-1.5-.2q-1.7-.2-2.3-.7-.5-.5-.5-1.3 0-.7.6-1.2.8-.7 2.3-.7l.9.1.8.3.3-.2h.2q.3 0 .5.2t.2.7v.4q0 .4-.2.6-.2.3-.5.3t-.5-.2q-.2-.1-.2-.4Zm4.7 3.8v2.3h.8q.6 0 .8.2.2.2.2.5t-.2.5q-.2.2-.8.2h-2.4q-.5 0-.8-.2-.2-.2-.2-.5t.3-.5q.2-.2.7-.2h.2v-6.3h-.2q-.5 0-.8-.2-.2-.2-.2-.5t.2-.5q.3-.2.8-.2h1.6v.5q.5-.4 1-.5l1.1-.2q1.5 0 2.5 1t1 2.2q0 1.4-1.2 2.3-1 .8-2.3.8l-1-.2-1-.5Zm4.2-2.4q0-.3-.3-.7-.2-.5-.7-.8-.5-.3-1.1-.3-1 0-1.7.8-.4.5-.4 1 0 .6.6 1.1.6.6 1.5.6t1.5-.6q.6-.5.6-1Zm9 .8h-5.7q.2.6.8.9.5.3 1.5.3.8 0 2-.3l.8-.1q.3 0 .5.2.2.1.2.4 0 .3-.2.5-.3.3-1.4.5l-2 .2q-1.7 0-2.7-1-1-.9-1-2.3t1-2.4q1.2-.9 2.6-.9.9 0 1.6.3.7.3 1 .7.5.5.8 1.2.3.5.3 1.2v.6Zm-1.5-1.4q-.3-.6-.8-.9-.5-.3-1.3-.3-.7 0-1.2.3t-.8.9h4.1Zm9.6 1.4h-5.8q.2.6.8.9.5.3 1.5.3.8 0 2-.3l.8-.1q.3 0 .5.2.2.1.2.4 0 .3-.2.5-.3.3-1.4.5l-2 .2q-1.7 0-2.7-1-1-.9-1-2.3t1-2.4q1.2-.9 2.6-.9.9 0 1.6.3.7.3 1 .7.5.5.8 1.2.3.5.3 1.2v.6Zm-1.6-1.4q-.3-.6-.8-.9-.5-.3-1.3-.3-.7 0-1.2.3t-.8.9h4.1Zm9.3-5v7.4h.2q.5 0 .7.2.2.2.2.5t-.2.5q-.2.2-.7.2h-1.6V59l-1 .4-1.1.1q-1.6 0-2.6-.9t-1-2.3q0-1.4 1-2.4 1.1-1 2.6-1l1 .2q.6.1 1 .5v-1.8h-.2q-.5 0-.7-.2-.2-.2-.2-.5t.2-.5q.2-.2.7-.2h1.7Zm-1.4 5.9q0-.9-.6-1.5-.7-.6-1.5-.6-.9 0-1.5.6t-.6 1.5q0 .7.5 1.2.6.5 1.6.5t1.5-.5q.6-.5.6-1.2Zm12.8-1.9 1-.6 1-.2q1 0 1.9.9.8.9.8 2.2 0 1.2-.7 2-.8.7-2.1.7-1.1 0-1.8-.5t-1.1-1.6q-.4-1-.4-2.4 0-1.5.7-2.6.8-1 1.7-1.6 1-.6 2-.6t1.4.4q.3.2.3.5l-.2.6q-.2.2-.5.2l-.4-.2-.4-.1q-.7 0-1.4.4t-1.2 1.1q-.4.6-.6 1.4Zm.2 2.2q.3.8.6 1.1.4.3 1.1.3.7 0 1-.4.4-.3.4-1t-.4-1.1q-.4-.5-1-.5-.4 0-.9.4-.4.4-.8 1.2Zm9.7-.8q0 1.2-.3 2.4-.3 1-1 2l-.6 1q-.2.2-.5.2t-.5-.2q-.2-.2-.2-.5l.2-.5q.7-1.2 1-2.3.4-1 .4-2.1 0-1-.4-2.1-.3-1.1-1-2.3l-.2-.5q0-.3.2-.5t.5-.2q.3 0 .5.2l.7 1 .9 2q.3 1.3.3 2.4Zm18.4 0h-5.9v-1.2h5.9V56Zm15.1-5.4v5.4q.5 0 .7.2.2.2.2.5t-.2.5q-.3.2-.7.2v.6q.5 0 .7.2.2.2.2.5t-.2.5q-.3.2-.8.2H267q-.6 0-.8-.2-.2-.2-.2-.5t.2-.5q.2-.2.8-.2h.5v-.6h-3.8v-1.1l3.4-5.7h1.8Zm-1.4 5.4v-3.4l-2 3.4h2Zm6.2 1v2.4h-1.6q-.5 0-.8-.2-.2-.2-.2-.5t.2-.5q.3-.2.8-.2h.2v-6h-.2q-.5 0-.8-.3-.2-.2-.2-.5t.2-.5q.3-.2.8-.2h1.6v4.8l1-1v-.4l.1-.5q.2-.2.8-.2h1.5q.5 0 .8.2.2.2.2.5t-.2.5q-.3.2-.8.2h-.3l-1.7 1.4 2.3 2h.4q.5 0 .7.2.2.2.2.5t-.2.5q-.2.2-.7.2H276q-.5 0-.7-.2-.2-.2-.2-.5t.2-.5l-1.4-1.3-.3.2Z"/><path stroke="#242424" stroke-width="3" stroke-linejoin="round" stroke-linecap="round" d="M18.4 31.6V31q-1.2.6-2.5 1-1.4.3-2.5.3-2.4 0-4-1.3Q8 29.6 8 28q0-1.9 2-3.5t5.3-1.6q1.4 0 3.2.3v-.7q0-.7-.6-1.1-.6-.4-2.2-.4-1.4 0-3.5.5l-1.2.2q-.6 0-1-.5-.5-.4-.5-1 0-.4.2-.7.1-.3.4-.5l1.1-.4 2.3-.5 2-.2q2.9 0 4.4 1.3 1.6 1.2 1.6 3.3v6.1h.5q1 0 1.5.5.5.4.5 1 0 .7-.5 1.1-.5.4-1.5.4h-3.5Zm0-5.3q-1.8-.4-3.4-.4-1.8 0-3.1 1-.8.5-.8 1t.4.8q.7.4 2 .4 1 0 2.4-.4t2.5-1.1v-1.3ZM33.7 28l3.2-6.6q-1.2 0-1.5-.3-.8-.4-.8-1.3 0-.6.5-1t1.5-.4h4.2q1 0 1.5.4t.5 1q0 .7-.5 1.1-.4.5-1.5.5h-.5l-5 10.3H32l-5-10.3h-.5q-1 0-1.5-.5-.5-.4-.5-1 0-.7.5-1.1.5-.4 1.5-.4h4q1.2 0 1.6.4.5.4.5 1 0 .9-.7 1.3-.4.3-1.6.3l3.3 6.6Zm19-15.3v3.1h-3.6v-3.2h3.6Zm.4 5.7v10.3h3.6q1.1 0 1.6.4.4.4.4 1 0 .7-.4 1.1-.5.4-1.6.4H46.5q-1 0-1.5-.4t-.5-1q0-.7.5-1.1.4-.5 1.5-.5h3.6v-7.2h-2.4q-1 0-1.5-.5-.5-.4-.5-1 0-.7.5-1.1.4-.4 1.5-.4h5.4Zm19.3 13.3v-.8q-1.2.6-2.5 1-1.4.3-2.5.3-2.4 0-4-1.3Q62 29.6 62 28q0-1.9 2-3.5t5.3-1.6q1.4 0 3.2.3v-.7q0-.7-.6-1.1-.6-.4-2.2-.4-1.4 0-3.5.5l-1.2.2q-.6 0-1-.5-.5-.4-.5-1 0-.4.2-.7.1-.3.4-.5l1.1-.4 2.3-.5 2-.2q2.9 0 4.4 1.3 1.6 1.2 1.6 3.3v6.1h.5q1 0 1.5.5.5.4.5 1 0 .7-.5 1.1-.5.4-1.5.4h-3.5Zm0-5.4q-1.8-.4-3.4-.4-1.8 0-3.1 1-.8.5-.8 1t.4.8q.7.4 2 .4 1 0 2.4-.4t2.5-1.1v-1.3Zm14.5-5v6q0 1 .4 1.3.6.5 2.2.5 2.3 0 4.3-1 .7-.3 1.1-.3.6 0 1 .4.5.4.5 1 0 .7-.5 1-.7.8-2.8 1.4-2.1.5-3.6.5-2.8 0-4.2-1.2-1.4-1.2-1.4-3v-6.5h-1q-1.2 0-1.6-.5-.5-.4-.5-1 0-.7.5-1.1.4-.4 1.5-.4H84v-2.8q0-1 .4-1.5t1.1-.5q.7 0 1 .5.5.5.5 1.5v2.8h5.6q1 0 1.5.4t.5 1q0 .7-.5 1.1-.5.5-1.5.5H87Zm26.5 4q0 1.7-1 3.3-.9 1.6-2.8 2.6t-4 1q-2 0-3.9-1-1.8-1-2.8-2.6-1-1.6-1-3.4 0-1.8 1-3.5 1-1.8 2.9-2.8 1.8-1 3.9-1 2 0 4 1 1.8 1 2.8 2.8 1 1.7 1 3.5Zm-3 0q0-1.5-1-2.7-1.4-1.6-3.7-1.6-2 0-3.4 1.3t-1.4 3q0 1.4 1.4 2.6 1.4 1.2 3.4 1.2T109 28q1.3-1.2 1.3-2.6Zm12.6-7v2q2-1.4 3-1.9 1.1-.5 2-.5 1.5 0 2.9 1.1 1 .8 1 1.5t-.5 1.1q-.5.5-1 .5-.6 0-1.3-.6-.6-.5-1-.5-.7 0-2 .8-1.2.7-3 2.3v4.5h4.2q1 0 1.5.5.5.4.5 1 0 .7-.5 1.1-.4.4-1.5.4h-9q-1.1 0-1.6-.4t-.5-1q0-.7.5-1.1.5-.5 1.5-.5h1.8v-7.2h-1q-1.1 0-1.6-.5-.5-.4-.5-1 0-.7.5-1.1.5-.4 1.5-.4h4.1Zm36.7 9.7 3.2-6.6q-1.2 0-1.5-.3-.8-.4-.8-1.3 0-.6.5-1t1.6-.4h4q1.2 0 1.6.4.5.4.5 1 0 .7-.5 1.1-.4.5-1.5.5h-.5l-5 10.3H158l-5-10.3h-.4q-1.1 0-1.6-.5-.4-.4-.4-1 0-.7.4-1.1.5-.4 1.6-.4h4q1 0 1.5.4t.5 1q0 .9-.7 1.3-.4.3-1.6.3l3.3 6.6Zm32.9-15.3V19q.9-.6 1.8-.9 1-.3 2-.3 1.5 0 2.8.6 1.2.5 2 1.6.8 1.2.8 3v5.5q1.1 0 1.5.3.7.4.7 1.3 0 .6-.5 1-.4.4-1.5.4h-3.5q-1 0-1.5-.4-.4-.4-.4-1 0-.9.7-1.3.3-.3 1.5-.3v-5.4q0-1.1-.6-1.6-.7-.6-2-.6-1 0-1.8.4-.7.3-2 1.6v5.6q1.1 0 1.4.3.8.4.8 1.3 0 .6-.5 1t-1.5.4h-3.4q-1.1 0-1.6-.4t-.5-1q0-.9.8-1.3.3-.3 1.5-.3v-13h-.6q-1 0-1.5-.4t-.5-1q0-.7.5-1.1.4-.4 1.5-.4h3.6Zm23.8 19v-.8q-1.2.6-2.5 1-1.4.3-2.5.3-2.4 0-4-1.3-1.5-1.3-1.5-2.9 0-1.9 2-3.5t5.3-1.6q1.4 0 3.2.3v-.7q0-.7-.6-1.1-.6-.4-2.2-.4-1.4 0-3.5.5l-1.2.2q-.6 0-1-.5-.5-.4-.5-1 0-.4.2-.7.1-.3.4-.5l1.1-.4 2.3-.5 2-.2q2.9 0 4.4 1.3 1.6 1.2 1.6 3.3v6.1h.5q1 0 1.5.5.5.4.5 1 0 .7-.5 1.1-.5.4-1.5.4h-3.5Zm0-5.4q-1.8-.4-3.4-.4-1.8 0-3.1 1-.8.5-.8 1t.4.8q.7.4 2 .4 1 0 2.4-.4t2.5-1.1v-1.3Zm12.2-8v1q.8-.7 1.8-1 1-.4 2.2-.4 2.6 0 4.2 1.7 1.2 1.3 1.2 3.5v5.5q1 0 1.4.5.5.4.5 1 0 .7-.5 1.1-.5.4-1.5.4h-2.7q-1.1 0-1.6-.4-.4-.4-.4-1 0-.7.4-1.1.5-.5 1.4-.5V23q0-1-.5-1.5-.7-.5-2-.5-1.1 0-2 .4-.7.4-1.9 1.7v5.5q1.2 0 1.5.3.7.4.7 1.3 0 .6-.4 1-.5.4-1.6.4h-3.4q-1 0-1.5-.4t-.5-1q0-.9.7-1.3.3-.3 1.5-.3v-7.2q-1 0-1.4-.5-.5-.4-.5-1 0-.7.5-1.1.5-.4 1.6-.4h2.8Zm28-5.7v16h.5q1 0 1.5.5.5.4.5 1 0 .7-.5 1.1-.5.4-1.5.4h-3.6V31q-1 .6-2.1 1-1.1.2-2.3.2-3.4 0-5.5-2-2-1.9-2-4.8 0-3 2.1-5.2 2.2-2.2 5.3-2.2 1.2 0 2.3.4l2.2 1v-3.7h-.5q-1 0-1.5-.4t-.5-1q0-.7.5-1.1.4-.4 1.5-.4h3.5Zm-3 12.8q0-1.9-1.4-3.1Q251 21 249 21q-1.8 0-3.1 1.3-1.3 1.2-1.3 3 0 1.7 1.1 2.8 1.2 1 3.3 1 2.2 0 3.4-1 1.1-1 1.1-2.7Zm10.3-12.7v6.7q1-.7 2.2-1 1.1-.5 2.3-.5 3.1 0 5.3 2.2 2.2 2.2 2.2 5.2t-2.1 4.9q-2 2-5.5 2-1.2 0-2.3-.4-1.1-.3-2.1-.9v.8h-3.5q-1.1 0-1.6-.5-.5-.4-.5-1 0-.7.5-1.1.5-.5 1.6-.5h.5v-13h-.5q-1.1 0-1.6-.4t-.5-1q0-.7.5-1.1.5-.4 1.6-.4h3.5Zm9 12.7q0-1.9-1.4-3.1-1.3-1.3-3.1-1.3-2 0-3.2 1.3-1.3 1.2-1.3 3 0 1.7 1.1 2.8 1.2 1 3.4 1 2 0 3.3-1 1.1-1 1.1-2.7Zm12.1-7v1.8l3-1.8q1.1-.5 2-.5 1.5 0 2.9 1.1 1 .8 1 1.5t-.5 1.1q-.5.5-1 .5-.6 0-1.3-.6-.6-.5-1-.5-.7 0-2 .8-1.2.7-3 2.3v4.5h4.2q1 0 1.5.5.5.4.5 1 0 .7-.5 1.1-.4.4-1.5.4h-9q-1.2 0-1.6-.4-.5-.4-.5-1 0-.7.5-1.1.4-.5 1.5-.5h1.8v-7.2h-1q-1.1 0-1.6-.5-.5-.4-.5-1 0-.7.5-1.1.5-.4 1.5-.4h4.1Zm21.4 13.3v-.8q-1.2.6-2.5 1-1.4.3-2.5.3-2.4 0-4-1.3-1.5-1.3-1.5-2.9 0-1.9 2-3.5t5.3-1.6q1.4 0 3.2.3v-.7q0-.7-.6-1.1-.6-.4-2.2-.4-1.4 0-3.5.5l-1.2.2q-.6 0-1-.5-.5-.4-.5-1 0-.4.2-.7.1-.3.4-.5l1.1-.4 2.3-.5 2-.2q2.9 0 4.4 1.3 1.6 1.2 1.6 3.3v6.1h.5q1 0 1.5.5.5.4.5 1 0 .7-.5 1.1-.5.4-1.5.4h-3.5Zm0-5.4q-1.8-.4-3.4-.4-1.8 0-3.1 1-.8.5-.8 1t.4.8q.7.4 2 .4 1 0 2.4-.4t2.5-1.1v-1.3Zm12.8.3v5h-3.5q-1.1 0-1.6-.4-.4-.4-.4-1 0-.7.4-1.1.5-.5 1.6-.5h.5v-13h-.5q-1.1 0-1.6-.4-.4-.4-.4-1 0-.7.4-1.1.5-.4 1.6-.4h3.5v10l2.3-1.8q-.3-.6-.3-1 0-.7.4-1.1.5-.4 1.5-.4h3.5q1 0 1.5.4t.5 1q0 .7-.5 1.1-.4.5-1.5.5h-.9l-3.6 3 5 4.3h.8q1 0 1.5.4t.5 1q0 .7-.5 1.1-.4.4-1.5.4h-3.5q-1 0-1.5-.4t-.5-1q0-.6.5-1.2l-3.2-2.8-.5.4Zm28 0h-12.3q.4 1.1 1.6 1.8 1.2.7 3.3.7 1.6 0 4.4-.7l1.6-.3q.6 0 1 .4.4.5.4 1.1 0 .6-.4 1-.6.5-2.9 1t-4.4.5q-3.6 0-5.7-2-2.2-2-2.2-5 0-3.2 2.3-5.2 2.4-2 5.4-2 1.9 0 3.4.7 1.5.6 2.3 1.4 1 1 1.7 2.7.5 1 .5 2.5v1.3Zm-3.3-3q-.7-1.4-1.8-2-1.2-.6-2.7-.6-1.5 0-2.6.6t-1.8 2h8.9Z"/><path fill="#fff" d="M18.4 31.6V31q-1.2.6-2.5 1-1.4.3-2.5.3-2.4 0-4-1.3Q8 29.6 8 28q0-1.9 2-3.5t5.3-1.6q1.4 0 3.2.3v-.7q0-.7-.6-1.1-.6-.4-2.2-.4-1.4 0-3.5.5l-1.2.2q-.6 0-1-.5-.5-.4-.5-1 0-.4.2-.7.1-.3.4-.5l1.1-.4 2.3-.5 2-.2q2.9 0 4.4 1.3 1.6 1.2 1.6 3.3v6.1h.5q1 0 1.5.5.5.4.5 1 0 .7-.5 1.1-.5.4-1.5.4h-3.5Zm0-5.3q-1.8-.4-3.4-.4-1.8 0-3.1 1-.8.5-.8 1t.4.8q.7.4 2 .4 1 0 2.4-.4t2.5-1.1v-1.3ZM33.7 28l3.2-6.6q-1.2 0-1.5-.3-.8-.4-.8-1.3 0-.6.5-1t1.5-.4h4.2q1 0 1.5.4t.5 1q0 .7-.5 1.1-.4.5-1.5.5h-.5l-5 10.3H32l-5-10.3h-.5q-1 0-1.5-.5-.5-.4-.5-1 0-.7.5-1.1.5-.4 1.5-.4h4q1.2 0 1.6.4.5.4.5 1 0 .9-.7 1.3-.4.3-1.6.3l3.3 6.6Zm19-15.3v3.1h-3.6v-3.2h3.6Zm.4 5.7v10.3h3.6q1.1 0 1.6.4.4.4.4 1 0 .7-.4 1.1-.5.4-1.6.4H46.5q-1 0-1.5-.4t-.5-1q0-.7.5-1.1.4-.5 1.5-.5h3.6v-7.2h-2.4q-1 0-1.5-.5-.5-.4-.5-1 0-.7.5-1.1.4-.4 1.5-.4h5.4Zm19.3 13.3v-.8q-1.2.6-2.5 1-1.4.3-2.5.3-2.4 0-4-1.3Q62 29.6 62 28q0-1.9 2-3.5t5.3-1.6q1.4 0 3.2.3v-.7q0-.7-.6-1.1-.6-.4-2.2-.4-1.4 0-3.5.5l-1.2.2q-.6 0-1-.5-.5-.4-.5-1 0-.4.2-.7.1-.3.4-.5l1.1-.4 2.3-.5 2-.2q2.9 0 4.4 1.3 1.6 1.2 1.6 3.3v6.1h.5q1 0 1.5.5.5.4.5 1 0 .7-.5 1.1-.5.4-1.5.4h-3.5Zm0-5.4q-1.8-.4-3.4-.4-1.8 0-3.1 1-.8.5-.8 1t.4.8q.7.4 2 .4 1 0 2.4-.4t2.5-1.1v-1.3Zm14.5-5v6q0 1 .4 1.3.6.5 2.2.5 2.3 0 4.3-1 .7-.3 1.1-.3.6 0 1 .4.5.4.5 1 0 .7-.5 1-.7.8-2.8 1.4-2.1.5-3.6.5-2.8 0-4.2-1.2-1.4-1.2-1.4-3v-6.5h-1q-1.2 0-1.6-.5-.5-.4-.5-1 0-.7.5-1.1.4-.4 1.5-.4H84v-2.8q0-1 .4-1.5t1.1-.5q.7 0 1 .5.5.5.5 1.5v2.8h5.6q1 0 1.5.4t.5 1q0 .7-.5 1.1-.5.5-1.5.5H87Zm26.5 4q0 1.7-1 3.3-.9 1.6-2.8 2.6t-4 1q-2 0-3.9-1-1.8-1-2.8-2.6-1-1.6-1-3.4 0-1.8 1-3.5 1-1.8 2.9-2.8 1.8-1 3.9-1 2 0 4 1 1.8 1 2.8 2.8 1 1.7 1 3.5Zm-3 0q0-1.5-1-2.7-1.4-1.6-3.7-1.6-2 0-3.4 1.3t-1.4 3q0 1.4 1.4 2.6 1.4 1.2 3.4 1.2T109 28q1.3-1.2 1.3-2.6Zm12.6-7v2q2-1.4 3-1.9 1.1-.5 2-.5 1.5 0 2.9 1.1 1 .8 1 1.5t-.5 1.1q-.5.5-1 .5-.6 0-1.3-.6-.6-.5-1-.5-.7 0-2 .8-1.2.7-3 2.3v4.5h4.2q1 0 1.5.5.5.4.5 1 0 .7-.5 1.1-.4.4-1.5.4h-9q-1.1 0-1.6-.4t-.5-1q0-.7.5-1.1.5-.5 1.5-.5h1.8v-7.2h-1q-1.1 0-1.6-.5-.5-.4-.5-1 0-.7.5-1.1.5-.4 1.5-.4h4.1Zm36.7 9.7 3.2-6.6q-1.2 0-1.5-.3-.8-.4-.8-1.3 0-.6.5-1t1.6-.4h4q1.2 0 1.6.4.5.4.5 1 0 .7-.5 1.1-.4.5-1.5.5h-.5l-5 10.3H158l-5-10.3h-.4q-1.1 0-1.6-.5-.4-.4-.4-1 0-.7.4-1.1.5-.4 1.6-.4h4q1 0 1.5.4t.5 1q0 .9-.7 1.3-.4.3-1.6.3l3.3 6.6Zm32.9-15.3V19q.9-.6 1.8-.9 1-.3 2-.3 1.5 0 2.8.6 1.2.5 2 1.6.8 1.2.8 3v5.5q1.1 0 1.5.3.7.4.7 1.3 0 .6-.5 1-.4.4-1.5.4h-3.5q-1 0-1.5-.4-.4-.4-.4-1 0-.9.7-1.3.3-.3 1.5-.3v-5.4q0-1.1-.6-1.6-.7-.6-2-.6-1 0-1.8.4-.7.3-2 1.6v5.6q1.1 0 1.4.3.8.4.8 1.3 0 .6-.5 1t-1.5.4h-3.4q-1.1 0-1.6-.4t-.5-1q0-.9.8-1.3.3-.3 1.5-.3v-13h-.6q-1 0-1.5-.4t-.5-1q0-.7.5-1.1.4-.4 1.5-.4h3.6Zm23.8 19v-.8q-1.2.6-2.5 1-1.4.3-2.5.3-2.4 0-4-1.3-1.5-1.3-1.5-2.9 0-1.9 2-3.5t5.3-1.6q1.4 0 3.2.3v-.7q0-.7-.6-1.1-.6-.4-2.2-.4-1.4 0-3.5.5l-1.2.2q-.6 0-1-.5-.5-.4-.5-1 0-.4.2-.7.1-.3.4-.5l1.1-.4 2.3-.5 2-.2q2.9 0 4.4 1.3 1.6 1.2 1.6 3.3v6.1h.5q1 0 1.5.5.5.4.5 1 0 .7-.5 1.1-.5.4-1.5.4h-3.5Zm0-5.4q-1.8-.4-3.4-.4-1.8 0-3.1 1-.8.5-.8 1t.4.8q.7.4 2 .4 1 0 2.4-.4t2.5-1.1v-1.3Zm12.2-8v1q.8-.7 1.8-1 1-.4 2.2-.4 2.6 0 4.2 1.7 1.2 1.3 1.2 3.5v5.5q1 0 1.4.5.5.4.5 1 0 .7-.5 1.1-.5.4-1.5.4h-2.7q-1.1 0-1.6-.4-.4-.4-.4-1 0-.7.4-1.1.5-.5 1.4-.5V23q0-1-.5-1.5-.7-.5-2-.5-1.1 0-2 .4-.7.4-1.9 1.7v5.5q1.2 0 1.5.3.7.4.7 1.3 0 .6-.4 1-.5.4-1.6.4h-3.4q-1 0-1.5-.4t-.5-1q0-.9.7-1.3.3-.3 1.5-.3v-7.2q-1 0-1.4-.5-.5-.4-.5-1 0-.7.5-1.1.5-.4 1.6-.4h2.8Zm28-5.7v16h.5q1 0 1.5.5.5.4.5 1 0 .7-.5 1.1-.5.4-1.5.4h-3.6V31q-1 .6-2.1 1-1.1.2-2.3.2-3.4 0-5.5-2-2-1.9-2-4.8 0-3 2.1-5.2 2.2-2.2 5.3-2.2 1.2 0 2.3.4l2.2 1v-3.7h-.5q-1 0-1.5-.4t-.5-1q0-.7.5-1.1.4-.4 1.5-.4h3.5Zm-3 12.8q0-1.9-1.4-3.1Q251 21 249 21q-1.8 0-3.1 1.3-1.3 1.2-1.3 3 0 1.7 1.1 2.8 1.2 1 3.3 1 2.2 0 3.4-1 1.1-1 1.1-2.7Zm10.3-12.7v6.7q1-.7 2.2-1 1.1-.5 2.3-.5 3.1 0 5.3 2.2 2.2 2.2 2.2 5.2t-2.1 4.9q-2 2-5.5 2-1.2 0-2.3-.4-1.1-.3-2.1-.9v.8h-3.5q-1.1 0-1.6-.5-.5-.4-.5-1 0-.7.5-1.1.5-.5 1.6-.5h.5v-13h-.5q-1.1 0-1.6-.4t-.5-1q0-.7.5-1.1.5-.4 1.6-.4h3.5Zm9 12.7q0-1.9-1.4-3.1-1.3-1.3-3.1-1.3-2 0-3.2 1.3-1.3 1.2-1.3 3 0 1.7 1.1 2.8 1.2 1 3.4 1 2 0 3.3-1 1.1-1 1.1-2.7Zm12.1-7v1.8l3-1.8q1.1-.5 2-.5 1.5 0 2.9 1.1 1 .8 1 1.5t-.5 1.1q-.5.5-1 .5-.6 0-1.3-.6-.6-.5-1-.5-.7 0-2 .8-1.2.7-3 2.3v4.5h4.2q1 0 1.5.5.5.4.5 1 0 .7-.5 1.1-.4.4-1.5.4h-9q-1.2 0-1.6-.4-.5-.4-.5-1 0-.7.5-1.1.4-.5 1.5-.5h1.8v-7.2h-1q-1.1 0-1.6-.5-.5-.4-.5-1 0-.7.5-1.1.5-.4 1.5-.4h4.1Zm21.4 13.3v-.8q-1.2.6-2.5 1-1.4.3-2.5.3-2.4 0-4-1.3-1.5-1.3-1.5-2.9 0-1.9 2-3.5t5.3-1.6q1.4 0 3.2.3v-.7q0-.7-.6-1.1-.6-.4-2.2-.4-1.4 0-3.5.5l-1.2.2q-.6 0-1-.5-.5-.4-.5-1 0-.4.2-.7.1-.3.4-.5l1.1-.4 2.3-.5 2-.2q2.9 0 4.4 1.3 1.6 1.2 1.6 3.3v6.1h.5q1 0 1.5.5.5.4.5 1 0 .7-.5 1.1-.5.4-1.5.4h-3.5Zm0-5.4q-1.8-.4-3.4-.4-1.8 0-3.1 1-.8.5-.8 1t.4.8q.7.4 2 .4 1 0 2.4-.4t2.5-1.1v-1.3Zm12.8.3v5h-3.5q-1.1 0-1.6-.4-.4-.4-.4-1 0-.7.4-1.1.5-.5 1.6-.5h.5v-13h-.5q-1.1 0-1.6-.4-.4-.4-.4-1 0-.7.4-1.1.5-.4 1.6-.4h3.5v10l2.3-1.8q-.3-.6-.3-1 0-.7.4-1.1.5-.4 1.5-.4h3.5q1 0 1.5.4t.5 1q0 .7-.5 1.1-.4.5-1.5.5h-.9l-3.6 3 5 4.3h.8q1 0 1.5.4t.5 1q0 .7-.5 1.1-.4.4-1.5.4h-3.5q-1 0-1.5-.4t-.5-1q0-.6.5-1.2l-3.2-2.8-.5.4Zm28 0h-12.3q.4 1.1 1.6 1.8 1.2.7 3.3.7 1.6 0 4.4-.7l1.6-.3q.6 0 1 .4.4.5.4 1.1 0 .6-.4 1-.6.5-2.9 1t-4.4.5q-3.6 0-5.7-2-2.2-2-2.2-5 0-3.2 2.3-5.2 2.4-2 5.4-2 1.9 0 3.4.7 1.5.6 2.3 1.4 1 1 1.7 2.7.5 1 .5 2.5v1.3Zm-3.3-3q-.7-1.4-1.8-2-1.2-.6-2.7-.6-1.5 0-2.6.6t-1.8 2h8.9Z"/></svg>