<svg fill="none" stroke-linecap="square" stroke-miterlimit="10" width="669" height="665" xmlns="http://www.w3.org/2000/svg"><path fill="#242424" d="M0 0h669v665H0V0Z"/><path stroke="#3a3a3a" stroke-linecap="butt" d="M19.5.5v665m71-665v665m62-665v665m54-665v665m49-665v665m320-665v665m-575-45h669m-669-44h669m-669-89h669m-669-44h669m-669-89h669m-669-44h669m-669-89h669m-669-44h669m-669-89h669m-669-44h669"/><path stroke="#000" stroke-linecap="butt" d="M.5 665.5V.5"/><clipPath id="a"><path d="M0 0h669v665H0V0Z"/></clipPath><path stroke="#ed333b" stroke-width="2" stroke-linecap="butt" clip-path="url(#a)" d="M11.1 599.2s80-116.4 120-166.7a1669 1669 0 0 1 126.2-142.2c42-41.8 85.1-78.7 127-109a934.2 934.2 0 0 1 125.4-74.4c41.9-21.5 131.5-57.3 131.5-57.3"/><path stroke="#e5a50a" stroke-width="2" stroke-linecap="butt" clip-path="url(#a)" d="M28.8 580s76.6-113 114.9-160.3A1467 1467 0 0 1 270 284.3c42-40 86.2-76.3 129.4-106.8 43.1-30.4 89.3-55.7 132.2-77.6C574.5 77.9 660.3 44 660.3 44"/><path clip-path="url(#a)" d="M14.1 599.2a3 3 0 1 1-6 0 3 3 0 0 1 6 0Zm120.1-166.7a3 3 0 1 1-6 0 3 3 0 0 1 6 0Zm126.1-142.2a3 3 0 1 1-6 0 3 3 0 0 1 6 0Zm127-109a3 3 0 1 1-6 0 3 3 0 0 1 6 0ZM512.7 107a3 3 0 1 1-6 0 3 3 0 0 1 6 0Zm131.5-57.4a3 3 0 1 1-6 0 3 3 0 0 1 6 0ZM31.8 580a3 3 0 1 1-6 0 3 3 0 0 1 6 0Zm114.9-160.4a3 3 0 1 1-6 0 3 3 0 0 1 6 0ZM273 284.3a3 3 0 1 1-6 0 3 3 0 0 1 6 0Zm129.4-106.8a3 3 0 1 1-6 0 3 3 0 0 1 6 0Zm132.2-77.6a3 3 0 1 1-6 0 3 3 0 0 1 6 0ZM663.3 44a3 3 0 1 1-6 0 3 3 0 0 1 6 0Z"/><path stroke="#242424" stroke-width="3" stroke-linejoin="round" stroke-linecap="round" d="M440.4 10v4q1-1.4 2.5-1.4 1.2 0 2.1 1 1 .9 1 2.2 0 1.3-1 2.2-.9 1-2.1 1-1.5 0-2.5-1.4v1.1h-1.7V18h1.1v-7.5h-1.1V10h1.7Zm5 5.7q0-1-.8-1.8-.7-.8-1.7-.8t-1.8.8q-.7.7-.7 1.8 0 1 .7 1.9.8.7 1.8.7t1.7-.7q.8-.8.8-1.9Zm5.4-6v1.6h-.8V9.8h.8Zm0 3v5.4h2.7l.1.3v.2h-6V18h2.7v-4.8h-2v-.5h2.6Zm6.6 0h3l.4.1v.4l-.3.1h-3.1v3.8q0 .5.4.9.4.3 1.1.3l1.3-.2 1-.4h.5v.4q-.3.3-1.1.5-.8.3-1.6.3-1 0-1.6-.5-.6-.5-.6-1.3v-3.8h-1.4v-.5h1.3V11q0-.2.2-.3h.4v2Zm8.5 0v1.5q1-1 1.6-1.3.6-.3 1-.3.6 0 1 .3l.5.5-.1.3h-.3l-.2-.1q-.3-.3-.5-.3l-.3-.1q-.4 0-1 .3l-1.7 1.4v3.2h2.8l.1.3v.2h-5.2v-.4l.3-.1h1.4v-4.8h-1.4v-.5h2Zm10.3 6v-.9q-1.3 1-2.7 1-1 0-1.6-.4-.6-.6-.6-1.3 0-.9.8-1.5t2.2-.6h.9l1 .2v-1q0-.4-.4-.7-.5-.4-1.3-.4-.7 0-2 .4h-.4V13l.8-.3q1-.3 1.6-.3 1 0 1.7.6.6.5.6 1.2V18h1.1v.5h-1.7Zm0-3h-.8l-1-.1q-1.3 0-2 .5-.5.4-.5 1 0 .5.4.8.4.4 1.2.4.7 0 1.4-.3.6-.3 1.3-1v-1.2Zm5.2-3h3l.4.1v.4l-.3.1h-3.1v3.8q0 .5.4.9.4.3 1.1.3l1.3-.2 1-.4h.5v.4q-.3.3-1.1.5-.8.3-1.6.3-1 0-1.6-.5-.6-.5-.6-1.3v-3.8h-1.4v-.5h1.3V11q0-.2.2-.3h.4v2Zm12.3 3.1h-5.9q.2 1.1 1 1.8.7.7 1.9.7l1.3-.2q.7-.2 1.2-.6h.4v.4q-.4.4-1.2.7-.8.3-1.7.3-1.5 0-2.5-1t-1-2.3q0-1.3 1-2.2.9-.9 2.2-.9 1.5 0 2.4 1 .9.9.9 2.3Zm-.6-.6q-.2-1-1-1.5-.7-.6-1.7-.6t-1.7.6q-.7.6-.9 1.5h5.3Zm13.4 0 .2-1.6q.2-.9.8-2l.8-1.4.2-.1h.2l.1.3q0 0 0 0-.8 1.5-1.1 2.6-.3 1.1-.3 2.2 0 1.2.3 2.3.3 1.1 1 2.5l.1.1v.2l-.3.1h-.2l-.8-1.4q-.6-1.1-.8-2l-.2-1.8Zm6.9.9v2.5h-1.7V18h1.1v-7.5h-1.1V10h1.7v5.3l2.4-2h-.3q-.2 0-.3-.2v-.4h2.5v.4l-.3.1h-.7l-2.2 1.9 2.8 2.9h1v.5h-2.5V18h.7l-2.5-2.6-.6.6Zm7-6v3.8q1-1.4 2.5-1.4 1.2 0 2.1 1 1 .9 1 2.2 0 1.3-1 2.2-.9 1-2.1 1-1.5 0-2.5-1.4v1.1h-1.7V18h1.1v-7.5h-1.1V10h1.7Zm5 5.6q0-1-.8-1.8-.7-.8-1.7-.8t-1.8.8q-.7.7-.7 1.8 0 1 .7 1.9.8.7 1.8.7t1.7-.7q.8-.8.8-1.9Zm7.7-6-4.6 9.9q-.1.2-.3.2h-.2v-.5l4.6-9.9.1-.2h.4v.5Zm7.3 3.4.1-.3h.4l.1.3v1.3h-.5v-.2q0-.4-.5-.7-.5-.4-1.5-.4t-1.5.4q-.4.3-.4.7 0 .4.5.6.3.2 1.3.3l1.6.3q.7.3 1 .7.3.4.3 1t-.7 1.2q-.7.6-2 .6-1.4 0-2.3-.7v.4h-.5v-1.8l.3-.1h.2v.3q0 .3.2.5.2.4.8.6.5.2 1.3.2 1 0 1.6-.4.6-.4.6-.9t-.6-.9q-.6-.3-1.6-.4l-1.6-.3q-.4-.1-.7-.5l-.2-.8q0-.7.7-1.1.7-.5 1.7-.5 1.2 0 2 .6Zm6.3 2.2-.2 1.6q-.2.9-.8 2l-.8 1.5h-.4V20q.7-1.4 1-2.5.4-1.1.4-2.2 0-1.2-.4-2.3-.3-1.1-1-2.5V10h.4l.8 1.4q.6 1.1.8 2l.2 1.8Zm18.4-5.7-4.6 10q-.1.2-.3.2h-.2v-.5l4.6-9.9.1-.2h.4v.5Zm15.3 3.5.1-.3h.4l.1.3v1.3h-.5v-.2q0-.4-.5-.7-.5-.4-1.5-.4t-1.5.4q-.4.3-.4.7 0 .4.5.6.3.2 1.3.3l1.6.3q.7.3 1 .7.3.4.3 1t-.7 1.2q-.7.6-2 .6-1.4 0-2.3-.7v.4h-.5v-1.8l.3-.1h.2v.3q0 .3.2.5.2.4.8.6.5.2 1.3.2 1 0 1.6-.4.6-.4.6-.9t-.6-.9q-.6-.3-1.6-.4l-1.6-.3q-.4-.1-.7-.5l-.2-.8q0-.7.7-1.1.7-.5 1.7-.5 1.2 0 2 .6Zm8 0 .1-.3h.4l.1.3v1.3h-.5v-.2q0-.4-.5-.7-.5-.4-1.5-.4t-1.5.4q-.4.3-.4.7 0 .4.5.6.3.2 1.3.3l1.6.3q.7.3 1 .7.3.4.3 1t-.7 1.2q-.7.6-2 .6-1.4 0-2.3-.7v.4h-.5v-1.8l.3-.1h.2v.3q0 .3.2.5.2.4.8.6.5.2 1.3.2 1 0 1.6-.4.6-.4.6-.9t-.6-.9q-.6-.3-1.6-.4l-1.6-.3q-.4-.1-.7-.5l-.2-.8q0-.7.7-1.1.7-.5 1.7-.5 1.2 0 2 .6Zm6.4-3.3v1.5h-.8V9.8h.8Zm0 3V18h2.7l.1.3v.2h-6V18h2.7v-4.8h-2v-.5h2.6Zm5.1 0v.5q.8-.8 1.5-.8.5 0 .8.3.3.2.5.7.4-.5.8-.7.4-.3.8-.3.6 0 1 .4.5.5.5 1.2v4h.8v.5h-1.3v-4.5q0-.4-.4-.7-.2-.3-.6-.3l-.6.2q-.4.3-.8 1V18h.7l.1.3v.2h-1.4v-4.4q0-.5-.3-.8-.2-.3-.6-.3l-.6.2-.9 1V18h.8l.1.3v.2h-2.3l-.1-.2V18h.9v-4.8h-.8l-.1-.3v-.2h1.4Zm12.6 5.8v-.8q-1.2 1-2.5 1-.9 0-1.3-.4-.6-.6-.6-1.4v-3.7h-1l-.1-.3v-.2h1.8V17q0 .6.4 1 .3.3.8.3 1.5 0 2.6-1.3v-3.7h-1.3l-.1-.3v-.2h2V18h.8v.5h-1.3Zm6.3-8.5v8h2.6v.5h-5.7V18h2.6v-7.5h-2V10h2.5Zm9.4 8.5v-.8q-1.3 1-2.7 1-1 0-1.6-.4-.6-.6-.6-1.3 0-.9.8-1.5t2.2-.6h.9l1 .2v-1q0-.4-.4-.7-.5-.4-1.3-.4-.7 0-2 .4h-.4V13l.8-.3q1-.3 1.6-.3 1 0 1.7.6.6.5.6 1.2V18h1.1v.5h-1.7Zm0-2.8-.9-.2h-.9q-1.3 0-2 .5-.5.4-.5 1 0 .5.4.8.4.4 1.2.4.7 0 1.4-.3.6-.3 1.3-1v-1.2Zm8.7-2.5v-.2l.1-.3h.4l.1.3v1.6l-.3.1h-.2v-.3q0-.5-.7-1-.6-.4-1.6-.4-1.3 0-2 .8-.6.8-.6 1.8 0 1.2.7 1.9.8.7 2 .7l1.3-.2q.7-.3 1.2-.8l.3-.2.2.1v.2q0 .3-.6.8-1.1.7-2.5.7t-2.3-1q-.9-.8-.9-2.2 0-1.3 1-2.3.9-.9 2.2-.9 1.4 0 2.2.8Zm5-.6v1.5q1-1 1.6-1.3.6-.3 1-.3.6 0 1 .3l.5.5-.1.3h-.3l-.2-.1q-.3-.3-.5-.3l-.3-.1q-.4 0-1 .3l-1.7 1.4v3.2h2.8l.1.3v.2h-5.2v-.4l.3-.1h1.4v-4.8h-1.4v-.5h2Zm10.3 6v-.9q-1.3 1-2.7 1-1 0-1.6-.4-.6-.6-.6-1.3 0-.9.8-1.5t2.2-.6h.9l1 .2v-1q0-.4-.4-.7-.5-.4-1.3-.4-.7 0-2 .4h-.4V13l.8-.3q1-.3 1.6-.3 1 0 1.7.6.6.5.6 1.2V18h1.1v.5h-1.7Zm0-3h-.9l-.9-.1q-1.3 0-2 .5-.5.4-.5 1 0 .5.4.8.4.4 1.2.4.7 0 1.4-.3.6-.3 1.3-1v-1.2Zm3.9 2.4h4.4v-.5l.3-.1h.2v1.3h-5.5v-.9l3.4-3.2 1-1.1.5-.6v-.6q0-.7-.5-1.3-.6-.6-1.4-.6-.8 0-1.4.5-.6.4-.7 1l-.1.3h-.4l-.1-.2q0-.4.4-1 .3-.5 1-.8.6-.3 1.2-.3 1.1 0 1.9.7.8.8.8 1.7 0 .4-.2.7l-.4.8-1.1 1.1-3.4 3h0Z"/><path fill="#bdbdbd" d="M440.4 10v4q1-1.4 2.5-1.4 1.2 0 2.1 1 1 .9 1 2.2 0 1.3-1 2.2-.9 1-2.1 1-1.5 0-2.5-1.4v1.1h-1.7V18h1.1v-7.5h-1.1V10h1.7Zm5 5.7q0-1-.8-1.8-.7-.8-1.7-.8t-1.8.8q-.7.7-.7 1.8 0 1 .7 1.9.8.7 1.8.7t1.7-.7q.8-.8.8-1.9Zm5.4-6v1.6h-.8V9.8h.8Zm0 3v5.4h2.7l.1.3v.2h-6V18h2.7v-4.8h-2v-.5h2.6Zm6.6 0h3l.4.1v.4l-.3.1h-3.1v3.8q0 .5.4.9.4.3 1.1.3l1.3-.2 1-.4h.5v.4q-.3.3-1.1.5-.8.3-1.6.3-1 0-1.6-.5-.6-.5-.6-1.3v-3.8h-1.4v-.5h1.3V11q0-.2.2-.3h.4v2Zm8.5 0v1.5q1-1 1.6-1.3.6-.3 1-.3.6 0 1 .3l.5.5-.1.3h-.3l-.2-.1q-.3-.3-.5-.3l-.3-.1q-.4 0-1 .3l-1.7 1.4v3.2h2.8l.1.3v.2h-5.2v-.4l.3-.1h1.4v-4.8h-1.4v-.5h2Zm10.3 6v-.9q-1.3 1-2.7 1-1 0-1.6-.4-.6-.6-.6-1.3 0-.9.8-1.5t2.2-.6h.9l1 .2v-1q0-.4-.4-.7-.5-.4-1.3-.4-.7 0-2 .4h-.4V13l.8-.3q1-.3 1.6-.3 1 0 1.7.6.6.5.6 1.2V18h1.1v.5h-1.7Zm0-3h-.8l-1-.1q-1.3 0-2 .5-.5.4-.5 1 0 .5.4.8.4.4 1.2.4.7 0 1.4-.3.6-.3 1.3-1v-1.2Zm5.2-3h3l.4.1v.4l-.3.1h-3.1v3.8q0 .5.4.9.4.3 1.1.3l1.3-.2 1-.4h.5v.4q-.3.3-1.1.5-.8.3-1.6.3-1 0-1.6-.5-.6-.5-.6-1.3v-3.8h-1.4v-.5h1.3V11q0-.2.2-.3h.4v2Zm12.3 3.1h-5.9q.2 1.1 1 1.8.7.7 1.9.7l1.3-.2q.7-.2 1.2-.6h.4v.4q-.4.4-1.2.7-.8.3-1.7.3-1.5 0-2.5-1t-1-2.3q0-1.3 1-2.2.9-.9 2.2-.9 1.5 0 2.4 1 .9.9.9 2.3Zm-.6-.6q-.2-1-1-1.5-.7-.6-1.7-.6t-1.7.6q-.7.6-.9 1.5h5.3Zm13.4 0 .2-1.6q.2-.9.8-2l.8-1.4.2-.1h.2l.1.3q-.8 1.5-1.1 2.6-.3 1.1-.3 2.2 0 1.2.3 2.3.3 1.1 1 2.5l.1.1v.2l-.3.1h-.2l-.8-1.4q-.6-1.1-.8-2l-.2-1.8Zm6.9.9v2.5h-1.7V18h1.1v-7.5h-1.1V10h1.7v5.3l2.4-2h-.3q-.2 0-.3-.2v-.4h2.5v.4l-.3.1h-.7l-2.2 1.9 2.8 2.9h1v.5h-2.5V18h.7l-2.5-2.6-.6.6Zm7-6v3.8q1-1.4 2.5-1.4 1.2 0 2.1 1 1 .9 1 2.2 0 1.3-1 2.2-.9 1-2.1 1-1.5 0-2.5-1.4v1.1h-1.7V18h1.1v-7.5h-1.1V10h1.7Zm5 5.6q0-1-.8-1.8-.7-.8-1.7-.8t-1.8.8q-.7.7-.7 1.8 0 1 .7 1.9.8.7 1.8.7t1.7-.7q.8-.8.8-1.9Zm7.7-6-4.6 9.9q-.1.2-.3.2h-.2v-.5l4.6-9.9.1-.2h.4v.5Zm7.3 3.4.1-.3h.4l.1.3v1.3h-.5v-.2q0-.4-.5-.7-.5-.4-1.5-.4t-1.5.4q-.4.3-.4.7 0 .4.5.6.3.2 1.3.3l1.6.3q.7.3 1 .7.3.4.3 1t-.7 1.2q-.7.6-2 .6-1.4 0-2.3-.7v.4h-.5v-1.8l.3-.1h.2v.3q0 .3.2.5.2.4.8.6.5.2 1.3.2 1 0 1.6-.4.6-.4.6-.9t-.6-.9q-.6-.3-1.6-.4l-1.6-.3q-.4-.1-.7-.5l-.2-.8q0-.7.7-1.1.7-.5 1.7-.5 1.2 0 2 .6Zm6.3 2.2-.2 1.6q-.2.9-.8 2l-.8 1.5h-.4V20q.7-1.4 1-2.5.4-1.1.4-2.2 0-1.2-.4-2.3-.3-1.1-1-2.5V10h.4l.8 1.4q.6 1.1.8 2l.2 1.8Zm18.4-5.7-4.6 10q-.1.2-.3.2h-.2v-.5l4.6-9.9.1-.2h.4v.5Zm15.3 3.5.1-.3h.4l.1.3v1.3h-.5v-.2q0-.4-.5-.7-.5-.4-1.5-.4t-1.5.4q-.4.3-.4.7 0 .4.5.6.3.2 1.3.3l1.6.3q.7.3 1 .7.3.4.3 1t-.7 1.2q-.7.6-2 .6-1.4 0-2.3-.7v.4h-.5v-1.8l.3-.1h.2v.3q0 .3.2.5.2.4.8.6.5.2 1.3.2 1 0 1.6-.4.6-.4.6-.9t-.6-.9q-.6-.3-1.6-.4l-1.6-.3q-.4-.1-.7-.5l-.2-.8q0-.7.7-1.1.7-.5 1.7-.5 1.2 0 2 .6Zm8 0 .1-.3h.4l.1.3v1.3h-.5v-.2q0-.4-.5-.7-.5-.4-1.5-.4t-1.5.4q-.4.3-.4.7 0 .4.5.6.3.2 1.3.3l1.6.3q.7.3 1 .7.3.4.3 1t-.7 1.2q-.7.6-2 .6-1.4 0-2.3-.7v.4h-.5v-1.8l.3-.1h.2v.3q0 .3.2.5.2.4.8.6.5.2 1.3.2 1 0 1.6-.4.6-.4.6-.9t-.6-.9q-.6-.3-1.6-.4l-1.6-.3q-.4-.1-.7-.5l-.2-.8q0-.7.7-1.1.7-.5 1.7-.5 1.2 0 2 .6Zm6.4-3.3v1.5h-.8V9.8h.8Zm0 3V18h2.7l.1.3v.2h-6V18h2.7v-4.8h-2v-.5h2.6Zm5.1 0v.5q.8-.8 1.5-.8.5 0 .8.3.3.2.5.7.4-.5.8-.7.4-.3.8-.3.6 0 1 .4.5.5.5 1.2v4h.8v.5h-1.3v-4.5q0-.4-.4-.7-.2-.3-.6-.3l-.6.2q-.4.3-.8 1V18h.7l.1.3v.2h-1.4v-4.4q0-.5-.3-.8-.2-.3-.6-.3l-.6.2-.9 1V18h.8l.1.3v.2h-2.3l-.1-.2V18h.9v-4.8h-.8l-.1-.3v-.2h1.4Zm12.6 5.8v-.8q-1.2 1-2.5 1-.9 0-1.3-.4-.6-.6-.6-1.4v-3.7h-1l-.1-.3v-.2h1.8V17q0 .6.4 1 .3.3.8.3 1.5 0 2.6-1.3v-3.7h-1.3l-.1-.3v-.2h2V18h.8v.5h-1.3Zm6.3-8.5v8h2.6v.5h-5.7V18h2.6v-7.5h-2V10h2.5Zm9.4 8.5v-.8q-1.3 1-2.7 1-1 0-1.6-.4-.6-.6-.6-1.3 0-.9.8-1.5t2.2-.6h.9l1 .2v-1q0-.4-.4-.7-.5-.4-1.3-.4-.7 0-2 .4h-.4V13l.8-.3q1-.3 1.6-.3 1 0 1.7.6.6.5.6 1.2V18h1.1v.5h-1.7Zm0-2.8-.9-.2h-.9q-1.3 0-2 .5-.5.4-.5 1 0 .5.4.8.4.4 1.2.4.7 0 1.4-.3.6-.3 1.3-1v-1.2Zm8.7-2.5v-.2l.1-.3h.4l.1.3v1.6l-.3.1h-.2v-.3q0-.5-.7-1-.6-.4-1.6-.4-1.3 0-2 .8-.6.8-.6 1.8 0 1.2.7 1.9.8.7 2 .7l1.3-.2q.7-.3 1.2-.8l.3-.2.2.1v.2q0 .3-.6.8-1.1.7-2.5.7t-2.3-1q-.9-.8-.9-2.2 0-1.3 1-2.3.9-.9 2.2-.9 1.4 0 2.2.8Zm5-.6v1.5q1-1 1.6-1.3.6-.3 1-.3.6 0 1 .3l.5.5-.1.3h-.3l-.2-.1q-.3-.3-.5-.3l-.3-.1q-.4 0-1 .3l-1.7 1.4v3.2h2.8l.1.3v.2h-5.2v-.4l.3-.1h1.4v-4.8h-1.4v-.5h2Zm10.3 6v-.9q-1.3 1-2.7 1-1 0-1.6-.4-.6-.6-.6-1.3 0-.9.8-1.5t2.2-.6h.9l1 .2v-1q0-.4-.4-.7-.5-.4-1.3-.4-.7 0-2 .4h-.4V13l.8-.3q1-.3 1.6-.3 1 0 1.7.6.6.5.6 1.2V18h1.1v.5h-1.7Zm0-3h-.9l-.9-.1q-1.3 0-2 .5-.5.4-.5 1 0 .5.4.8.4.4 1.2.4.7 0 1.4-.3.6-.3 1.3-1v-1.2Zm3.9 2.4h4.4v-.5l.3-.1h.2v1.3h-5.5v-.9l3.4-3.2 1-1.1.5-.6v-.6q0-.7-.5-1.3-.6-.6-1.4-.6-.8 0-1.4.5-.6.4-.7 1l-.1.3h-.4l-.1-.2q0-.4.4-1 .3-.5 1-.8.6-.3 1.2-.3 1.1 0 1.9.7.8.8.8 1.7 0 .4-.2.7l-.4.8-1.1 1.1-3.4 3Z"/><path stroke="#242424" stroke-width="3" stroke-linejoin="round" stroke-linecap="round" d="M9.5 542.4q.5-.8 1-1.2.7-.4 1.3-.4 1 0 1.7.8t.7 1.9q0 1-.7 1.9-.6.8-1.8.8-.7 0-1.4-.5-.6-.4-1-1.4-.4-1.1-.4-2.6 0-1 .4-2 .3-.7.9-1.2.5-.6 1.3-1 .7-.3 1.5-.3.6 0 1 .3.2 0 .2.2l-.1.2-.2.1h-.2q-.3-.2-.7-.2-1.4 0-2.5 1.2-1 1-1 2.7v.7Zm.1 1q.3 1.2.8 1.7.6.5 1.3.5.8 0 1.4-.6.5-.6.5-1.5 0-1-.5-1.5-.6-.6-1.3-.6-.6 0-1.3.6-.4.3-.9 1.3Zm8-5.4v2.8l1-.3.9-.1q1 0 1.8.8.7.7.7 2t-.8 2.2q-.8.8-2 .8-.9 0-1.6-.4-.6-.2-1-.6-.3-.2-.3-.4l.1-.2h.5q1 1 2.2 1 1 0 1.7-.7.6-.6.6-1.8 0-1-.5-1.5-.6-.6-1.5-.6t-1.8.4l-.3.1h-.2v-4.1h4l.2.1.1.2v.2l-.4.1h-3.4Z"/><path fill="#bdbdbd" d="M9.5 542.4q.5-.8 1-1.2.7-.4 1.3-.4 1 0 1.7.8t.7 1.9q0 1-.7 1.9-.6.8-1.8.8-.7 0-1.4-.5-.6-.4-1-1.4-.4-1.1-.4-2.6 0-1 .4-2 .3-.7.9-1.2.5-.6 1.3-1 .7-.3 1.5-.3.6 0 1 .3.2 0 .2.2l-.1.2-.2.1h-.2q-.3-.2-.7-.2-1.4 0-2.5 1.2-1 1-1 2.7v.7Zm.1 1q.3 1.2.8 1.7.6.5 1.3.5.8 0 1.4-.6.5-.6.5-1.5 0-1-.5-1.5-.6-.6-1.3-.6-.6 0-1.3.6-.4.3-.9 1.3Zm8-5.4v2.8l1-.3.9-.1q1 0 1.8.8.7.7.7 2t-.8 2.2q-.8.8-2 .8-.9 0-1.6-.4-.6-.2-1-.6-.3-.2-.3-.4l.1-.2h.5q1 1 2.2 1 1 0 1.7-.7.6-.6.6-1.8 0-1-.5-1.5-.6-.6-1.5-.6t-1.8.4l-.3.1h-.2v-4.1h4l.2.1.1.2v.2l-.4.1h-3.4Z"/><path stroke="#242424" stroke-width="3" stroke-linejoin="round" stroke-linecap="round" d="M13.1 405.3v-.3h-4v.5q0 .2-.2.3h-.4v-1.3h5.2v.8l-2.3 7.4-.1.3h-.4v-.5l2.2-7.2Zm8.7 2.7v1.4q0 1.9-.8 3-.7.8-1.8.8l-1-.2q-.4-.2-.7-.6l-.4-.7-.4-.9-.1-1.4V408q0-1.9.9-3 .6-.8 1.7-.8l1 .2q.4.2.7.6l.4.7.4 1 .1 1.3Zm-.5 0q0-.7-.3-1.4-.2-.7-.5-1.1l-.4-.5q-.4-.2-.9-.2-1 0-1.5 1-.6 1-.6 2.3v1.2q0 .9.3 1.6.2.7.5 1l.4.5q.4.2 1 .2.9 0 1.4-1 .6-1 .6-2.3v-1.2Z"/><path fill="#bdbdbd" d="M13.1 405.3v-.3h-4v.5q0 .2-.2.3h-.4v-1.3h5.2v.8l-2.3 7.4-.1.3h-.4v-.5l2.2-7.2Zm8.7 2.7v1.4q0 1.9-.8 3-.7.8-1.8.8l-1-.2q-.4-.2-.7-.6l-.4-.7-.4-.9-.1-1.4V408q0-1.9.9-3 .6-.8 1.7-.8l1 .2q.4.2.7.6l.4.7.4 1 .1 1.3Zm-.5 0q0-.7-.3-1.4-.2-.7-.5-1.1l-.4-.5q-.4-.2-.9-.2-1 0-1.5 1-.6 1-.6 2.3v1.2q0 .9.3 1.6.2.7.5 1l.4.5q.4.2 1 .2.9 0 1.4-1 .6-1 .6-2.3v-1.2Z"/><path stroke="#242424" stroke-width="3" stroke-linejoin="round" stroke-linecap="round" d="M13.1 272.3v-.3h-4v.5q0 .2-.2.3h-.4v-1.3h5.2v.8l-2.3 7.4-.1.3h-.4v-.5l2.2-7.2Zm4.5-.3v2.8l1-.3.9-.1q1 0 1.8.8.7.7.7 2t-.8 2.2q-.8.8-2 .8-.9 0-1.6-.4-.6-.2-1-.6-.3-.2-.3-.4l.1-.2h.5q1 1 2.2 1 1 0 1.7-.7.6-.6.6-1.8 0-1-.5-1.5-.6-.6-1.5-.6t-1.8.4l-.3.1h-.2v-4.1h4l.2.1.1.2v.2l-.4.1h-3.4Z"/><path fill="#bdbdbd" d="M13.1 272.3v-.3h-4v.5q0 .2-.2.3h-.4v-1.3h5.2v.8l-2.3 7.4-.1.3h-.4v-.5l2.2-7.2Zm4.5-.3v2.8l1-.3.9-.1q1 0 1.8.8.7.7.7 2t-.8 2.2q-.8.8-2 .8-.9 0-1.6-.4-.6-.2-1-.6-.3-.2-.3-.4l.1-.2h.5q1 1 2.2 1 1 0 1.7-.7.6-.6.6-1.8 0-1-.5-1.5-.6-.6-1.5-.6t-1.8.4l-.3.1h-.2v-4.1h4l.2.1.1.2v.2l-.4.1h-3.4Z"/><path stroke="#242424" stroke-width="3" stroke-linejoin="round" stroke-linecap="round" d="M12.4 142.5q.7.4 1 1 .4.5.4 1.2 0 1-.7 1.8-.8.7-1.9.7-1 0-1.9-.7-.7-.8-.7-1.8 0-.7.3-1.2.4-.6 1.1-1-.6-.3-.9-.7-.4-.6-.4-1.2 0-1 .7-1.7.8-.7 1.8-.7t1.8.7q.7.7.7 1.7 0 .7-.4 1.2-.3.4-1 .7Zm.7-2q0-.6-.6-1.2-.5-.5-1.3-.5t-1.4.5q-.5.6-.5 1.3 0 .7.5 1.2.6.5 1.4.5.8 0 1.3-.5.6-.6.6-1.2Zm.2 4.2q0-.7-.6-1.3-.6-.6-1.5-.6t-1.5.6q-.5.6-.5 1.3 0 .8.6 1.4.5.5 1.4.5.9 0 1.5-.5.6-.6.6-1.4Zm8.5-2.7v1.4q0 1.9-.8 3-.7.8-1.8.8l-1-.2q-.4-.2-.7-.6l-.4-.7-.4-.9-.1-1.4V142q0-1.9.9-3 .6-.8 1.7-.8l1 .2q.4.2.7.6l.4.7.4 1 .1 1.3Zm-.5 0q0-.7-.3-1.4-.2-.7-.5-1.1l-.4-.5q-.4-.2-.9-.2-1 0-1.5 1-.6 1-.6 2.3v1.2q0 .9.3 1.6.2.7.5 1l.4.5q.4.2 1 .2.9 0 1.4-1 .6-1 .6-2.3v-1.2Z"/><path fill="#bdbdbd" d="M12.4 142.5q.7.4 1 1 .4.5.4 1.2 0 1-.7 1.8-.8.7-1.9.7-1 0-1.9-.7-.7-.8-.7-1.8 0-.7.3-1.2.4-.6 1.1-1-.6-.3-.9-.7-.4-.6-.4-1.2 0-1 .7-1.7.8-.7 1.8-.7t1.8.7q.7.7.7 1.7 0 .7-.4 1.2-.3.4-1 .7Zm.7-2q0-.6-.6-1.2-.5-.5-1.3-.5t-1.4.5q-.5.6-.5 1.3 0 .7.5 1.2.6.5 1.4.5.8 0 1.3-.5.6-.6.6-1.2Zm.2 4.2q0-.7-.6-1.3-.6-.6-1.5-.6t-1.5.6q-.5.6-.5 1.3 0 .8.6 1.4.5.5 1.4.5.9 0 1.5-.5.6-.6.6-1.4Zm8.5-2.7v1.4q0 1.9-.8 3-.7.8-1.8.8l-1-.2q-.4-.2-.7-.6l-.4-.7-.4-.9-.1-1.4V142q0-1.9.9-3 .6-.8 1.7-.8l1 .2q.4.2.7.6l.4.7.4 1 .1 1.3Zm-.5 0q0-.7-.3-1.4-.2-.7-.5-1.1l-.4-.5q-.4-.2-.9-.2-1 0-1.5 1-.6 1-.6 2.3v1.2q0 .9.3 1.6.2.7.5 1l.4.5q.4.2 1 .2.9 0 1.4-1 .6-1 .6-2.3v-1.2Z"/><path stroke="#242424" stroke-width="3" stroke-linejoin="round" stroke-linecap="round" d="m10.1 649.4 1.1-1.2q.6-.4 1.3-.4.9 0 1.6.8.7.8.7 1.9 0 1-.6 1.9-.7.8-1.8.8-.8 0-1.4-.5-.7-.4-1-1.4-.5-1.1-.5-2.6 0-1 .4-2 .4-.7 1-1.2.5-.6 1.2-1 .7-.3 1.6-.3.6 0 1 .3l.1.2v.2l-.3.1h-.2q-.3-.2-.7-.2-1.3 0-2.4 1.2-1.1 1-1.1 2.7v.7Zm.2 1q.2 1.2.8 1.7.5.5 1.3.5t1.3-.6q.6-.6.6-1.5 0-1-.6-1.5-.5-.6-1.2-.6t-1.3.6q-.4.3-1 1.3Zm12.2-2.4v1.4q0 1.9-.9 3-.7.8-1.7.8-.6 0-1-.2l-.8-.6-.4-.7-.3-.9q-.2-.6-.2-1.4V648q0-1.9.9-3 .7-.8 1.7-.8l1 .2q.4.2.7.6.3.2.5.7l.3 1q.2.5.2 1.3Zm-.6 0-.2-1.4-.5-1.1-.5-.5q-.4-.2-.9-.2-1 0-1.5 1t-.5 2.3v1.2q0 .9.2 1.6.2.7.5 1l.5.5q.4.2.9.2 1 0 1.5-1t.5-2.3v-1.2Zm8.6 0v1.4q0 1.9-.9 3-.7.8-1.7.8-.6 0-1-.2l-.8-.6-.4-.7-.3-.9q-.2-.6-.2-1.4V648q0-1.9.9-3 .7-.8 1.7-.8l1 .2q.4.2.7.6.3.2.5.7l.3 1q.2.5.2 1.3Zm-.6 0-.2-1.4-.5-1.1-.5-.5q-.4-.2-.9-.2-1 0-1.5 1t-.5 2.3v1.2q0 .9.2 1.6.2.7.5 1l.5.5q.4.2.9.2 1 0 1.5-1t.5-2.3v-1.2Z"/><path fill="#bdbdbd" d="m10.1 649.4 1.1-1.2q.6-.4 1.3-.4.9 0 1.6.8.7.8.7 1.9 0 1-.6 1.9-.7.8-1.8.8-.8 0-1.4-.5-.7-.4-1-1.4-.5-1.1-.5-2.6 0-1 .4-2 .4-.7 1-1.2.5-.6 1.2-1 .7-.3 1.6-.3.6 0 1 .3l.1.2v.2l-.3.1h-.2q-.3-.2-.7-.2-1.3 0-2.4 1.2-1.1 1-1.1 2.7v.7Zm.2 1q.2 1.2.8 1.7.5.5 1.3.5t1.3-.6q.6-.6.6-1.5 0-1-.6-1.5-.5-.6-1.2-.6t-1.3.6q-.4.3-1 1.3Zm12.2-2.4v1.4q0 1.9-.9 3-.7.8-1.7.8-.6 0-1-.2l-.8-.6-.4-.7-.3-.9q-.2-.6-.2-1.4V648q0-1.9.9-3 .7-.8 1.7-.8l1 .2q.4.2.7.6.3.2.5.7l.3 1q.2.5.2 1.3Zm-.6 0-.2-1.4-.5-1.1-.5-.5q-.4-.2-.9-.2-1 0-1.5 1t-.5 2.3v1.2q0 .9.2 1.6.2.7.5 1l.5.5q.4.2.9.2 1 0 1.5-1t.5-2.3v-1.2Zm8.6 0v1.4q0 1.9-.9 3-.7.8-1.7.8-.6 0-1-.2l-.8-.6-.4-.7-.3-.9q-.2-.6-.2-1.4V648q0-1.9.9-3 .7-.8 1.7-.8l1 .2q.4.2.7.6.3.2.5.7l.3 1q.2.5.2 1.3Zm-.6 0-.2-1.4-.5-1.1-.5-.5q-.4-.2-.9-.2-1 0-1.5 1t-.5 2.3v1.2q0 .9.2 1.6.2.7.5 1l.5.5q.4.2.9.2 1 0 1.5-1t.5-2.3v-1.2Z"/><path stroke="#242424" stroke-width="3" stroke-linejoin="round" stroke-linecap="round" d="M85 645.3v-.3h-4.2v.8h-.5v-1.3h5.2v.8l-2.3 7.4-.1.3h-.4l-.1-.3v-.2l2.3-7.2Zm8.6 2.7v1.4q0 1.9-.9 3-.6.8-1.7.8l-1-.2q-.4-.2-.7-.6l-.4-.7-.4-.9-.1-1.4V648q0-1.9.8-3 .7-.8 1.8-.8l1 .2q.4.2.7.6l.4.7.4 1 .1 1.3Zm-.5 0q0-.7-.3-1.4-.2-.7-.5-1.1l-.4-.5q-.4-.2-1-.2-.9 0-1.4 1-.6 1-.6 2.3v1.2q0 .9.3 1.6.2.7.5 1l.4.5q.4.2 1 .2.9 0 1.4-1 .6-1 .6-2.3v-1.2Zm8.5 0v1.4q0 1.9-.9 3-.6.8-1.7.8l-1-.2q-.4-.2-.7-.6l-.4-.7-.4-.9-.1-1.4V648q0-1.9.8-3 .7-.8 1.8-.8l1 .2q.4.2.7.6l.4.7.4 1 .1 1.3Zm-.5 0q0-.7-.3-1.4-.2-.7-.5-1.1l-.4-.5q-.4-.2-1-.2-.9 0-1.4 1-.6 1-.6 2.3v1.2q0 .9.3 1.6.2.7.5 1l.4.5q.4.2 1 .2.9 0 1.4-1 .6-1 .6-2.3v-1.2Z"/><path fill="#bdbdbd" d="M85 645.3v-.3h-4.2v.8h-.5v-1.3h5.2v.8l-2.3 7.4-.1.3h-.4l-.1-.3v-.2l2.3-7.2Zm8.6 2.7v1.4q0 1.9-.9 3-.6.8-1.7.8l-1-.2q-.4-.2-.7-.6l-.4-.7-.4-.9-.1-1.4V648q0-1.9.8-3 .7-.8 1.8-.8l1 .2q.4.2.7.6l.4.7.4 1 .1 1.3Zm-.5 0q0-.7-.3-1.4-.2-.7-.5-1.1l-.4-.5q-.4-.2-1-.2-.9 0-1.4 1-.6 1-.6 2.3v1.2q0 .9.3 1.6.2.7.5 1l.4.5q.4.2 1 .2.9 0 1.4-1 .6-1 .6-2.3v-1.2Zm8.5 0v1.4q0 1.9-.9 3-.6.8-1.7.8l-1-.2q-.4-.2-.7-.6l-.4-.7-.4-.9-.1-1.4V648q0-1.9.8-3 .7-.8 1.8-.8l1 .2q.4.2.7.6l.4.7.4 1 .1 1.3Zm-.5 0q0-.7-.3-1.4-.2-.7-.5-1.1l-.4-.5q-.4-.2-1-.2-.9 0-1.4 1-.6 1-.6 2.3v1.2q0 .9.3 1.6.2.7.5 1l.4.5q.4.2 1 .2.9 0 1.4-1 .6-1 .6-2.3v-1.2Z"/><path stroke="#242424" stroke-width="3" stroke-linejoin="round" stroke-linecap="round" d="M145.8 648.5q.7.4 1 1 .5.5.5 1.2 0 1-.8 1.8-.8.7-1.9.7-1 0-1.8-.7-.8-.8-.8-1.8 0-.7.4-1.2.3-.6 1-1-.6-.3-.9-.7-.4-.5-.4-1.2 0-1 .8-1.7.7-.7 1.7-.7t1.8.7q.7.7.7 1.7 0 .6-.4 1.2-.3.4-.9.7Zm.7-2q0-.6-.5-1.2-.6-.5-1.4-.5-.8 0-1.3.5-.6.6-.6 1.3 0 .6.6 1.2.5.5 1.3.5t1.4-.5q.5-.5.5-1.2Zm.2 4.2q0-.7-.6-1.3-.6-.6-1.5-.6-.8 0-1.4.6-.6.6-.6 1.3 0 .8.6 1.4.6.5 1.4.5.9 0 1.5-.5.6-.6.6-1.4Zm8.6-2.7v1.4q0 1.9-1 3-.6.8-1.7.8l-1-.2q-.4-.2-.7-.6l-.4-.7-.4-.9-.1-1.4V648q0-1.9.9-3 .7-.8 1.7-.8l1 .2q.4.2.7.6l.5.7.3 1q.2.5.2 1.3Zm-.6 0-.2-1.4-.6-1.1q-.1-.3-.4-.5-.4-.2-.9-.2-1 0-1.5 1t-.5 2.3v1.2q0 .9.2 1.6.2.7.5 1l.5.5q.3.2.8.2 1 0 1.5-1 .6-1 .6-2.3v-1.2Zm8.6 0v1.4q0 1.9-1 3-.6.8-1.7.8l-1-.2q-.4-.2-.7-.6l-.4-.7-.4-.9-.1-1.4V648q0-1.9.9-3 .7-.8 1.7-.8l1 .2q.4.2.7.6l.5.7.3 1q.2.5.2 1.3Zm-.6 0-.2-1.4-.6-1.1q-.1-.3-.4-.5-.4-.2-.9-.2-1 0-1.5 1t-.5 2.3v1.2q0 .9.2 1.6.2.7.5 1l.5.5q.3.2.8.2 1 0 1.5-1 .6-1 .6-2.3v-1.2Z"/><path fill="#bdbdbd" d="M145.8 648.5q.7.4 1 1 .5.5.5 1.2 0 1-.8 1.8-.8.7-1.9.7-1 0-1.8-.7-.8-.8-.8-1.8 0-.7.4-1.2.3-.6 1-1-.6-.3-.9-.7-.4-.5-.4-1.2 0-1 .8-1.7.7-.7 1.7-.7t1.8.7q.7.7.7 1.7 0 .6-.4 1.2-.3.4-.9.7Zm.7-2q0-.6-.5-1.2-.6-.5-1.4-.5-.8 0-1.3.5-.6.6-.6 1.3 0 .6.6 1.2.5.5 1.3.5t1.4-.5q.5-.5.5-1.2Zm.2 4.2q0-.7-.6-1.3-.6-.6-1.5-.6-.8 0-1.4.6-.6.6-.6 1.3 0 .8.6 1.4.6.5 1.4.5.9 0 1.5-.5.6-.6.6-1.4Zm8.6-2.7v1.4q0 1.9-1 3-.6.8-1.7.8l-1-.2q-.4-.2-.7-.6l-.4-.7-.4-.9-.1-1.4V648q0-1.9.9-3 .7-.8 1.7-.8l1 .2q.4.2.7.6l.5.7.3 1q.2.5.2 1.3Zm-.6 0-.2-1.4-.6-1.1q-.1-.3-.4-.5-.4-.2-.9-.2-1 0-1.5 1t-.5 2.3v1.2q0 .9.2 1.6.2.7.5 1l.5.5q.3.2.8.2 1 0 1.5-1 .6-1 .6-2.3v-1.2Zm8.6 0v1.4q0 1.9-1 3-.6.8-1.7.8l-1-.2q-.4-.2-.7-.6l-.4-.7-.4-.9-.1-1.4V648q0-1.9.9-3 .7-.8 1.7-.8l1 .2q.4.2.7.6l.5.7.3 1q.2.5.2 1.3Zm-.6 0-.2-1.4-.6-1.1q-.1-.3-.4-.5-.4-.2-.9-.2-1 0-1.5 1t-.5 2.3v1.2q0 .9.2 1.6.2.7.5 1l.5.5q.3.2.8.2 1 0 1.5-1 .6-1 .6-2.3v-1.2Z"/><path stroke="#242424" stroke-width="3" stroke-linejoin="round" stroke-linecap="round" d="M201.3 648.1q-.4.8-1 1.2-.6.4-1.3.4-.6 0-1.1-.3-.6-.4-1-1l-.2-1.4q0-1 .6-2 .7-.8 1.8-.8.7 0 1.4.5.6.5 1 1.4.4 1.2.4 2.8 0 1.2-.3 2l-.8 1q-.5.6-1.1.9-.9.4-1.8.4-.6 0-1-.2-.2-.1-.2-.3v-.2h.5l.6.1q1.5 0 2.5-1t1-2.6v-.9Zm0-1q-.4-1.3-1-1.8-.5-.5-1.2-.5-.8 0-1.3.6-.6.6-.6 1.6t.6 1.5q.5.7 1.3.7.3 0 .7-.3l.8-.6.6-1.1Zm8.3.9v1.4q0 1.9-.9 3-.6.8-1.7.8l-1-.2q-.4-.2-.7-.6l-.5-.7-.3-.9q-.2-.6-.2-1.4V648q0-1.9 1-3 .6-.8 1.7-.8l1 .2q.4.2.7.6l.4.7.4 1 .1 1.3Zm-.5 0q0-.7-.3-1.4-.2-.7-.5-1.1l-.4-.5q-.4-.2-1-.2-.9 0-1.4 1-.6 1-.6 2.3v1.2q0 .9.2 1.6.3.7.6 1 .1.3.4.5.4.2.9.2 1 0 1.5-1 .6-1 .6-2.3v-1.2Zm8.5 0v1.4q0 1.9-.9 3-.6.8-1.7.8l-1-.2q-.4-.2-.7-.6l-.5-.7-.3-.9q-.2-.6-.2-1.4V648q0-1.9 1-3 .6-.8 1.7-.8l1 .2q.4.2.7.6l.4.7.4 1 .1 1.3Zm-.5 0q0-.7-.3-1.4-.2-.7-.5-1.1l-.4-.5q-.4-.2-1-.2-.9 0-1.4 1-.6 1-.6 2.3v1.2q0 .9.2 1.6.3.7.6 1 .1.3.4.5.4.2.9.2 1 0 1.5-1 .6-1 .6-2.3v-1.2Z"/><path fill="#bdbdbd" d="M201.3 648.1q-.4.8-1 1.2-.6.4-1.3.4-.6 0-1.1-.3-.6-.4-1-1l-.2-1.4q0-1 .6-2 .7-.8 1.8-.8.7 0 1.4.5.6.5 1 1.4.4 1.2.4 2.8 0 1.2-.3 2l-.8 1q-.5.6-1.1.9-.9.4-1.8.4-.6 0-1-.2-.2-.1-.2-.3v-.2h.5l.6.1q1.5 0 2.5-1t1-2.6v-.9Zm0-1q-.4-1.3-1-1.8-.5-.5-1.2-.5-.8 0-1.3.6-.6.6-.6 1.6t.6 1.5q.5.7 1.3.7.3 0 .7-.3l.8-.6.6-1.1Zm8.3.9v1.4q0 1.9-.9 3-.6.8-1.7.8l-1-.2q-.4-.2-.7-.6l-.5-.7-.3-.9q-.2-.6-.2-1.4V648q0-1.9 1-3 .6-.8 1.7-.8l1 .2q.4.2.7.6l.4.7.4 1 .1 1.3Zm-.5 0q0-.7-.3-1.4-.2-.7-.5-1.1l-.4-.5q-.4-.2-1-.2-.9 0-1.4 1-.6 1-.6 2.3v1.2q0 .9.2 1.6.3.7.6 1 .1.3.4.5.4.2.9.2 1 0 1.5-1 .6-1 .6-2.3v-1.2Zm8.5 0v1.4q0 1.9-.9 3-.6.8-1.7.8l-1-.2q-.4-.2-.7-.6l-.5-.7-.3-.9q-.2-.6-.2-1.4V648q0-1.9 1-3 .6-.8 1.7-.8l1 .2q.4.2.7.6l.4.7.4 1 .1 1.3Zm-.5 0q0-.7-.3-1.4-.2-.7-.5-1.1l-.4-.5q-.4-.2-1-.2-.9 0-1.4 1-.6 1-.6 2.3v1.2q0 .9.2 1.6.3.7.6 1 .1.3.4.5.4.2.9.2 1 0 1.5-1 .6-1 .6-2.3v-1.2Z"/><path stroke="#242424" stroke-width="3" stroke-linejoin="round" stroke-linecap="round" d="M243.9 644.3v8.1h2l.3.1v.4l-.3.1H241l-.1-.3v-.2h2.4V645l-2 .6h-.2l-.1-.3v-.1l.3-.2 2.6-.8Zm10.4 3.7v1.4q0 1.9-1 3-.6.8-1.7.8l-1-.2q-.4-.2-.7-.6l-.4-.7-.4-.9-.1-1.4V648q0-1.9.9-3 .7-.8 1.7-.8l1 .2q.4.2.7.6l.5.7.3 1q.2.5.2 1.3Zm-.6 0q0-.7-.3-1.4-.2-.7-.5-1.1-.1-.3-.4-.5-.4-.2-.9-.2-1 0-1.5 1t-.5 2.3v1.2q0 .9.2 1.6.2.7.5 1l.4.5q.4.2 1 .2.9 0 1.4-1 .6-1 .6-2.3v-1.2Zm8.6 0v1.4q0 1.9-1 3-.6.8-1.7.8l-1-.2q-.4-.2-.7-.6l-.4-.7-.4-.9-.1-1.4V648q0-1.9.9-3 .7-.8 1.7-.8l1 .2q.4.2.7.6l.5.7.3 1q.2.5.2 1.3Zm-.6 0q0-.7-.3-1.4-.2-.7-.5-1.1-.1-.3-.4-.5-.4-.2-.9-.2-1 0-1.5 1t-.5 2.3v1.2q0 .9.2 1.6.2.7.5 1l.4.5q.4.2 1 .2.9 0 1.4-1 .6-1 .6-2.3v-1.2Zm8.6 0v1.4q0 1.9-1 3-.6.8-1.7.8l-1-.2q-.4-.2-.7-.6l-.4-.7-.4-.9-.1-1.4V648q0-1.9.9-3 .7-.8 1.7-.8l1 .2q.4.2.7.6l.5.7.3 1q.2.5.2 1.3Zm-.6 0q0-.7-.3-1.4-.2-.7-.5-1.1-.1-.3-.4-.5-.4-.2-.9-.2-1 0-1.5 1t-.5 2.3v1.2q0 .9.2 1.6.2.7.5 1l.4.5q.4.2 1 .2.9 0 1.4-1 .6-1 .6-2.3v-1.2Z"/><path fill="#bdbdbd" d="M243.9 644.3v8.1h2l.3.1v.4l-.3.1H241l-.1-.3v-.2h2.4V645l-2 .6h-.2l-.1-.3v-.1l.3-.2 2.6-.8Zm10.4 3.7v1.4q0 1.9-1 3-.6.8-1.7.8l-1-.2q-.4-.2-.7-.6l-.4-.7-.4-.9-.1-1.4V648q0-1.9.9-3 .7-.8 1.7-.8l1 .2q.4.2.7.6l.5.7.3 1q.2.5.2 1.3Zm-.6 0q0-.7-.3-1.4-.2-.7-.5-1.1-.1-.3-.4-.5-.4-.2-.9-.2-1 0-1.5 1t-.5 2.3v1.2q0 .9.2 1.6.2.7.5 1l.4.5q.4.2 1 .2.9 0 1.4-1 .6-1 .6-2.3v-1.2Zm8.6 0v1.4q0 1.9-1 3-.6.8-1.7.8l-1-.2q-.4-.2-.7-.6l-.4-.7-.4-.9-.1-1.4V648q0-1.9.9-3 .7-.8 1.7-.8l1 .2q.4.2.7.6l.5.7.3 1q.2.5.2 1.3Zm-.6 0q0-.7-.3-1.4-.2-.7-.5-1.1-.1-.3-.4-.5-.4-.2-.9-.2-1 0-1.5 1t-.5 2.3v1.2q0 .9.2 1.6.2.7.5 1l.4.5q.4.2 1 .2.9 0 1.4-1 .6-1 .6-2.3v-1.2Zm8.6 0v1.4q0 1.9-1 3-.6.8-1.7.8l-1-.2q-.4-.2-.7-.6l-.4-.7-.4-.9-.1-1.4V648q0-1.9.9-3 .7-.8 1.7-.8l1 .2q.4.2.7.6l.5.7.3 1q.2.5.2 1.3Zm-.6 0q0-.7-.3-1.4-.2-.7-.5-1.1-.1-.3-.4-.5-.4-.2-.9-.2-1 0-1.5 1t-.5 2.3v1.2q0 .9.2 1.6.2.7.5 1l.4.5q.4.2 1 .2.9 0 1.4-1 .6-1 .6-2.3v-1.2Z"/><path stroke="#242424" stroke-width="3" stroke-linejoin="round" stroke-linecap="round" d="M561 652.4h4.5v-.5h.5v1.1h-5.5v-.8l3.4-3.2q.8-.8 1-1.2.4-.3.4-.6l.2-.5q0-.8-.6-1.3-.6-.6-1.5-.6-.7 0-1.3.4-.6.5-.8 1.1v.2h-.4l-.1-.2.3-.9q.4-.5 1-.9.7-.3 1.3-.3 1.1 0 1.9.8.8.7.8 1.7l-.2.7-.4.7-1.1 1.2q-2 2-3.3 3v.1Zm13.2-4.4v1.4q0 1.9-1 3-.6.8-1.6.8-.6 0-1-.2-.5-.2-.8-.6l-.4-.7-.3-.9q-.2-.6-.2-1.4V648q0-1.9.9-3 .7-.8 1.7-.8l1 .2q.4.2.7.6l.5.7.3 1q.2.5.2 1.3Zm-.6 0-.2-1.4-.6-1.1q-.1-.3-.4-.5-.4-.2-.9-.2-1 0-1.5 1t-.5 2.3v1.2q0 .9.2 1.6.2.7.5 1l.5.5q.4.2.9.2 1 0 1.5-1t.5-2.3v-1.2Zm8.6 0v1.4q0 1.9-1 3-.6.8-1.6.8-.6 0-1-.2-.5-.2-.8-.6l-.4-.7-.3-.9q-.2-.6-.2-1.4V648q0-1.9.9-3 .7-.8 1.7-.8l1 .2q.4.2.7.6l.5.7.3 1q.2.5.2 1.3Zm-.6 0-.2-1.4-.6-1.1q-.1-.3-.4-.5-.4-.2-.9-.2-1 0-1.5 1t-.5 2.3v1.2q0 .9.2 1.6.2.7.5 1l.5.5q.4.2.9.2 1 0 1.5-1t.5-2.3v-1.2Zm8.6 0v1.4q0 1.9-1 3-.6.8-1.6.8-.6 0-1-.2-.5-.2-.8-.6l-.4-.7-.3-.9q-.2-.6-.2-1.4V648q0-1.9.9-3 .7-.8 1.7-.8l1 .2q.4.2.7.6l.5.7.3 1q.2.5.2 1.3Zm-.6 0-.2-1.4-.6-1.1q-.1-.3-.4-.5-.4-.2-.9-.2-1 0-1.5 1t-.5 2.3v1.2q0 .9.2 1.6.2.7.5 1l.5.5q.4.2.9.2 1 0 1.5-1t.5-2.3v-1.2Z"/><path fill="#bdbdbd" d="M561 652.4h4.5v-.5h.5v1.1h-5.5v-.8l3.4-3.2q.8-.8 1-1.2.4-.3.4-.6l.2-.5q0-.8-.6-1.3-.6-.6-1.5-.6-.7 0-1.3.4-.6.5-.8 1.1v.2h-.4l-.1-.2.3-.9q.4-.5 1-.9.7-.3 1.3-.3 1.1 0 1.9.8.8.7.8 1.7l-.2.7-.4.7-1.1 1.2q-2 2-3.3 3v.1Zm13.2-4.4v1.4q0 1.9-1 3-.6.8-1.6.8-.6 0-1-.2-.5-.2-.8-.6l-.4-.7-.3-.9q-.2-.6-.2-1.4V648q0-1.9.9-3 .7-.8 1.7-.8l1 .2q.4.2.7.6l.5.7.3 1q.2.5.2 1.3Zm-.6 0-.2-1.4-.6-1.1q-.1-.3-.4-.5-.4-.2-.9-.2-1 0-1.5 1t-.5 2.3v1.2q0 .9.2 1.6.2.7.5 1l.5.5q.4.2.9.2 1 0 1.5-1t.5-2.3v-1.2Zm8.6 0v1.4q0 1.9-1 3-.6.8-1.6.8-.6 0-1-.2-.5-.2-.8-.6l-.4-.7-.3-.9q-.2-.6-.2-1.4V648q0-1.9.9-3 .7-.8 1.7-.8l1 .2q.4.2.7.6l.5.7.3 1q.2.5.2 1.3Zm-.6 0-.2-1.4-.6-1.1q-.1-.3-.4-.5-.4-.2-.9-.2-1 0-1.5 1t-.5 2.3v1.2q0 .9.2 1.6.2.7.5 1l.5.5q.4.2.9.2 1 0 1.5-1t.5-2.3v-1.2Zm8.6 0v1.4q0 1.9-1 3-.6.8-1.6.8-.6 0-1-.2-.5-.2-.8-.6l-.4-.7-.3-.9q-.2-.6-.2-1.4V648q0-1.9.9-3 .7-.8 1.7-.8l1 .2q.4.2.7.6l.5.7.3 1q.2.5.2 1.3Zm-.6 0-.2-1.4-.6-1.1q-.1-.3-.4-.5-.4-.2-.9-.2-1 0-1.5 1t-.5 2.3v1.2q0 .9.2 1.6.2.7.5 1l.5.5q.4.2.9.2 1 0 1.5-1t.5-2.3v-1.2Z"/><path stroke="#ed333b" stroke-width="4" stroke-linecap="butt" d="M6.7 84h12"/><path stroke="#242424" stroke-width="3" stroke-linejoin="round" stroke-linecap="round" d="M32.5 87.5v-.8q-1.3 1-2.7 1-1 0-1.6-.4-.6-.6-.6-1.3 0-.9.8-1.5t2.2-.6h.9l1 .2v-1q0-.4-.4-.7-.5-.4-1.3-.4-.7 0-2 .4h-.4V82l.8-.3q1-.3 1.6-.3 1 0 1.7.6.6.5.6 1.2V87h1.1v.5h-1.7Zm0-2.8-.9-.2h-.9q-1.3 0-2 .5-.5.4-.5 1 0 .5.4.8.4.4 1.2.4.7 0 1.4-.3.6-.3 1.3-1v-1.2Zm6.9 2.8h-1L36 82.3h-.9v-.5H38v.4l-.3.1h-1l2.1 4.8h.3l2-4.8h-1.2v-.5h2.8v.4l-.3.1h-.6l-2.3 5.3Zm7.7-8.8v1.5h-.8v-1.5h.8Zm0 3V87h2.7l.1.3v.2H44V87h2.6v-4.8h-2v-.5h2.6Zm9.4 5.8v-.8q-1.3 1-2.7 1-1 0-1.6-.4-.6-.6-.6-1.3 0-.9.8-1.5t2.2-.6h.9l1 .2v-1q0-.4-.4-.7-.5-.4-1.3-.4-.7 0-2 .4h-.4V82l.8-.3q1-.3 1.6-.3 1 0 1.7.6.6.5.6 1.2V87h1.1v.5h-1.7Zm0-2.8-.9-.2h-.9q-1.3 0-2 .5-.5.4-.5 1 0 .5.4.8.4.4 1.2.4.7 0 1.4-.3.6-.3 1.3-1v-1.2Zm5.2-3H65v.4l-.3.1h-3.1V86q0 .5.4.9.4.3 1.1.3l1.3-.2 1-.4h.5v.4q-.3.3-1.1.5-.8.3-1.6.3-1 0-1.6-.5-.6-.5-.6-1.3v-3.8h-1.4v-.5H61v-1.8q0-.2.2-.3h.4v2ZM74 84.5q0 1.3-1 2.2-1 1-2.2 1-1.4 0-2.3-1-1-.9-1-2.2 0-1.3 1-2.2 1-1 2.3-1 1.3 0 2.2 1 1 .9 1 2.2Zm-.6 0q0-1-.8-1.8T71 82q-1.1 0-2 .8-.7.7-.7 1.8 0 1 .8 1.8t1.9.8q1 0 1.8-.8.8-.7.8-1.8Zm4.7-3V83q1-1 1.6-1.3.6-.3 1-.3.6 0 1 .3l.5.5-.1.3h-.2l-.2-.1q-.3-.3-.5-.3L81 82q-.4 0-1 .3l-1.7 1.4V87H81l.1.3v.2h-5.2V87l.3-.1h1.4v-4.8h-1.4v-.5h2Z"/><path fill="#bdbdbd" d="M32.5 87.5v-.8q-1.3 1-2.7 1-1 0-1.6-.4-.6-.6-.6-1.3 0-.9.8-1.5t2.2-.6h.9l1 .2v-1q0-.4-.4-.7-.5-.4-1.3-.4-.7 0-2 .4h-.4V82l.8-.3q1-.3 1.6-.3 1 0 1.7.6.6.5.6 1.2V87h1.1v.5h-1.7Zm0-2.8-.9-.2h-.9q-1.3 0-2 .5-.5.4-.5 1 0 .5.4.8.4.4 1.2.4.7 0 1.4-.3.6-.3 1.3-1v-1.2Zm6.9 2.8h-1L36 82.3h-.9v-.5H38v.4l-.3.1h-1l2.1 4.8h.3l2-4.8h-1.2v-.5h2.8v.4l-.3.1h-.6l-2.3 5.3Zm7.7-8.8v1.5h-.8v-1.5h.8Zm0 3V87h2.7l.1.3v.2H44V87h2.6v-4.8h-2v-.5h2.6Zm9.4 5.8v-.8q-1.3 1-2.7 1-1 0-1.6-.4-.6-.6-.6-1.3 0-.9.8-1.5t2.2-.6h.9l1 .2v-1q0-.4-.4-.7-.5-.4-1.3-.4-.7 0-2 .4h-.4V82l.8-.3q1-.3 1.6-.3 1 0 1.7.6.6.5.6 1.2V87h1.1v.5h-1.7Zm0-2.8-.9-.2h-.9q-1.3 0-2 .5-.5.4-.5 1 0 .5.4.8.4.4 1.2.4.7 0 1.4-.3.6-.3 1.3-1v-1.2Zm5.2-3H65v.4l-.3.1h-3.1V86q0 .5.4.9.4.3 1.1.3l1.3-.2 1-.4h.5v.4q-.3.3-1.1.5-.8.3-1.6.3-1 0-1.6-.5-.6-.5-.6-1.3v-3.8h-1.4v-.5H61v-1.8q0-.2.2-.3h.4v2ZM74 84.5q0 1.3-1 2.2-1 1-2.2 1-1.4 0-2.3-1-1-.9-1-2.2 0-1.3 1-2.2 1-1 2.3-1 1.3 0 2.2 1 1 .9 1 2.2Zm-.6 0q0-1-.8-1.8T71 82q-1.1 0-2 .8-.7.7-.7 1.8 0 1 .8 1.8t1.9.8q1 0 1.8-.8.8-.7.8-1.8Zm4.7-3V83q1-1 1.6-1.3.6-.3 1-.3.6 0 1 .3l.5.5-.1.3h-.2l-.2-.1q-.3-.3-.5-.3L81 82q-.4 0-1 .3l-1.7 1.4V87H81l.1.3v.2h-5.2V87l.3-.1h1.4v-4.8h-1.4v-.5h2Z"/><path stroke="#e5a50a" stroke-width="4" stroke-linecap="butt" d="M98.7 84h12"/><path stroke="#242424" stroke-width="3" stroke-linejoin="round" stroke-linecap="round" d="M121 79v3.5q.5-.6 1-.8.5-.3 1.1-.3.7 0 1.2.3.4.2.8.7.3.5.3 1V87h.9l.1.3v.2h-2.6V87h1v-3.5q0-.7-.5-1-.4-.5-1.2-.5-.6 0-1 .3-.4.2-1.1 1V87h.9v.5h-2.5V87h1v-7.5h-1.1V79h1.7Zm11.5 8.5v-.8q-1.3 1-2.7 1-1 0-1.6-.4-.6-.6-.6-1.3 0-.9.8-1.5t2.2-.6h.9l1 .2v-1q0-.4-.4-.7-.5-.4-1.3-.4-.7 0-2 .4h-.4V82l.8-.3q1-.3 1.6-.3 1 0 1.7.6.6.5.6 1.2V87h1.1v.5h-1.7Zm0-2.8-.8-.2h-1q-1.3 0-2 .5-.5.4-.5 1 0 .5.4.8.4.4 1.2.4.7 0 1.4-.3.6-.3 1.3-1v-1.2Zm4.5-3v.8l1-.8q.6-.3 1.2-.3t1.2.3q.4.2.7.7.3.5.3 1V87h.8v.5H140V87h.8v-3.5q0-.7-.4-1-.5-.5-1.2-.5-.6 0-1 .2l-1.2 1.2V87h.9l.1.3v.2h-2.5l-.1-.2V87h1v-4.8h-.8v-.5h1.3Zm12.7-2.7v8h1l.1.3v.2H149v-1q-1 1.3-2.6 1.3-.7 0-1.4-.4-.8-.5-1.2-1.2-.4-.8-.4-1.6t.4-1.6q.4-.7 1.2-1.2.7-.4 1.5-.4 1.5 0 2.5 1.4v-3.3h-1V79h1.7Zm-.6 5.6q0-1.1-.8-1.8-.7-.8-1.7-.8t-1.8.8q-.7.7-.7 1.8 0 1 .7 1.9.8.7 1.8.7t1.7-.7q.8-.8.8-1.9Zm3.6-5.6v3.8q1-1.4 2.5-1.4 1.2 0 2.1 1 1 .9 1 2.2 0 1.3-1 2.2-.9 1-2.1 1-1.5 0-2.5-1.4v1.1H151V87h1.1v-7.5H151V79h1.7Zm5 5.6q0-1-.8-1.8-.7-.8-1.7-.8t-1.8.8q-.7.7-.7 1.8 0 1 .7 1.9.8.7 1.8.7t1.7-.7q.8-.8.8-1.9Zm4.5-3v1.5q1-1 1.6-1.3.6-.3 1-.3.6 0 1 .3l.5.5-.1.3h-.3l-.2-.1q-.3-.3-.5-.3l-.3-.1q-.4 0-1 .3l-1.7 1.4V87h2.8l.1.3v.2h-5.2V87l.3-.1h1.4v-4.8h-1.4v-.5h2Zm10.3 6v-.9q-1.3 1-2.7 1-1 0-1.6-.4-.6-.6-.6-1.3 0-.9.8-1.5t2.2-.6h.9l1 .2v-1q0-.4-.4-.7-.5-.4-1.3-.4-.7 0-2 .4h-.4V82l.8-.3q1-.3 1.6-.3 1 0 1.7.6.6.5.6 1.2V87h1.1v.5h-1.7Zm0-3h-.8l-1-.1q-1.3 0-2 .5-.5.4-.5 1 0 .5.4.8.4.4 1.2.4.7 0 1.4-.3.6-.3 1.3-1v-1.2Zm5.2.4v2.5H176V87h1.1v-7.5H176V79h1.7v5.3l2.4-2h-.3q-.2 0-.3-.2v-.4h2.5v.4l-.3.1h-.7l-2.2 1.9 2.8 2.9h1v.5H180V87h.7l-2.5-2.6-.6.6Zm12.3-.3h-6q.2 1.1 1 1.8.7.7 1.9.7l1.3-.2q.7-.2 1.2-.6h.4v.4q-.4.4-1.2.7-.8.3-1.7.3-1.5 0-2.5-1t-1-2.3q0-1.3 1-2.2.9-.9 2.2-.9 1.5 0 2.4 1 .9.9.9 2.3Zm-.6-.6q-.2-1-1-1.5-.7-.6-1.7-.6t-1.7.6q-.7.6-.9 1.5h5.3Z"/><path fill="#bdbdbd" d="M121 79v3.5q.5-.6 1-.8.5-.3 1.1-.3.7 0 1.2.3.4.2.8.7.3.5.3 1V87h.9l.1.3v.2h-2.6V87h1v-3.5q0-.7-.5-1-.4-.5-1.2-.5-.6 0-1 .3-.4.2-1.1 1V87h.9v.5h-2.5V87h1v-7.5h-1.1V79h1.7Zm11.5 8.5v-.8q-1.3 1-2.7 1-1 0-1.6-.4-.6-.6-.6-1.3 0-.9.8-1.5t2.2-.6h.9l1 .2v-1q0-.4-.4-.7-.5-.4-1.3-.4-.7 0-2 .4h-.4V82l.8-.3q1-.3 1.6-.3 1 0 1.7.6.6.5.6 1.2V87h1.1v.5h-1.7Zm0-2.8-.8-.2h-1q-1.3 0-2 .5-.5.4-.5 1 0 .5.4.8.4.4 1.2.4.7 0 1.4-.3.6-.3 1.3-1v-1.2Zm4.5-3v.8l1-.8q.6-.3 1.2-.3t1.2.3q.4.2.7.7.3.5.3 1V87h.8v.5H140V87h.8v-3.5q0-.7-.4-1-.5-.5-1.2-.5-.6 0-1 .2l-1.2 1.2V87h.9l.1.3v.2h-2.5l-.1-.2V87h1v-4.8h-.8v-.5h1.3Zm12.7-2.7v8h1l.1.3v.2H149v-1q-1 1.3-2.6 1.3-.7 0-1.4-.4-.8-.5-1.2-1.2-.4-.8-.4-1.6t.4-1.6q.4-.7 1.2-1.2.7-.4 1.5-.4 1.5 0 2.5 1.4v-3.3h-1V79h1.7Zm-.6 5.6q0-1.1-.8-1.8-.7-.8-1.7-.8t-1.8.8q-.7.7-.7 1.8 0 1 .7 1.9.8.7 1.8.7t1.7-.7q.8-.8.8-1.9Zm3.6-5.6v3.8q1-1.4 2.5-1.4 1.2 0 2.1 1 1 .9 1 2.2 0 1.3-1 2.2-.9 1-2.1 1-1.5 0-2.5-1.4v1.1H151V87h1.1v-7.5H151V79h1.7Zm5 5.6q0-1-.8-1.8-.7-.8-1.7-.8t-1.8.8q-.7.7-.7 1.8 0 1 .7 1.9.8.7 1.8.7t1.7-.7q.8-.8.8-1.9Zm4.5-3v1.5q1-1 1.6-1.3.6-.3 1-.3.6 0 1 .3l.5.5-.1.3h-.3l-.2-.1q-.3-.3-.5-.3l-.3-.1q-.4 0-1 .3l-1.7 1.4V87h2.8l.1.3v.2h-5.2V87l.3-.1h1.4v-4.8h-1.4v-.5h2Zm10.3 6v-.9q-1.3 1-2.7 1-1 0-1.6-.4-.6-.6-.6-1.3 0-.9.8-1.5t2.2-.6h.9l1 .2v-1q0-.4-.4-.7-.5-.4-1.3-.4-.7 0-2 .4h-.4V82l.8-.3q1-.3 1.6-.3 1 0 1.7.6.6.5.6 1.2V87h1.1v.5h-1.7Zm0-3h-.8l-1-.1q-1.3 0-2 .5-.5.4-.5 1 0 .5.4.8.4.4 1.2.4.7 0 1.4-.3.6-.3 1.3-1v-1.2Zm5.2.4v2.5H176V87h1.1v-7.5H176V79h1.7v5.3l2.4-2h-.3q-.2 0-.3-.2v-.4h2.5v.4l-.3.1h-.7l-2.2 1.9 2.8 2.9h1v.5H180V87h.7l-2.5-2.6-.6.6Zm12.3-.3h-6q.2 1.1 1 1.8.7.7 1.9.7l1.3-.2q.7-.2 1.2-.6h.4v.4q-.4.4-1.2.7-.8.3-1.7.3-1.5 0-2.5-1t-1-2.3q0-1.3 1-2.2.9-.9 2.2-.9 1.5 0 2.4 1 .9.9.9 2.3Zm-.6-.6q-.2-1-1-1.5-.7-.6-1.7-.6t-1.7.6q-.7.6-.9 1.5h5.3Z"/><path stroke="#242424" stroke-width="3" stroke-linejoin="round" stroke-linecap="round" d="M12.1 59.3V59q-.5.3-1.2.4l-1.1.1q-1.1 0-1.8-.6t-.7-1.3q0-.9.9-1.6.9-.8 2.5-.8l1.4.2V55q0-.3-.3-.5-.2-.2-1-.2-.6 0-1.6.3h-.6l-.4-.2L8 54v-.3l.2-.2.5-.2 1-.2h1q1.4 0 2 .5.8.5.8 1.5V58h.3q.5 0 .7.2.2.2.2.5t-.2.5q-.2.2-.7.2H12Zm0-2.5-1.5-.2q-.9 0-1.5.4-.4.3-.4.6 0 .2.2.3.3.2 1 .2l1-.2 1.2-.5v-.6Zm5.3-3.7v.5q.4-.4.9-.5.4-.2 1-.2 1.2 0 2 .8.5.6.5 1.6v2.6q.5 0 .7.2.2.2.2.5t-.2.5q-.2.2-.7.2h-1.3q-.5 0-.7-.2-.2-.2-.2-.5t.2-.5q.2-.2.6-.2v-2.6q0-.5-.2-.7-.3-.3-1-.3-.5 0-.8.2l-1 .8v2.6l.7.1q.4.2.4.6 0 .3-.3.5-.2.2-.7.2H16q-.5 0-.7-.2-.2-.2-.2-.5 0-.4.3-.6l.7-.1v-3.4q-.4 0-.6-.2-.2-.2-.2-.5t.2-.5q.2-.2.7-.2h1.3Zm10-2.7V52h-1.7v-1.5h1.7Zm.1 2.7v4.8h1.7q.5 0 .7.2.3.2.3.5t-.3.5q-.2.2-.7.2h-4.7q-.5 0-.8-.2-.2-.2-.2-.5t.2-.5q.3-.2.8-.2H26v-3.4h-1q-.6 0-.8-.2-.2-.2-.2-.5t.2-.5q.2-.2.7-.2h2.5Zm5.2 0v.4l.6-.5.6-.1.7.1.5.5.8-.4q.3-.2.7-.2.8 0 1.3.4.6.6.6 1.5v3q.5 0 .7.3.2.2.2.5t-.2.5q-.2.2-.7.2H37v-4.9h-.9l-.6.7v2.8q.5 0 .7.2.2.2.2.5t-.2.5q-.2.2-.7.2h-1.4v-4.4l-.1-.5h-.8l-.6.7v2.8q.4 0 .6.2.3.2.3.5t-.3.5q-.2.2-.7.2h-1.2q-.5 0-.8-.2-.2-.2-.2-.5t.2-.5q.2-.2.7-.2v-3.4q-.5 0-.7-.2-.2-.2-.2-.5t.2-.5q.3-.2.8-.2h1.3ZM44 59.3V59q-.5.3-1.2.4l-1.1.1q-1.1 0-1.8-.6t-.7-1.3q0-.9.9-1.6.9-.8 2.4-.8l1.5.2V55q0-.3-.3-.5-.2-.2-1-.2-.6 0-1.6.3h-.6l-.5-.2-.1-.5v-.3l.2-.2.5-.2 1-.2h1q1.4 0 2 .5.8.5.8 1.5v3h.3q.5 0 .7.2.2.2.2.5t-.2.5q-.2.2-.7.2H44Zm0-2.5-1.5-.2q-.9 0-1.5.4-.4.3-.4.6 0 .2.2.3.3.2 1 .2l1-.2 1.2-.5v-.6Zm6.4-2.3v2.8q0 .5.2.6.3.2 1 .2 1 0 2-.4l.5-.2q.3 0 .5.2t.2.5q0 .3-.2.5-.3.3-1.3.6l-1.7.2q-1.3 0-2-.5-.6-.6-.6-1.4v-3.1h-.5q-.5 0-.7-.2-.2-.2-.2-.5t.2-.5q.2-.2.7-.2h.5v-1.3q0-.5.2-.7.2-.2.5-.2t.5.2q.2.2.2.7v1.3H53q.5 0 .7.2.2.2.2.5t-.2.5q-.2.2-.7.2h-2.6Zm8.9-4v1.4h-1.7v-1.5h1.7Zm.1 2.6v4.8h1.7q.5 0 .7.2.3.2.3.5t-.3.5q-.2.2-.7.2h-4.7q-.5 0-.8-.2-.2-.2-.2-.5t.2-.5q.3-.2.8-.2H58v-3.4h-1q-.6 0-.8-.2-.2-.2-.2-.5t.2-.5q.2-.2.7-.2h2.5Zm11 3.2q0 .8-.5 1.6-.4.7-1.3 1.2-.9.4-1.8.4-1 0-1.9-.4-.8-.5-1.3-1.2-.5-.8-.5-1.6t.5-1.7q.5-.8 1.3-1.2 1-.5 1.9-.5 1 0 1.8.5.9.5 1.3 1.3.5.8.5 1.6Zm-1.4 0q0-.7-.5-1.2-.7-.8-1.7-.8t-1.6.6q-.7.6-.7 1.4 0 .7.7 1.3.6.5 1.6.5t1.5-.5q.7-.6.7-1.3Zm4.3-3.2v.5q.4-.4.9-.5.4-.2 1-.2 1.2 0 2 .8.5.6.5 1.6v2.6q.5 0 .7.2.2.2.2.5t-.2.5q-.2.2-.7.2h-1.3q-.5 0-.7-.2-.2-.2-.2-.5t.2-.5q.2-.2.6-.2v-2.6q0-.5-.2-.7-.3-.3-1-.3-.5 0-.8.2l-1 .8v2.6l.7.1q.4.2.4.6 0 .3-.3.5-.2.2-.7.2H72q-.5 0-.7-.2-.2-.2-.2-.5 0-.4.3-.6l.7-.1v-3.4q-.4 0-.6-.2-.2-.2-.2-.5t.2-.5q.2-.2.7-.2h1.3Zm17 2.8q0-1.2.3-2.4.3-1 1-2l.6-1q.2-.2.5-.2t.5.2q.2.2.2.5l-.2.5q-.7 1.2-1 2.3-.4 1-.4 2 0 1.2.3 2.3l1.1 2.2.2.5q0 .3-.2.5t-.5.2q-.3 0-.5-.2l-.7-1-.9-2q-.3-1.3-.3-2.4Zm10-1.2-.8-.3H99q-.9 0-1.3.2-.2 0-.2.2t.3.3q.2.2 1 .2l1.9.4q.7.3 1 .8.5.5.5 1 0 .8-.7 1.3-1 .7-2.5.7h-1l-1-.4-.3.2h-.2q-.3 0-.5-.2t-.2-.7v-.5q0-.5.2-.7.2-.3.5-.3l.4.2q.2.1.3.5l.8.4 1 .1q1 0 1.5-.3.2-.1.2-.3 0-.3-.3-.5l-1.5-.2q-1.7-.2-2.3-.7-.5-.5-.5-1.3 0-.7.6-1.2.8-.7 2.3-.7l.9.1.8.3.3-.2h.2q.3 0 .5.2t.2.7v.4l-.1.6q-.3.3-.6.3t-.5-.2q-.2-.1-.2-.4Zm4.7 3.8v2.3h.8q.6 0 .8.2.2.2.2.5t-.2.5q-.2.2-.8.2h-2.4q-.5 0-.8-.2-.2-.2-.2-.5t.3-.5q.2-.2.7-.2h.2v-6.3h-.2q-.5 0-.8-.2-.2-.2-.2-.5t.2-.5q.3-.2.8-.2h1.6v.5q.5-.4 1-.5l1.1-.2q1.5 0 2.5 1t1 2.2q0 1.4-1.2 2.3-1 .8-2.3.8l-1-.2-1-.5Zm4.2-2.4q0-.3-.3-.7-.2-.5-.7-.8-.5-.3-1.1-.3-1 0-1.7.8-.4.5-.4 1 0 .6.6 1.1.6.6 1.5.6t1.5-.6q.6-.5.6-1Zm9 .8h-5.7q.2.6.8.9.5.3 1.5.3.8 0 2-.3l.8-.1q.3 0 .5.2.2.1.2.4 0 .3-.2.5-.3.3-1.4.5l-2 .2q-1.7 0-2.7-1-1-.9-1-2.3t1-2.4q1.2-.9 2.6-.9.9 0 1.6.3.7.3 1 .7l.9 1.2q.2.5.2 1.2v.6Zm-1.5-1.4q-.3-.6-.8-.9-.5-.3-1.3-.3-.7 0-1.2.3t-.8.9h4.1Zm9.6 1.4h-5.8q.2.6.8.9.5.3 1.5.3.8 0 2-.3l.8-.1q.3 0 .5.2.2.1.2.4 0 .3-.2.5-.3.3-1.4.5l-2 .2q-1.7 0-2.7-1-1-.9-1-2.3t1-2.4q1.2-.9 2.6-.9.9 0 1.6.3.7.3 1 .7l.9 1.2q.2.5.2 1.2v.6Zm-1.6-1.4q-.3-.6-.8-.9-.5-.3-1.3-.3-.7 0-1.2.3t-.8.9h4.1Zm9.3-5v7.4h.2q.5 0 .7.2.2.2.2.5t-.2.5q-.2.2-.7.2h-1.6V59l-1 .4-1.1.1q-1.6 0-2.6-.9t-1-2.3q0-1.4 1-2.4 1.1-1 2.6-1l1 .2q.6.1 1 .5v-1.8h-.2q-.5 0-.7-.2-.2-.2-.2-.5t.2-.5q.2-.2.7-.2h1.7Zm-1.4 5.9q0-.9-.6-1.5-.7-.6-1.5-.6-.9 0-1.5.6t-.6 1.5q0 .7.5 1.2.6.5 1.6.5t1.5-.5q.6-.5.6-1.2Zm16.2-6V56q.5 0 .7.2.2.2.2.5t-.2.5q-.3.2-.7.2v.6q.5 0 .7.2.2.2.2.5t-.2.5q-.3.2-.8.2H147q-.6 0-.8-.2-.2-.2-.2-.5t.2-.5q.2-.2.8-.2h.5v-.6h-3.8v-1.1l3.4-5.7h1.8Zm-1.4 5.5v-3.4l-2 3.4h2Zm8 0q0 1.2-.4 2.4-.3 1-1 2l-.6 1q-.2.2-.5.2t-.5-.2q-.2-.2-.2-.5l.2-.5q.7-1.2 1-2.3.4-1 .4-2.1 0-1-.4-2.1-.3-1.1-1-2.3l-.2-.5q0-.3.2-.5t.5-.2q.3 0 .5.2l.7 1 .9 2q.3 1.3.3 2.4Zm18.3 0h-5.9v-1.2h5.9V56Zm13.8-5.7V58h1.4q.5 0 .7.2.2.2.2.5t-.2.5q-.2.2-.7.2h-4.3q-.5 0-.7-.2-.2-.2-.2-.5t.2-.5q.2-.2.7-.2h1.5v-6l-1.3.4h-.4l-.5-.1-.2-.6.1-.4q.2-.2.7-.3l3-.8Zm10.3 3.9v1.5q0 1.4-.8 2.7-.8 1.2-2.2 1.2-.9 0-1.5-.4-.6-.3-1-1.3-.6-1-.6-2.2v-1.5q0-1.4.8-2.6.8-1.3 2.2-1.3.9 0 1.5.4t1 1.4q.6 1 .6 2.1Zm-1.4 0q0-1.1-.6-2-.4-.5-1-.5-.7 0-1 .5-.7.8-.7 2v1.5q0 1.2.6 2 .4.5 1 .5.7 0 1.1-.5.6-.8.6-2v-1.5Zm8.3.7q.6.4.8 1 .3.5.3 1.1 0 .7-.3 1.3-.4.6-1.1 1-.8.3-1.6.3-1 0-1.7-.3-.7-.4-1-1-.4-.6-.4-1.3 0-.6.3-1.1.3-.6.8-1-.5-.4-.7-1-.3-.4-.3-1 0-1 .8-1.8.9-.8 2.2-.8 1.3 0 2 .8.9.8.9 1.8 0 .6-.2 1.1l-.8 1Zm-.4-2q0-.4-.5-.8-.4-.4-1-.4-.8 0-1.2.4-.4.4-.4.9t.4.9q.5.3 1.2.3.6 0 1-.3.5-.4.5-1Zm.1 4.2q0-.5-.5-1-.4-.5-1.1-.5-.8 0-1.2.5-.5.5-.5 1t.4.8q.4.3 1.3.3.8 0 1.2-.3.4-.3.4-.8Zm9.4-2.9v1.5q0 1.4-.8 2.7-.8 1.2-2.2 1.2-.9 0-1.5-.4-.6-.3-1-1.3-.6-1-.6-2.2v-1.5q0-1.4.8-2.6.8-1.3 2.2-1.3.9 0 1.5.4t1 1.4q.6 1 .6 2.1Zm-1.4 0q0-1.1-.6-2-.4-.5-1-.5-.7 0-1 .5-.7.8-.7 2v1.5q0 1.2.6 2 .4.5 1 .5.7 0 1.1-.5.6-.8.6-2v-1.5Zm4.6 4.4v2.3h.8q.6 0 .8.2.2.2.2.5t-.2.5q-.2.2-.8.2h-2.4q-.5 0-.8-.2-.2-.2-.2-.5t.3-.5q.2-.2.7-.2h.2v-6.3h-.2q-.5 0-.8-.2-.2-.2-.2-.5t.2-.5q.3-.2.8-.2h1.6v.5q.5-.4 1-.5l1.1-.2q1.5 0 2.5 1t1 2.2q0 1.4-1.2 2.3-1 .8-2.3.8l-1-.2-1-.5Zm4.2-2.4q0-.3-.3-.7-.2-.5-.7-.8-.5-.3-1.1-.3-1 0-1.7.8-.4.5-.4 1 0 .6.6 1.1.6.6 1.5.6t1.5-.6q.6-.5.6-1Z"/><path fill="#bdbdbd" d="M12.1 59.3V59q-.5.3-1.2.4l-1.1.1q-1.1 0-1.8-.6t-.7-1.3q0-.9.9-1.6.9-.8 2.5-.8l1.4.2V55q0-.3-.3-.5-.2-.2-1-.2-.6 0-1.6.3h-.6l-.4-.2L8 54v-.3l.2-.2.5-.2 1-.2h1q1.4 0 2 .5.8.5.8 1.5V58h.3q.5 0 .7.2.2.2.2.5t-.2.5q-.2.2-.7.2H12Zm0-2.5-1.5-.2q-.9 0-1.5.4-.4.3-.4.6 0 .2.2.3.3.2 1 .2l1-.2 1.2-.5v-.6Zm5.3-3.7v.5q.4-.4.9-.5.4-.2 1-.2 1.2 0 2 .8.5.6.5 1.6v2.6q.5 0 .7.2.2.2.2.5t-.2.5q-.2.2-.7.2h-1.3q-.5 0-.7-.2-.2-.2-.2-.5t.2-.5q.2-.2.6-.2v-2.6q0-.5-.2-.7-.3-.3-1-.3-.5 0-.8.2l-1 .8v2.6l.7.1q.4.2.4.6 0 .3-.3.5-.2.2-.7.2H16q-.5 0-.7-.2-.2-.2-.2-.5 0-.4.3-.6l.7-.1v-3.4q-.4 0-.6-.2-.2-.2-.2-.5t.2-.5q.2-.2.7-.2h1.3Zm10-2.7V52h-1.7v-1.5h1.7Zm.1 2.7v4.8h1.7q.5 0 .7.2.3.2.3.5t-.3.5q-.2.2-.7.2h-4.7q-.5 0-.8-.2-.2-.2-.2-.5t.2-.5q.3-.2.8-.2H26v-3.4h-1q-.6 0-.8-.2-.2-.2-.2-.5t.2-.5q.2-.2.7-.2h2.5Zm5.2 0v.4l.6-.5.6-.1.7.1.5.5.8-.4q.3-.2.7-.2.8 0 1.3.4.6.6.6 1.5v3q.5 0 .7.3.2.2.2.5t-.2.5q-.2.2-.7.2H37v-4.9h-.9l-.6.7v2.8q.5 0 .7.2.2.2.2.5t-.2.5q-.2.2-.7.2h-1.4v-4.4l-.1-.5h-.8l-.6.7v2.8q.4 0 .6.2.3.2.3.5t-.3.5q-.2.2-.7.2h-1.2q-.5 0-.8-.2-.2-.2-.2-.5t.2-.5q.2-.2.7-.2v-3.4q-.5 0-.7-.2-.2-.2-.2-.5t.2-.5q.3-.2.8-.2h1.3ZM44 59.3V59q-.5.3-1.2.4l-1.1.1q-1.1 0-1.8-.6t-.7-1.3q0-.9.9-1.6.9-.8 2.4-.8l1.5.2V55q0-.3-.3-.5-.2-.2-1-.2-.6 0-1.6.3h-.6l-.5-.2-.1-.5v-.3l.2-.2.5-.2 1-.2h1q1.4 0 2 .5.8.5.8 1.5v3h.3q.5 0 .7.2.2.2.2.5t-.2.5q-.2.2-.7.2H44Zm0-2.5-1.5-.2q-.9 0-1.5.4-.4.3-.4.6 0 .2.2.3.3.2 1 .2l1-.2 1.2-.5v-.6Zm6.4-2.3v2.8q0 .5.2.6.3.2 1 .2 1 0 2-.4l.5-.2q.3 0 .5.2t.2.5q0 .3-.2.5-.3.3-1.3.6l-1.7.2q-1.3 0-2-.5-.6-.6-.6-1.4v-3.1h-.5q-.5 0-.7-.2-.2-.2-.2-.5t.2-.5q.2-.2.7-.2h.5v-1.3q0-.5.2-.7.2-.2.5-.2t.5.2q.2.2.2.7v1.3H53q.5 0 .7.2.2.2.2.5t-.2.5q-.2.2-.7.2h-2.6Zm8.9-4v1.4h-1.7v-1.5h1.7Zm.1 2.6v4.8h1.7q.5 0 .7.2.3.2.3.5t-.3.5q-.2.2-.7.2h-4.7q-.5 0-.8-.2-.2-.2-.2-.5t.2-.5q.3-.2.8-.2H58v-3.4h-1q-.6 0-.8-.2-.2-.2-.2-.5t.2-.5q.2-.2.7-.2h2.5Zm11 3.2q0 .8-.5 1.6-.4.7-1.3 1.2-.9.4-1.8.4-1 0-1.9-.4-.8-.5-1.3-1.2-.5-.8-.5-1.6t.5-1.7q.5-.8 1.3-1.2 1-.5 1.9-.5 1 0 1.8.5.9.5 1.3 1.3.5.8.5 1.6Zm-1.4 0q0-.7-.5-1.2-.7-.8-1.7-.8t-1.6.6q-.7.6-.7 1.4 0 .7.7 1.3.6.5 1.6.5t1.5-.5q.7-.6.7-1.3Zm4.3-3.2v.5q.4-.4.9-.5.4-.2 1-.2 1.2 0 2 .8.5.6.5 1.6v2.6q.5 0 .7.2.2.2.2.5t-.2.5q-.2.2-.7.2h-1.3q-.5 0-.7-.2-.2-.2-.2-.5t.2-.5q.2-.2.6-.2v-2.6q0-.5-.2-.7-.3-.3-1-.3-.5 0-.8.2l-1 .8v2.6l.7.1q.4.2.4.6 0 .3-.3.5-.2.2-.7.2H72q-.5 0-.7-.2-.2-.2-.2-.5 0-.4.3-.6l.7-.1v-3.4q-.4 0-.6-.2-.2-.2-.2-.5t.2-.5q.2-.2.7-.2h1.3Zm17 2.8q0-1.2.3-2.4.3-1 1-2l.6-1q.2-.2.5-.2t.5.2q.2.2.2.5l-.2.5q-.7 1.2-1 2.3-.4 1-.4 2 0 1.2.3 2.3l1.1 2.2.2.5q0 .3-.2.5t-.5.2q-.3 0-.5-.2l-.7-1-.9-2q-.3-1.3-.3-2.4Zm10-1.2-.8-.3H99q-.9 0-1.3.2-.2 0-.2.2t.3.3q.2.2 1 .2l1.9.4q.7.3 1 .8.5.5.5 1 0 .8-.7 1.3-1 .7-2.5.7h-1l-1-.4-.3.2h-.2q-.3 0-.5-.2t-.2-.7v-.5q0-.5.2-.7.2-.3.5-.3l.4.2q.2.1.3.5l.8.4 1 .1q1 0 1.5-.3.2-.1.2-.3 0-.3-.3-.5l-1.5-.2q-1.7-.2-2.3-.7-.5-.5-.5-1.3 0-.7.6-1.2.8-.7 2.3-.7l.9.1.8.3.3-.2h.2q.3 0 .5.2t.2.7v.4l-.1.6q-.3.3-.6.3t-.5-.2q-.2-.1-.2-.4Zm4.7 3.8v2.3h.8q.6 0 .8.2.2.2.2.5t-.2.5q-.2.2-.8.2h-2.4q-.5 0-.8-.2-.2-.2-.2-.5t.3-.5q.2-.2.7-.2h.2v-6.3h-.2q-.5 0-.8-.2-.2-.2-.2-.5t.2-.5q.3-.2.8-.2h1.6v.5q.5-.4 1-.5l1.1-.2q1.5 0 2.5 1t1 2.2q0 1.4-1.2 2.3-1 .8-2.3.8l-1-.2-1-.5Zm4.2-2.4q0-.3-.3-.7-.2-.5-.7-.8-.5-.3-1.1-.3-1 0-1.7.8-.4.5-.4 1 0 .6.6 1.1.6.6 1.5.6t1.5-.6q.6-.5.6-1Zm9 .8h-5.7q.2.6.8.9.5.3 1.5.3.8 0 2-.3l.8-.1q.3 0 .5.2.2.1.2.4 0 .3-.2.5-.3.3-1.4.5l-2 .2q-1.7 0-2.7-1-1-.9-1-2.3t1-2.4q1.2-.9 2.6-.9.9 0 1.6.3.7.3 1 .7l.9 1.2q.2.5.2 1.2v.6Zm-1.5-1.4q-.3-.6-.8-.9-.5-.3-1.3-.3-.7 0-1.2.3t-.8.9h4.1Zm9.6 1.4h-5.8q.2.6.8.9.5.3 1.5.3.8 0 2-.3l.8-.1q.3 0 .5.2.2.1.2.4 0 .3-.2.5-.3.3-1.4.5l-2 .2q-1.7 0-2.7-1-1-.9-1-2.3t1-2.4q1.2-.9 2.6-.9.9 0 1.6.3.7.3 1 .7l.9 1.2q.2.5.2 1.2v.6Zm-1.6-1.4q-.3-.6-.8-.9-.5-.3-1.3-.3-.7 0-1.2.3t-.8.9h4.1Zm9.3-5v7.4h.2q.5 0 .7.2.2.2.2.5t-.2.5q-.2.2-.7.2h-1.6V59l-1 .4-1.1.1q-1.6 0-2.6-.9t-1-2.3q0-1.4 1-2.4 1.1-1 2.6-1l1 .2q.6.1 1 .5v-1.8h-.2q-.5 0-.7-.2-.2-.2-.2-.5t.2-.5q.2-.2.7-.2h1.7Zm-1.4 5.9q0-.9-.6-1.5-.7-.6-1.5-.6-.9 0-1.5.6t-.6 1.5q0 .7.5 1.2.6.5 1.6.5t1.5-.5q.6-.5.6-1.2Zm16.2-6V56q.5 0 .7.2.2.2.2.5t-.2.5q-.3.2-.7.2v.6q.5 0 .7.2.2.2.2.5t-.2.5q-.3.2-.8.2H147q-.6 0-.8-.2-.2-.2-.2-.5t.2-.5q.2-.2.8-.2h.5v-.6h-3.8v-1.1l3.4-5.7h1.8Zm-1.4 5.5v-3.4l-2 3.4h2Zm8 0q0 1.2-.4 2.4-.3 1-1 2l-.6 1q-.2.2-.5.2t-.5-.2q-.2-.2-.2-.5l.2-.5q.7-1.2 1-2.3.4-1 .4-2.1 0-1-.4-2.1-.3-1.1-1-2.3l-.2-.5q0-.3.2-.5t.5-.2q.3 0 .5.2l.7 1 .9 2q.3 1.3.3 2.4Zm18.3 0h-5.9v-1.2h5.9V56Zm13.8-5.7V58h1.4q.5 0 .7.2.2.2.2.5t-.2.5q-.2.2-.7.2h-4.3q-.5 0-.7-.2-.2-.2-.2-.5t.2-.5q.2-.2.7-.2h1.5v-6l-1.3.4h-.4l-.5-.1-.2-.6.1-.4q.2-.2.7-.3l3-.8Zm10.3 3.9v1.5q0 1.4-.8 2.7-.8 1.2-2.2 1.2-.9 0-1.5-.4-.6-.3-1-1.3-.6-1-.6-2.2v-1.5q0-1.4.8-2.6.8-1.3 2.2-1.3.9 0 1.5.4t1 1.4q.6 1 .6 2.1Zm-1.4 0q0-1.1-.6-2-.4-.5-1-.5-.7 0-1 .5-.7.8-.7 2v1.5q0 1.2.6 2 .4.5 1 .5.7 0 1.1-.5.6-.8.6-2v-1.5Zm8.3.7q.6.4.8 1 .3.5.3 1.1 0 .7-.3 1.3-.4.6-1.1 1-.8.3-1.6.3-1 0-1.7-.3-.7-.4-1-1-.4-.6-.4-1.3 0-.6.3-1.1.3-.6.8-1-.5-.4-.7-1-.3-.4-.3-1 0-1 .8-1.8.9-.8 2.2-.8 1.3 0 2 .8.9.8.9 1.8 0 .6-.2 1.1l-.8 1Zm-.4-2q0-.4-.5-.8-.4-.4-1-.4-.8 0-1.2.4-.4.4-.4.9t.4.9q.5.3 1.2.3.6 0 1-.3.5-.4.5-1Zm.1 4.2q0-.5-.5-1-.4-.5-1.1-.5-.8 0-1.2.5-.5.5-.5 1t.4.8q.4.3 1.3.3.8 0 1.2-.3.4-.3.4-.8Zm9.4-2.9v1.5q0 1.4-.8 2.7-.8 1.2-2.2 1.2-.9 0-1.5-.4-.6-.3-1-1.3-.6-1-.6-2.2v-1.5q0-1.4.8-2.6.8-1.3 2.2-1.3.9 0 1.5.4t1 1.4q.6 1 .6 2.1Zm-1.4 0q0-1.1-.6-2-.4-.5-1-.5-.7 0-1 .5-.7.8-.7 2v1.5q0 1.2.6 2 .4.5 1 .5.7 0 1.1-.5.6-.8.6-2v-1.5Zm4.6 4.4v2.3h.8q.6 0 .8.2.2.2.2.5t-.2.5q-.2.2-.8.2h-2.4q-.5 0-.8-.2-.2-.2-.2-.5t.3-.5q.2-.2.7-.2h.2v-6.3h-.2q-.5 0-.8-.2-.2-.2-.2-.5t.2-.5q.3-.2.8-.2h1.6v.5q.5-.4 1-.5l1.1-.2q1.5 0 2.5 1t1 2.2q0 1.4-1.2 2.3-1 .8-2.3.8l-1-.2-1-.5Zm4.2-2.4q0-.3-.3-.7-.2-.5-.7-.8-.5-.3-1.1-.3-1 0-1.7.8-.4.5-.4 1 0 .6.6 1.1.6.6 1.5.6t1.5-.6q.6-.5.6-1Z"/><path stroke="#242424" stroke-width="3" stroke-linejoin="round" stroke-linecap="round" d="M18.4 31.6V31q-1.2.6-2.5 1-1.4.3-2.5.3-2.4 0-4-1.3Q8 29.6 8 28q0-1.9 2-3.5t5.3-1.6q1.4 0 3.2.3v-.7q0-.7-.6-1.1-.6-.4-2.2-.4-1.4 0-3.5.5l-1.2.2q-.6 0-1-.5-.5-.4-.5-1 0-.4.2-.7.1-.3.4-.5l1.1-.4 2.3-.5 2-.2q2.9 0 4.4 1.3 1.6 1.2 1.6 3.3v6.1h.5q1 0 1.5.5.5.4.5 1 0 .7-.5 1.1-.5.4-1.5.4h-3.5Zm0-5.3q-1.8-.4-3.4-.4-1.8 0-3.1 1-.8.5-.8 1t.4.8q.7.4 2 .4 1 0 2.4-.4t2.5-1.1v-1.3ZM33.7 28l3.2-6.6q-1.2 0-1.5-.3-.8-.4-.8-1.3 0-.6.5-1t1.5-.4h4.2q1 0 1.5.4t.5 1q0 .7-.5 1.1-.4.5-1.5.5h-.5l-5 10.3H32l-5-10.3h-.5q-1 0-1.5-.5-.5-.4-.5-1 0-.7.5-1.1.5-.4 1.5-.4h4q1.2 0 1.6.4.5.4.5 1 0 .9-.7 1.3-.4.3-1.6.3l3.3 6.6Zm19-15.3v3.1h-3.6v-3.2h3.6Zm.4 5.7v10.3h3.6q1.1 0 1.6.4.4.4.4 1 0 .7-.4 1.1-.5.4-1.6.4H46.5q-1 0-1.5-.4t-.5-1q0-.7.5-1.1.4-.5 1.5-.5h3.6v-7.2h-2.4q-1 0-1.5-.5-.5-.4-.5-1 0-.7.5-1.1.4-.4 1.5-.4h5.4Zm19.3 13.3v-.8q-1.2.6-2.5 1-1.4.3-2.5.3-2.4 0-4-1.3Q62 29.6 62 28q0-1.9 2-3.5t5.3-1.6q1.4 0 3.2.3v-.7q0-.7-.6-1.1-.6-.4-2.2-.4-1.4 0-3.5.5l-1.2.2q-.6 0-1-.5-.5-.4-.5-1 0-.4.2-.7.1-.3.4-.5l1.1-.4 2.3-.5 2-.2q2.9 0 4.4 1.3 1.6 1.2 1.6 3.3v6.1h.5q1 0 1.5.5.5.4.5 1 0 .7-.5 1.1-.5.4-1.5.4h-3.5Zm0-5.4q-1.8-.4-3.4-.4-1.8 0-3.1 1-.8.5-.8 1t.4.8q.7.4 2 .4 1 0 2.4-.4t2.5-1.1v-1.3Zm14.5-5v6q0 1 .4 1.3.6.5 2.2.5 2.3 0 4.3-1 .7-.3 1.1-.3.6 0 1 .4.5.4.5 1 0 .7-.5 1-.7.8-2.8 1.4-2.1.5-3.6.5-2.8 0-4.2-1.2-1.4-1.2-1.4-3v-6.5h-1q-1.2 0-1.6-.5-.5-.4-.5-1 0-.7.5-1.1.4-.4 1.5-.4H84v-2.8q0-1 .4-1.5t1.1-.5q.7 0 1 .5.5.5.5 1.5v2.8h5.6q1 0 1.5.4t.5 1q0 .7-.5 1.1-.5.5-1.5.5H87Zm26.5 4q0 1.7-1 3.3-.9 1.6-2.8 2.6t-4 1q-2 0-3.9-1-1.8-1-2.8-2.6-1-1.6-1-3.4 0-1.8 1-3.5 1-1.8 2.9-2.8 1.8-1 3.9-1 2 0 4 1 1.8 1 2.8 2.8 1 1.7 1 3.5Zm-3 0q0-1.5-1-2.7-1.4-1.6-3.7-1.6-2 0-3.4 1.3t-1.4 3q0 1.4 1.4 2.6 1.4 1.2 3.4 1.2T109 28q1.3-1.2 1.3-2.6Zm12.6-7v2q2-1.4 3-1.9 1.1-.5 2-.5 1.5 0 2.9 1.1 1 .8 1 1.5t-.5 1.1q-.5.5-1 .5-.6 0-1.3-.6-.6-.5-1-.5-.7 0-2 .8-1.2.7-3 2.3v4.5h4.2q1 0 1.5.5.5.4.5 1 0 .7-.5 1.1-.4.4-1.5.4h-9q-1.1 0-1.6-.4t-.5-1q0-.7.5-1.1.5-.5 1.5-.5h1.8v-7.2h-1q-1.1 0-1.6-.5-.5-.4-.5-1 0-.7.5-1.1.5-.4 1.5-.4h4.1Zm36.7 9.7 3.2-6.6q-1.2 0-1.5-.3-.8-.4-.8-1.3 0-.6.5-1t1.6-.4h4q1.2 0 1.6.4.5.4.5 1 0 .7-.5 1.1-.4.5-1.5.5h-.5l-5 10.3H158l-5-10.3h-.4q-1.1 0-1.6-.5-.4-.4-.4-1 0-.7.4-1.1.5-.4 1.6-.4h4q1 0 1.5.4t.5 1q0 .9-.7 1.3-.4.3-1.6.3l3.3 6.6Zm32.9-15.3V19q.9-.6 1.8-.9 1-.3 2-.3 1.5 0 2.8.6 1.2.5 2 1.6.8 1.2.8 3v5.5q1.1 0 1.5.3.7.4.7 1.3 0 .6-.5 1-.4.4-1.5.4h-3.5q-1 0-1.5-.4-.4-.4-.4-1 0-.9.7-1.3.3-.3 1.5-.3v-5.4q0-1.1-.6-1.6-.7-.6-2-.6-1 0-1.8.4-.7.3-2 1.6v5.6q1.1 0 1.4.3.8.4.8 1.3 0 .6-.5 1t-1.5.4h-3.4q-1.1 0-1.6-.4t-.5-1q0-.9.8-1.3.3-.3 1.5-.3v-13h-.6q-1 0-1.5-.4t-.5-1q0-.7.5-1.1.4-.4 1.5-.4h3.6Zm23.8 19v-.8q-1.2.6-2.5 1-1.4.3-2.5.3-2.4 0-4-1.3-1.5-1.3-1.5-2.9 0-1.9 2-3.5t5.3-1.6q1.4 0 3.2.3v-.7q0-.7-.6-1.1-.6-.4-2.2-.4-1.4 0-3.5.5l-1.2.2q-.6 0-1-.5-.5-.4-.5-1 0-.4.2-.7.1-.3.4-.5l1.1-.4 2.3-.5 2-.2q2.9 0 4.4 1.3 1.6 1.2 1.6 3.3v6.1h.5q1 0 1.5.5.5.4.5 1 0 .7-.5 1.1-.5.4-1.5.4h-3.5Zm0-5.4q-1.8-.4-3.4-.4-1.8 0-3.1 1-.8.5-.8 1t.4.8q.7.4 2 .4 1 0 2.4-.4t2.5-1.1v-1.3Zm12.2-8v1q.8-.7 1.8-1 1-.4 2.2-.4 2.6 0 4.2 1.7 1.2 1.3 1.2 3.5v5.5q1 0 1.4.5.5.4.5 1 0 .7-.5 1.1-.5.4-1.5.4h-2.7q-1.1 0-1.6-.4-.4-.4-.4-1 0-.7.4-1.1.5-.5 1.4-.5V23q0-1-.5-1.5-.7-.5-2-.5-1.1 0-2 .4-.7.4-1.9 1.7v5.5q1.2 0 1.5.3.7.4.7 1.3 0 .6-.4 1-.5.4-1.6.4h-3.4q-1 0-1.5-.4t-.5-1q0-.9.7-1.3.3-.3 1.5-.3v-7.2q-1 0-1.4-.5-.5-.4-.5-1 0-.7.5-1.1.5-.4 1.6-.4h2.8Zm28-5.7v16h.5q1 0 1.5.5.5.4.5 1 0 .7-.5 1.1-.5.4-1.5.4h-3.6V31q-1 .6-2.1 1-1.1.2-2.3.2-3.4 0-5.5-2-2-1.9-2-4.8 0-3 2.1-5.2 2.2-2.2 5.3-2.2 1.2 0 2.3.4l2.2 1v-3.7h-.5q-1 0-1.5-.4t-.5-1q0-.7.5-1.1.4-.4 1.5-.4h3.5Zm-3 12.8q0-1.9-1.4-3.1Q251 21 249 21q-1.8 0-3.1 1.3-1.3 1.2-1.3 3 0 1.7 1.1 2.8 1.2 1 3.3 1 2.2 0 3.4-1 1.1-1 1.1-2.7Zm10.3-12.7v6.7q1-.7 2.2-1 1.1-.5 2.3-.5 3.1 0 5.3 2.2 2.2 2.2 2.2 5.2t-2.1 4.9q-2 2-5.5 2-1.2 0-2.3-.4-1.1-.3-2.1-.9v.8h-3.5q-1.1 0-1.6-.5-.5-.4-.5-1 0-.7.5-1.1.5-.5 1.6-.5h.5v-13h-.5q-1.1 0-1.6-.4t-.5-1q0-.7.5-1.1.5-.4 1.6-.4h3.5Zm9 12.7q0-1.9-1.4-3.1-1.3-1.3-3.1-1.3-2 0-3.2 1.3-1.3 1.2-1.3 3 0 1.7 1.1 2.8 1.2 1 3.4 1 2 0 3.3-1 1.1-1 1.1-2.7Zm12.1-7v1.8l3-1.8q1.1-.5 2-.5 1.5 0 2.9 1.1 1 .8 1 1.5t-.5 1.1q-.5.5-1 .5-.6 0-1.3-.6-.6-.5-1-.5-.7 0-2 .8-1.2.7-3 2.3v4.5h4.2q1 0 1.5.5.5.4.5 1 0 .7-.5 1.1-.4.4-1.5.4h-9q-1.2 0-1.6-.4-.5-.4-.5-1 0-.7.5-1.1.4-.5 1.5-.5h1.8v-7.2h-1q-1.1 0-1.6-.5-.5-.4-.5-1 0-.7.5-1.1.5-.4 1.5-.4h4.1Zm21.4 13.3v-.8q-1.2.6-2.5 1-1.4.3-2.5.3-2.4 0-4-1.3-1.5-1.3-1.5-2.9 0-1.9 2-3.5t5.3-1.6q1.4 0 3.2.3v-.7q0-.7-.6-1.1-.6-.4-2.2-.4-1.4 0-3.5.5l-1.2.2q-.6 0-1-.5-.5-.4-.5-1 0-.4.2-.7.1-.3.4-.5l1.1-.4 2.3-.5 2-.2q2.9 0 4.4 1.3 1.6 1.2 1.6 3.3v6.1h.5q1 0 1.5.5.5.4.5 1 0 .7-.5 1.1-.5.4-1.5.4h-3.5Zm0-5.4q-1.8-.4-3.4-.4-1.8 0-3.1 1-.8.5-.8 1t.4.8q.7.4 2 .4 1 0 2.4-.4t2.5-1.1v-1.3Zm12.8.3v5h-3.5q-1.1 0-1.6-.4-.4-.4-.4-1 0-.7.4-1.1.5-.5 1.6-.5h.5v-13h-.5q-1.1 0-1.6-.4-.4-.4-.4-1 0-.7.4-1.1.5-.4 1.6-.4h3.5v10l2.3-1.8q-.3-.6-.3-1 0-.7.4-1.1.5-.4 1.5-.4h3.5q1 0 1.5.4t.5 1q0 .7-.5 1.1-.4.5-1.5.5h-.9l-3.6 3 5 4.3h.8q1 0 1.5.4t.5 1q0 .7-.5 1.1-.4.4-1.5.4h-3.5q-1 0-1.5-.4t-.5-1q0-.6.5-1.2l-3.2-2.8-.5.4Zm28 0h-12.3q.4 1.1 1.6 1.8 1.2.7 3.3.7 1.6 0 4.4-.7l1.6-.3q.6 0 1 .4.4.5.4 1.1 0 .6-.4 1-.6.5-2.9 1t-4.4.5q-3.6 0-5.7-2-2.2-2-2.2-5 0-3.2 2.3-5.2 2.4-2 5.4-2 1.9 0 3.4.7 1.5.6 2.3 1.4 1 1 1.7 2.7.5 1 .5 2.5v1.3Zm-3.3-3q-.7-1.4-1.8-2-1.2-.6-2.7-.6-1.5 0-2.6.6t-1.8 2h8.9Z"/><path fill="#fff" d="M18.4 31.6V31q-1.2.6-2.5 1-1.4.3-2.5.3-2.4 0-4-1.3Q8 29.6 8 28q0-1.9 2-3.5t5.3-1.6q1.4 0 3.2.3v-.7q0-.7-.6-1.1-.6-.4-2.2-.4-1.4 0-3.5.5l-1.2.2q-.6 0-1-.5-.5-.4-.5-1 0-.4.2-.7.1-.3.4-.5l1.1-.4 2.3-.5 2-.2q2.9 0 4.4 1.3 1.6 1.2 1.6 3.3v6.1h.5q1 0 1.5.5.5.4.5 1 0 .7-.5 1.1-.5.4-1.5.4h-3.5Zm0-5.3q-1.8-.4-3.4-.4-1.8 0-3.1 1-.8.5-.8 1t.4.8q.7.4 2 .4 1 0 2.4-.4t2.5-1.1v-1.3ZM33.7 28l3.2-6.6q-1.2 0-1.5-.3-.8-.4-.8-1.3 0-.6.5-1t1.5-.4h4.2q1 0 1.5.4t.5 1q0 .7-.5 1.1-.4.5-1.5.5h-.5l-5 10.3H32l-5-10.3h-.5q-1 0-1.5-.5-.5-.4-.5-1 0-.7.5-1.1.5-.4 1.5-.4h4q1.2 0 1.6.4.5.4.5 1 0 .9-.7 1.3-.4.3-1.6.3l3.3 6.6Zm19-15.3v3.1h-3.6v-3.2h3.6Zm.4 5.7v10.3h3.6q1.1 0 1.6.4.4.4.4 1 0 .7-.4 1.1-.5.4-1.6.4H46.5q-1 0-1.5-.4t-.5-1q0-.7.5-1.1.4-.5 1.5-.5h3.6v-7.2h-2.4q-1 0-1.5-.5-.5-.4-.5-1 0-.7.5-1.1.4-.4 1.5-.4h5.4Zm19.3 13.3v-.8q-1.2.6-2.5 1-1.4.3-2.5.3-2.4 0-4-1.3Q62 29.6 62 28q0-1.9 2-3.5t5.3-1.6q1.4 0 3.2.3v-.7q0-.7-.6-1.1-.6-.4-2.2-.4-1.4 0-3.5.5l-1.2.2q-.6 0-1-.5-.5-.4-.5-1 0-.4.2-.7.1-.3.4-.5l1.1-.4 2.3-.5 2-.2q2.9 0 4.4 1.3 1.6 1.2 1.6 3.3v6.1h.5q1 0 1.5.5.5.4.5 1 0 .7-.5 1.1-.5.4-1.5.4h-3.5Zm0-5.4q-1.8-.4-3.4-.4-1.8 0-3.1 1-.8.5-.8 1t.4.8q.7.4 2 .4 1 0 2.4-.4t2.5-1.1v-1.3Zm14.5-5v6q0 1 .4 1.3.6.5 2.2.5 2.3 0 4.3-1 .7-.3 1.1-.3.6 0 1 .4.5.4.5 1 0 .7-.5 1-.7.8-2.8 1.4-2.1.5-3.6.5-2.8 0-4.2-1.2-1.4-1.2-1.4-3v-6.5h-1q-1.2 0-1.6-.5-.5-.4-.5-1 0-.7.5-1.1.4-.4 1.5-.4H84v-2.8q0-1 .4-1.5t1.1-.5q.7 0 1 .5.5.5.5 1.5v2.8h5.6q1 0 1.5.4t.5 1q0 .7-.5 1.1-.5.5-1.5.5H87Zm26.5 4q0 1.7-1 3.3-.9 1.6-2.8 2.6t-4 1q-2 0-3.9-1-1.8-1-2.8-2.6-1-1.6-1-3.4 0-1.8 1-3.5 1-1.8 2.9-2.8 1.8-1 3.9-1 2 0 4 1 1.8 1 2.8 2.8 1 1.7 1 3.5Zm-3 0q0-1.5-1-2.7-1.4-1.6-3.7-1.6-2 0-3.4 1.3t-1.4 3q0 1.4 1.4 2.6 1.4 1.2 3.4 1.2T109 28q1.3-1.2 1.3-2.6Zm12.6-7v2q2-1.4 3-1.9 1.1-.5 2-.5 1.5 0 2.9 1.1 1 .8 1 1.5t-.5 1.1q-.5.5-1 .5-.6 0-1.3-.6-.6-.5-1-.5-.7 0-2 .8-1.2.7-3 2.3v4.5h4.2q1 0 1.5.5.5.4.5 1 0 .7-.5 1.1-.4.4-1.5.4h-9q-1.1 0-1.6-.4t-.5-1q0-.7.5-1.1.5-.5 1.5-.5h1.8v-7.2h-1q-1.1 0-1.6-.5-.5-.4-.5-1 0-.7.5-1.1.5-.4 1.5-.4h4.1Zm36.7 9.7 3.2-6.6q-1.2 0-1.5-.3-.8-.4-.8-1.3 0-.6.5-1t1.6-.4h4q1.2 0 1.6.4.5.4.5 1 0 .7-.5 1.1-.4.5-1.5.5h-.5l-5 10.3H158l-5-10.3h-.4q-1.1 0-1.6-.5-.4-.4-.4-1 0-.7.4-1.1.5-.4 1.6-.4h4q1 0 1.5.4t.5 1q0 .9-.7 1.3-.4.3-1.6.3l3.3 6.6Zm32.9-15.3V19q.9-.6 1.8-.9 1-.3 2-.3 1.5 0 2.8.6 1.2.5 2 1.6.8 1.2.8 3v5.5q1.1 0 1.5.3.7.4.7 1.3 0 .6-.5 1-.4.4-1.5.4h-3.5q-1 0-1.5-.4-.4-.4-.4-1 0-.9.7-1.3.3-.3 1.5-.3v-5.4q0-1.1-.6-1.6-.7-.6-2-.6-1 0-1.8.4-.7.3-2 1.6v5.6q1.1 0 1.4.3.8.4.8 1.3 0 .6-.5 1t-1.5.4h-3.4q-1.1 0-1.6-.4t-.5-1q0-.9.8-1.3.3-.3 1.5-.3v-13h-.6q-1 0-1.5-.4t-.5-1q0-.7.5-1.1.4-.4 1.5-.4h3.6Zm23.8 19v-.8q-1.2.6-2.5 1-1.4.3-2.5.3-2.4 0-4-1.3-1.5-1.3-1.5-2.9 0-1.9 2-3.5t5.3-1.6q1.4 0 3.2.3v-.7q0-.7-.6-1.1-.6-.4-2.2-.4-1.4 0-3.5.5l-1.2.2q-.6 0-1-.5-.5-.4-.5-1 0-.4.2-.7.1-.3.4-.5l1.1-.4 2.3-.5 2-.2q2.9 0 4.4 1.3 1.6 1.2 1.6 3.3v6.1h.5q1 0 1.5.5.5.4.5 1 0 .7-.5 1.1-.5.4-1.5.4h-3.5Zm0-5.4q-1.8-.4-3.4-.4-1.8 0-3.1 1-.8.5-.8 1t.4.8q.7.4 2 .4 1 0 2.4-.4t2.5-1.1v-1.3Zm12.2-8v1q.8-.7 1.8-1 1-.4 2.2-.4 2.6 0 4.2 1.7 1.2 1.3 1.2 3.5v5.5q1 0 1.4.5.5.4.5 1 0 .7-.5 1.1-.5.4-1.5.4h-2.7q-1.1 0-1.6-.4-.4-.4-.4-1 0-.7.4-1.1.5-.5 1.4-.5V23q0-1-.5-1.5-.7-.5-2-.5-1.1 0-2 .4-.7.4-1.9 1.7v5.5q1.2 0 1.5.3.7.4.7 1.3 0 .6-.4 1-.5.4-1.6.4h-3.4q-1 0-1.5-.4t-.5-1q0-.9.7-1.3.3-.3 1.5-.3v-7.2q-1 0-1.4-.5-.5-.4-.5-1 0-.7.5-1.1.5-.4 1.6-.4h2.8Zm28-5.7v16h.5q1 0 1.5.5.5.4.5 1 0 .7-.5 1.1-.5.4-1.5.4h-3.6V31q-1 .6-2.1 1-1.1.2-2.3.2-3.4 0-5.5-2-2-1.9-2-4.8 0-3 2.1-5.2 2.2-2.2 5.3-2.2 1.2 0 2.3.4l2.2 1v-3.7h-.5q-1 0-1.5-.4t-.5-1q0-.7.5-1.1.4-.4 1.5-.4h3.5Zm-3 12.8q0-1.9-1.4-3.1Q251 21 249 21q-1.8 0-3.1 1.3-1.3 1.2-1.3 3 0 1.7 1.1 2.8 1.2 1 3.3 1 2.2 0 3.4-1 1.1-1 1.1-2.7Zm10.3-12.7v6.7q1-.7 2.2-1 1.1-.5 2.3-.5 3.1 0 5.3 2.2 2.2 2.2 2.2 5.2t-2.1 4.9q-2 2-5.5 2-1.2 0-2.3-.4-1.1-.3-2.1-.9v.8h-3.5q-1.1 0-1.6-.5-.5-.4-.5-1 0-.7.5-1.1.5-.5 1.6-.5h.5v-13h-.5q-1.1 0-1.6-.4t-.5-1q0-.7.5-1.1.5-.4 1.6-.4h3.5Zm9 12.7q0-1.9-1.4-3.1-1.3-1.3-3.1-1.3-2 0-3.2 1.3-1.3 1.2-1.3 3 0 1.7 1.1 2.8 1.2 1 3.4 1 2 0 3.3-1 1.1-1 1.1-2.7Zm12.1-7v1.8l3-1.8q1.1-.5 2-.5 1.5 0 2.9 1.1 1 .8 1 1.5t-.5 1.1q-.5.5-1 .5-.6 0-1.3-.6-.6-.5-1-.5-.7 0-2 .8-1.2.7-3 2.3v4.5h4.2q1 0 1.5.5.5.4.5 1 0 .7-.5 1.1-.4.4-1.5.4h-9q-1.2 0-1.6-.4-.5-.4-.5-1 0-.7.5-1.1.4-.5 1.5-.5h1.8v-7.2h-1q-1.1 0-1.6-.5-.5-.4-.5-1 0-.7.5-1.1.5-.4 1.5-.4h4.1Zm21.4 13.3v-.8q-1.2.6-2.5 1-1.4.3-2.5.3-2.4 0-4-1.3-1.5-1.3-1.5-2.9 0-1.9 2-3.5t5.3-1.6q1.4 0 3.2.3v-.7q0-.7-.6-1.1-.6-.4-2.2-.4-1.4 0-3.5.5l-1.2.2q-.6 0-1-.5-.5-.4-.5-1 0-.4.2-.7.1-.3.4-.5l1.1-.4 2.3-.5 2-.2q2.9 0 4.4 1.3 1.6 1.2 1.6 3.3v6.1h.5q1 0 1.5.5.5.4.5 1 0 .7-.5 1.1-.5.4-1.5.4h-3.5Zm0-5.4q-1.8-.4-3.4-.4-1.8 0-3.1 1-.8.5-.8 1t.4.8q.7.4 2 .4 1 0 2.4-.4t2.5-1.1v-1.3Zm12.8.3v5h-3.5q-1.1 0-1.6-.4-.4-.4-.4-1 0-.7.4-1.1.5-.5 1.6-.5h.5v-13h-.5q-1.1 0-1.6-.4-.4-.4-.4-1 0-.7.4-1.1.5-.4 1.6-.4h3.5v10l2.3-1.8q-.3-.6-.3-1 0-.7.4-1.1.5-.4 1.5-.4h3.5q1 0 1.5.4t.5 1q0 .7-.5 1.1-.4.5-1.5.5h-.9l-3.6 3 5 4.3h.8q1 0 1.5.4t.5 1q0 .7-.5 1.1-.4.4-1.5.4h-3.5q-1 0-1.5-.4t-.5-1q0-.6.5-1.2l-3.2-2.8-.5.4Zm28 0h-12.3q.4 1.1 1.6 1.8 1.2.7 3.3.7 1.6 0 4.4-.7l1.6-.3q.6 0 1 .4.4.5.4 1.1 0 .6-.4 1-.6.5-2.9 1t-4.4.5q-3.6 0-5.7-2-2.2-2-2.2-5 0-3.2 2.3-5.2 2.4-2 5.4-2 1.9 0 3.4.7 1.5.6 2.3 1.4 1 1 1.7 2.7.5 1 .5 2.5v1.3Zm-3.3-3q-.7-1.4-1.8-2-1.2-.6-2.7-.6-1.5 0-2.6.6t-1.8 2h8.9Z"/></svg>