<svg fill="none" stroke-linecap="square" stroke-miterlimit="10" width="798" height="816" xmlns="http://www.w3.org/2000/svg"><path fill="#242424" d="M0 0h798v816H0V0Z"/><path stroke="#303030" stroke-linecap="butt" d="M37.5.5v816m117-816v816m272-816v816m117-816v816m-543-68h798m-798-68h798m-798-68h798m-798-136h798m-798-68h798m-798-68h798m-798-136h798m-798-69h798m-798-68h798"/><clipPath id="a"><path d="M0 0h798v816H0V0Z"/></clipPath><path stroke="#e01b24" stroke-width="2" stroke-linecap="butt" clip-path="url(#a)" d="M734.5 40.8s-90.8 41.8-125.5 58c-34.7 16-82.5 38.8-104.1 48.5C483.3 157 460.3 166 440 175c-20.2 9.2-40.4 17.6-60.6 29a681.5 681.5 0 0 0-72.6 47c-23.9 18-71.6 62-71.6 62"/><path stroke="#63452c" stroke-width="2" stroke-linecap="butt" clip-path="url(#a)" d="M734.5 77.1s-90.8 30-125.5 43a2516.8 2516.8 0 0 0-104.1 42 981.2 981.2 0 0 0-64.8 30 630.4 630.4 0 0 0-60.6 35.7 752.1 752.1 0 0 0-72.6 55.4c-23.9 21-71.6 71.9-71.6 71.9"/><path stroke="#3a3a3a" stroke-width="2" stroke-linecap="butt" clip-path="url(#a)" d="M756.5 45.4s-60.3 28.4-90.5 42c-30.2 13.4-87.7 36.8-131.5 56.5-43.8 19.8-115.2 48.8-160.5 75.7-45.2 26.9-96.6 58.3-135.6 97.3a764 764 0 0 0-117 150C82.4 531.7 4 705.8 4 705.8"/><path clip-path="url(#a)" d="M737.5 40.8a3 3 0 1 1-6 0 3 3 0 0 1 6 0ZM612 98.7a3 3 0 1 1-6 0 3 3 0 0 1 6 0Zm-104.1 48.6a3 3 0 1 1-6 0 3 3 0 0 1 6 0ZM443 175.1a3 3 0 1 1-6 0 3 3 0 0 1 6 0ZM382.5 204a3 3 0 1 1-6 0 3 3 0 0 1 6 0ZM310 251a3 3 0 1 1-6 0 3 3 0 0 1 6 0Zm-71.7 62.1a3 3 0 1 1-6 0 3 3 0 0 1 6 0Zm499.2-236a3 3 0 1 1-6 0 3 3 0 0 1 6 0ZM612 120a3 3 0 1 1-6 0 3 3 0 0 1 6 0Zm-104.1 42a3 3 0 1 1-6 0 3 3 0 0 1 6 0ZM443 192a3 3 0 1 1-6 0 3 3 0 0 1 6 0Zm-60.5 35.8a3 3 0 1 1-6 0 3 3 0 0 1 6 0ZM310 283.2a3 3 0 1 1-6 0 3 3 0 0 1 6 0ZM238.3 355a3 3 0 1 1-6 0 3 3 0 0 1 6 0ZM759.5 45.4a3 3 0 1 1-6 0 3 3 0 0 1 6 0ZM669 87.3a3 3 0 1 1-6 0 3 3 0 0 1 6 0ZM537.5 144a3 3 0 1 1-6 0 3 3 0 0 1 6 0ZM377 219.6a3 3 0 1 1-6 0 3 3 0 0 1 6 0Z"/><path clip-path="url(#a)" d="M241.4 317a3 3 0 1 1-6 0 3 3 0 0 1 6 0Zm-117 150a3 3 0 1 1-6 0 3 3 0 0 1 6 0ZM7 705.7a3 3 0 1 1-6 0 3 3 0 0 1 6 0Z"/><path stroke="#242424" stroke-width="3" stroke-linejoin="round" stroke-linecap="round" d="M596.1 10.4V13l.9-.4 1-.2q1.2 0 2 .9.9.8.9 2t-.8 2q-.8.8-2.2.8l-1-.2q-.4 0-.8-.3v.3h-1.4q-.4 0-.6-.2-.2-.1-.2-.4 0-.3.2-.5l.6-.1h.2v-5.2h-.2q-.4 0-.6-.2l-.2-.4q0-.3.2-.4.2-.2.6-.2h1.4Zm3.6 5q0-.7-.5-1.2t-1.3-.5q-.8 0-1.3.5t-.5 1.3q0 .6.5 1 .5.5 1.3.5.9 0 1.3-.5.5-.4.5-1Zm5.4-5v1.3h-1.5v-1.3h1.5Zm.1 2.3v4h1.5q.4 0 .6.2.2.2.2.5t-.2.4q-.2.2-.6.2h-4.1q-.5 0-.6-.2-.2-.1-.2-.4 0-.3.2-.5l.6-.1h1.4v-3h-1l-.6-.1-.2-.4q0-.3.2-.5l.7-.1h2.1Zm6.1 1.2v2.4q0 .4.2.5.2.2.9.2.9 0 1.7-.4l.4-.2q.3 0 .4.2l.2.4q0 .3-.2.4-.3.3-1.1.5-.9.3-1.4.3-1.2 0-1.7-.5-.6-.5-.6-1.2v-2.6h-.4q-.4 0-.6-.2l-.2-.4q0-.3.2-.5l.6-.1h.4v-1.1q0-.5.2-.6l.4-.2q.3 0 .5.2l.1.6v1h2.3q.4 0 .6.2l.1.5-.1.4q-.2.2-.6.2h-2.3Zm7-1.2v.7l1.3-.7.8-.2q.6 0 1.1.4.4.3.4.6t-.2.5l-.4.2q-.2 0-.5-.3l-.4-.2q-.3 0-.8.3l-1.2 1v1.8h1.7l.6.1q.2.2.2.5t-.2.4q-.2.2-.6.2h-3.6q-.5 0-.7-.2l-.1-.4.1-.5.7-.1h.7v-3h-.5l-.6-.1-.2-.4q0-.3.2-.5l.6-.1h1.7Zm8.4 5.3v-.3l-1 .4h-1q-1 0-1.6-.4-.6-.5-.6-1.2t.8-1.4q.8-.6 2.1-.6l1.3.1v-.3q0-.3-.2-.4-.3-.2-1-.2l-1.3.2-.5.1-.4-.2-.2-.4V13l.3-.2.4-.1 1-.2.8-.1q1 0 1.7.5.6.5.6 1.3v2.5h.2l.6.1q.2.2.2.5t-.2.4q-.2.2-.6.2h-1.4Zm0-2.2-1.3-.1q-.8 0-1.3.3-.3.3-.3.5l.1.3q.3.2.8.2l1-.2 1-.5v-.5Zm5.6-2v2.5q0 .4.2.5.2.2.9.2.9 0 1.7-.4l.4-.2q.3 0 .4.2l.2.4q0 .3-.2.4-.3.3-1.1.5-.9.3-1.4.3-1.2 0-1.7-.5-.6-.5-.6-1.2v-2.6h-.4q-.4 0-.6-.2l-.2-.4q0-.3.2-.5l.6-.1h.4v-1.1q0-.5.2-.6l.4-.2q.3 0 .5.2l.1.6v1h2.3q.4 0 .6.2l.1.5-.1.4q-.2.2-.6.2h-2.3Zm10.3 2.1h-4.9q.2.5.7.8.4.3 1.3.3.6 0 1.7-.3l.7-.1.4.1.1.5-.1.4-1.2.4-1.7.2q-1.5 0-2.3-.8-.9-.9-.9-2 0-1.3 1-2.1.9-.8 2-.8.8 0 1.4.3.7.2 1 .5.4.4.6 1 .2.5.2 1.1v.5Zm-1.3-1.2q-.3-.5-.7-.7-.5-.3-1-.3-.7 0-1.1.3-.5.2-.8.7h3.6Zm11.9.4q0-1 .3-2.1l.8-1.7.6-.9.4-.1.4.1q.2.2.2.5l-.2.4q-.6 1-.9 2-.3.8-.3 1.8 0 .9.3 1.8.3 1 1 2v.8l-.5.2-.4-.2-.6-1-.8-1.6q-.3-1-.3-2Zm6.4.9v2h-1.4q-.4 0-.6-.2-.2-.1-.2-.4 0-.3.2-.5l.6-.1h.2v-5.2h-.2q-.4 0-.6-.2l-.2-.4q0-.3.2-.4.2-.2.6-.2h1.4v4l1-.7-.2-.4q0-.3.2-.5l.6-.1h1.4l.6.1q.2.2.2.5l-.2.4q-.2.2-.6.2h-.3l-1.5 1.1 2 1.8h.3l.6.1q.2.2.2.5t-.2.4q-.1.2-.6.2h-1.4q-.4 0-.6-.2-.2-.1-.2-.4l.2-.5-1.2-1.1-.3.2Zm6.5-5.6V13l.9-.4 1-.2q1.2 0 2 .9.9.8.9 2t-.8 2q-.8.8-2.2.8l-1-.2q-.4 0-.8-.3v.3h-1.4q-.4 0-.6-.2-.2-.1-.2-.4 0-.3.2-.5l.6-.1h.2v-5.2h-.2q-.4 0-.6-.2l-.2-.4q0-.3.2-.4.2-.2.6-.2h1.4Zm3.6 5q0-.7-.5-1.2t-1.3-.5q-.8 0-1.3.5t-.5 1.3q0 .6.5 1 .5.5 1.3.5.9 0 1.3-.5.5-.4.5-1Zm7.4-4.9-3.8 8.3-.3.4-.4.2-.4-.2-.2-.4.1-.5 4-8.3q0-.3.2-.4h.8l.1.5-.1.4Zm5.8 3.6-.6-.3-.7-.1q-.7 0-1 .2-.3.1-.3.3l.3.2.8.2 1.7.3q.6.2 1 .7.3.4.3.9 0 .6-.6 1-.8.7-2.1.7l-1-.1-.8-.3-.2.1h-.2l-.4-.1q-.2-.2-.2-.6v-.4q0-.5.2-.6.1-.2.4-.2h.4l.2.5.7.4h.9q.8 0 1.2-.2.3-.1.3-.3 0-.2-.4-.3-.3-.2-1.2-.3-1.5-.1-2-.6-.5-.4-.5-1 0-.7.6-1.1.7-.6 2-.6h.7l.8.3.2-.1h.1l.4.1q.2.2.2.7v.8q-.3.3-.6.3l-.4-.2-.2-.3Zm6.2 1q0 1-.3 2L688 19l-.6.8q-.1.2-.3.2-.3 0-.5-.2l-.2-.4.2-.4q.6-1 .9-2 .3-.9.3-1.8 0-1-.3-1.9-.3-.9-1-2V11l.1-.5.5-.1.3.1q.3.2.7 1l.7 1.6q.3 1 .3 2Zm16-4.6-3.8 8.3-.3.4-.4.2-.4-.2-.2-.4.1-.5 4-8.3q0-.3.2-.4h.8l.1.5-.1.4Zm12.8 3.6-.6-.3-.7-.1q-.7 0-1 .2-.3.1-.3.3l.3.2.8.2 1.7.3q.6.2 1 .7.3.4.3.9 0 .6-.6 1-.8.7-2.1.7l-1-.1-.8-.3-.2.1h-.2l-.4-.1q-.2-.2-.2-.6v-.4q0-.5.2-.6.1-.2.4-.2h.4l.2.5.7.4h.9q.8 0 1.2-.2.3-.1.3-.3 0-.2-.4-.3-.3-.2-1.2-.3-1.5-.1-2-.6-.5-.4-.5-1 0-.7.6-1.1.7-.6 2-.6h.7l.8.3.2-.1h.1l.4.1q.2.2.2.7v.8q-.3.3-.6.3l-.4-.2-.2-.3Zm7 0-.6-.3-.7-.1q-.7 0-1 .2-.3.1-.3.3l.3.2.8.2 1.7.3q.6.2 1 .7.3.4.3.9 0 .6-.6 1-.8.7-2.1.7l-1-.1-.8-.3-.2.1h-.2l-.4-.1q-.2-.2-.2-.6v-.4q0-.5.2-.6.1-.2.4-.2h.4l.2.5.7.4h.9q.8 0 1.2-.2.3-.1.3-.3 0-.2-.4-.3-.3-.2-1.2-.3-1.5-.1-2-.6-.5-.4-.5-1 0-.7.6-1.1.7-.6 2-.6h.7l.8.3.2-.1h.1l.4.1q.2.2.2.7v.8q-.3.3-.6.3l-.4-.2-.2-.3Zm6.2-3.7v1.3h-1.5v-1.3h1.5Zm.1 2.3v4h1.5q.4 0 .6.2.2.2.2.5t-.2.4q-.2.2-.6.2h-4.1q-.5 0-.6-.2-.2-.1-.2-.4 0-.3.2-.5l.6-.1h1.4v-3h-1l-.6-.1-.2-.4q0-.3.2-.5l.7-.1h2.1Zm4.6 0v.3l.5-.4.5-.1.6.1.5.4.6-.4.7-.1q.6 0 1 .4.6.4.6 1.2v2.7l.5.1q.2.2.2.5t-.2.4q-.1.2-.6.2h-1.1v-3.8l-.1-.4-.3-.1-.4.1-.5.6v2.4l.5.1q.2.2.2.5t-.2.4q-.1.2-.6.2h-1.1v-3.8l-.1-.4-.3-.1-.4.1-.5.6v2.4l.5.1q.2.2.2.5t-.2.4q-.2.2-.6.2h-1q-.5 0-.7-.2-.2-.1-.2-.4 0-.3.2-.5l.6-.1v-3l-.6-.1-.2-.4q0-.3.2-.5l.6-.1h1.2Zm11.4 0v4q.4 0 .5.2.2.2.2.5t-.2.4q-.1.2-.6.2H746v-.3l-1 .3-.9.2q-.6 0-1-.3-.5-.2-.7-.7-.2-.3-.2-.8V14h-.2q-.4 0-.6-.2l-.2-.4q0-.3.2-.5l.6-.1h1.4v3.5q0 .4.2.6.2.2.6.2l.7-.2q.5-.1 1-.5V14h-.4q-.4 0-.6-.2l-.2-.4q0-.3.2-.5l.6-.1h1.7Zm5-2.3v6.4h1.5l.6.1q.2.2.2.5t-.2.4q-.2.2-.6.2h-4.1q-.5 0-.6-.2-.2-.1-.2-.4 0-.3.2-.5l.6-.1h1.4v-5.2h-1q-.4 0-.6-.2l-.1-.4.1-.4q.2-.2.7-.2h2.1Zm7.5 7.6v-.3l-1 .4h-1q-1 0-1.6-.4-.6-.5-.6-1.2t.8-1.4q.8-.6 2.1-.6l1.3.1v-.3q0-.3-.2-.4-.3-.2-1-.2l-1.3.2-.5.1-.4-.2-.2-.4V13l.3-.2.4-.1 1-.2.8-.1q1 0 1.7.5.6.5.6 1.3v2.5h.2l.6.1q.2.2.2.5t-.2.4q-.2.2-.6.2h-1.4Zm0-2.2-1.3-.1q-.8 0-1.3.3-.3.3-.3.5l.1.3q.3.2.8.2l1-.2 1-.5v-.5Zm7.8-3 .4-.1q.3 0 .5.2l.1.6v.7l-.1.7-.5.1-.4-.1-.2-.4q0-.4-.3-.5-.5-.3-1.2-.3-.9 0-1.4.5-.5.5-.5 1.3 0 .7.5 1 .5.5 1.6.5.8 0 1.2-.2.3 0 .6-.3l.4-.2q.3 0 .4.2.2.1.2.4 0 .4-.5.8-.8.5-2.4.5-1.4 0-2.2-.6-1-.8-1-2.1t.8-2.2q.9-.8 2.3-.8h.9l.8.4Zm4.9-.1v.7l1.2-.7.8-.2q.6 0 1.1.4.4.3.4.6t-.2.5l-.4.2q-.2 0-.5-.3l-.4-.2q-.3 0-.8.3l-1.2 1v1.8h1.7l.6.1q.2.2.2.5t-.2.4q-.2.2-.6.2h-3.6q-.5 0-.7-.2l-.1-.4.1-.5.7-.1h.7v-3h-.5l-.6-.1-.2-.4q0-.3.2-.5l.6-.1h1.7Zm8.3 5.3v-.3l-1 .4h-1q-1 0-1.6-.4-.6-.5-.6-1.2t.8-1.4q.8-.6 2.1-.6l1.3.1v-.3q0-.3-.2-.4-.3-.2-1-.2l-1.3.2-.5.1-.4-.2-.2-.4V13l.3-.2.4-.1 1-.2.8-.1q1 0 1.7.5.6.5.6 1.3v2.5h.2l.6.1q.2.2.2.5t-.2.4q-.2.2-.6.2h-1.4Zm0-2.2-1.3-.1q-.8 0-1.3.3-.3.3-.3.5l.1.3q.3.2.8.2l1-.2 1-.5v-.5Zm4.8 1h2.6l.4-.2q.3 0 .5.2l.1.6v.6h-5.4v-1.3l3.9-3.4q.3-.4.3-.8t-.4-.8q-.3-.3-1-.3-.6 0-1 .4-.3.2-.4.6l-.2.3-.4.1-.4-.1q-.2-.2-.2-.5t.3-.8q.4-.6 1-.9.6-.3 1.3-.3 1.2 0 1.9.7t.7 1.7q0 .5-.2.9t-1 1.2l-2.4 2Z"/><path fill="#f3f3f3" d="M596.1 10.4V13l.9-.4 1-.2q1.2 0 2 .9.9.8.9 2t-.8 2q-.8.8-2.2.8l-1-.2q-.4 0-.8-.3v.3h-1.4q-.4 0-.6-.2-.2-.1-.2-.4 0-.3.2-.5l.6-.1h.2v-5.2h-.2q-.4 0-.6-.2l-.2-.4q0-.3.2-.4.2-.2.6-.2h1.4Zm3.6 5q0-.7-.5-1.2t-1.3-.5q-.8 0-1.3.5t-.5 1.3q0 .6.5 1 .5.5 1.3.5.9 0 1.3-.5.5-.4.5-1Zm5.4-5v1.3h-1.5v-1.3h1.5Zm.1 2.3v4h1.5q.4 0 .6.2.2.2.2.5t-.2.4q-.2.2-.6.2h-4.1q-.5 0-.6-.2-.2-.1-.2-.4 0-.3.2-.5l.6-.1h1.4v-3h-1l-.6-.1-.2-.4q0-.3.2-.5l.7-.1h2.1Zm6.1 1.2v2.4q0 .4.2.5.2.2.9.2.9 0 1.7-.4l.4-.2q.3 0 .4.2l.2.4q0 .3-.2.4-.3.3-1.1.5-.9.3-1.4.3-1.2 0-1.7-.5-.6-.5-.6-1.2v-2.6h-.4q-.4 0-.6-.2l-.2-.4q0-.3.2-.5l.6-.1h.4v-1.1q0-.5.2-.6l.4-.2q.3 0 .5.2l.1.6v1h2.3q.4 0 .6.2l.1.5-.1.4q-.2.2-.6.2h-2.3Zm7-1.2v.7l1.3-.7.8-.2q.6 0 1.1.4.4.3.4.6t-.2.5l-.4.2q-.2 0-.5-.3l-.4-.2q-.3 0-.8.3l-1.2 1v1.8h1.7l.6.1q.2.2.2.5t-.2.4q-.2.2-.6.2h-3.6q-.5 0-.7-.2l-.1-.4.1-.5.7-.1h.7v-3h-.5l-.6-.1-.2-.4q0-.3.2-.5l.6-.1h1.7Zm8.4 5.3v-.3l-1 .4h-1q-1 0-1.6-.4-.6-.5-.6-1.2t.8-1.4q.8-.6 2.1-.6l1.3.1v-.3q0-.3-.2-.4-.3-.2-1-.2l-1.3.2-.5.1-.4-.2-.2-.4V13l.3-.2.4-.1 1-.2.8-.1q1 0 1.7.5.6.5.6 1.3v2.5h.2l.6.1q.2.2.2.5t-.2.4q-.2.2-.6.2h-1.4Zm0-2.2-1.3-.1q-.8 0-1.3.3-.3.3-.3.5l.1.3q.3.2.8.2l1-.2 1-.5v-.5Zm5.6-2v2.5q0 .4.2.5.2.2.9.2.9 0 1.7-.4l.4-.2q.3 0 .4.2l.2.4q0 .3-.2.4-.3.3-1.1.5-.9.3-1.4.3-1.2 0-1.7-.5-.6-.5-.6-1.2v-2.6h-.4q-.4 0-.6-.2l-.2-.4q0-.3.2-.5l.6-.1h.4v-1.1q0-.5.2-.6l.4-.2q.3 0 .5.2l.1.6v1h2.3q.4 0 .6.2l.1.5-.1.4q-.2.2-.6.2h-2.3Zm10.3 2.1h-4.9q.2.5.7.8.4.3 1.3.3.6 0 1.7-.3l.7-.1.4.1.1.5-.1.4-1.2.4-1.7.2q-1.5 0-2.3-.8-.9-.9-.9-2 0-1.3 1-2.1.9-.8 2-.8.8 0 1.4.3.7.2 1 .5.4.4.6 1 .2.5.2 1.1v.5Zm-1.3-1.2q-.3-.5-.7-.7-.5-.3-1-.3-.7 0-1.1.3-.5.2-.8.7h3.6Zm11.9.4q0-1 .3-2.1l.8-1.7.6-.9.4-.1.4.1q.2.2.2.5l-.2.4q-.6 1-.9 2-.3.8-.3 1.8 0 .9.3 1.8.3 1 1 2v.8l-.5.2-.4-.2-.6-1-.8-1.6q-.3-1-.3-2Zm6.4.9v2h-1.4q-.4 0-.6-.2-.2-.1-.2-.4 0-.3.2-.5l.6-.1h.2v-5.2h-.2q-.4 0-.6-.2l-.2-.4q0-.3.2-.4.2-.2.6-.2h1.4v4l1-.7-.2-.4q0-.3.2-.5l.6-.1h1.4l.6.1q.2.2.2.5l-.2.4q-.2.2-.6.2h-.3l-1.5 1.1 2 1.8h.3l.6.1q.2.2.2.5t-.2.4q-.1.2-.6.2h-1.4q-.4 0-.6-.2-.2-.1-.2-.4l.2-.5-1.2-1.1-.3.2Zm6.5-5.6V13l.9-.4 1-.2q1.2 0 2 .9.9.8.9 2t-.8 2q-.8.8-2.2.8l-1-.2q-.4 0-.8-.3v.3h-1.4q-.4 0-.6-.2-.2-.1-.2-.4 0-.3.2-.5l.6-.1h.2v-5.2h-.2q-.4 0-.6-.2l-.2-.4q0-.3.2-.4.2-.2.6-.2h1.4Zm3.6 5q0-.7-.5-1.2t-1.3-.5q-.8 0-1.3.5t-.5 1.3q0 .6.5 1 .5.5 1.3.5.9 0 1.3-.5.5-.4.5-1Zm7.4-4.9-3.8 8.3-.3.4-.4.2-.4-.2-.2-.4.1-.5 4-8.3q0-.3.2-.4h.8l.1.5-.1.4Zm5.8 3.6-.6-.3-.7-.1q-.7 0-1 .2-.3.1-.3.3l.3.2.8.2 1.7.3q.6.2 1 .7.3.4.3.9 0 .6-.6 1-.8.7-2.1.7l-1-.1-.8-.3-.2.1h-.2l-.4-.1q-.2-.2-.2-.6v-.4q0-.5.2-.6.1-.2.4-.2h.4l.2.5.7.4h.9q.8 0 1.2-.2.3-.1.3-.3 0-.2-.4-.3-.3-.2-1.2-.3-1.5-.1-2-.6-.5-.4-.5-1 0-.7.6-1.1.7-.6 2-.6h.7l.8.3.2-.1h.1l.4.1q.2.2.2.7v.8q-.3.3-.6.3l-.4-.2-.2-.3Zm6.2 1q0 1-.3 2L688 19l-.6.8q-.1.2-.3.2-.3 0-.5-.2l-.2-.4.2-.4q.6-1 .9-2 .3-.9.3-1.8 0-1-.3-1.9-.3-.9-1-2V11l.1-.5.5-.1.3.1q.3.2.7 1l.7 1.6q.3 1 .3 2Zm16-4.6-3.8 8.3-.3.4-.4.2-.4-.2-.2-.4.1-.5 4-8.3q0-.3.2-.4h.8l.1.5-.1.4Zm12.8 3.6-.6-.3-.7-.1q-.7 0-1 .2-.3.1-.3.3l.3.2.8.2 1.7.3q.6.2 1 .7.3.4.3.9 0 .6-.6 1-.8.7-2.1.7l-1-.1-.8-.3-.2.1h-.2l-.4-.1q-.2-.2-.2-.6v-.4q0-.5.2-.6.1-.2.4-.2h.4l.2.5.7.4h.9q.8 0 1.2-.2.3-.1.3-.3 0-.2-.4-.3-.3-.2-1.2-.3-1.5-.1-2-.6-.5-.4-.5-1 0-.7.6-1.1.7-.6 2-.6h.7l.8.3.2-.1h.1l.4.1q.2.2.2.7v.8q-.3.3-.6.3l-.4-.2-.2-.3Zm7 0-.6-.3-.7-.1q-.7 0-1 .2-.3.1-.3.3l.3.2.8.2 1.7.3q.6.2 1 .7.3.4.3.9 0 .6-.6 1-.8.7-2.1.7l-1-.1-.8-.3-.2.1h-.2l-.4-.1q-.2-.2-.2-.6v-.4q0-.5.2-.6.1-.2.4-.2h.4l.2.5.7.4h.9q.8 0 1.2-.2.3-.1.3-.3 0-.2-.4-.3-.3-.2-1.2-.3-1.5-.1-2-.6-.5-.4-.5-1 0-.7.6-1.1.7-.6 2-.6h.7l.8.3.2-.1h.1l.4.1q.2.2.2.7v.8q-.3.3-.6.3l-.4-.2-.2-.3Zm6.2-3.7v1.3h-1.5v-1.3h1.5Zm.1 2.3v4h1.5q.4 0 .6.2.2.2.2.5t-.2.4q-.2.2-.6.2h-4.1q-.5 0-.6-.2-.2-.1-.2-.4 0-.3.2-.5l.6-.1h1.4v-3h-1l-.6-.1-.2-.4q0-.3.2-.5l.7-.1h2.1Zm4.6 0v.3l.5-.4.5-.1.6.1.5.4.6-.4.7-.1q.6 0 1 .4.6.4.6 1.2v2.7l.5.1q.2.2.2.5t-.2.4q-.1.2-.6.2h-1.1v-3.8l-.1-.4-.3-.1-.4.1-.5.6v2.4l.5.1q.2.2.2.5t-.2.4q-.1.2-.6.2h-1.1v-3.8l-.1-.4-.3-.1-.4.1-.5.6v2.4l.5.1q.2.2.2.5t-.2.4q-.2.2-.6.2h-1q-.5 0-.7-.2-.2-.1-.2-.4 0-.3.2-.5l.6-.1v-3l-.6-.1-.2-.4q0-.3.2-.5l.6-.1h1.2Zm11.4 0v4q.4 0 .5.2.2.2.2.5t-.2.4q-.1.2-.6.2H746v-.3l-1 .3-.9.2q-.6 0-1-.3-.5-.2-.7-.7-.2-.3-.2-.8V14h-.2q-.4 0-.6-.2l-.2-.4q0-.3.2-.5l.6-.1h1.4v3.5q0 .4.2.6.2.2.6.2l.7-.2q.5-.1 1-.5V14h-.4q-.4 0-.6-.2l-.2-.4q0-.3.2-.5l.6-.1h1.7Zm5-2.3v6.4h1.5l.6.1q.2.2.2.5t-.2.4q-.2.2-.6.2h-4.1q-.5 0-.6-.2-.2-.1-.2-.4 0-.3.2-.5l.6-.1h1.4v-5.2h-1q-.4 0-.6-.2l-.1-.4.1-.4q.2-.2.7-.2h2.1Zm7.5 7.6v-.3l-1 .4h-1q-1 0-1.6-.4-.6-.5-.6-1.2t.8-1.4q.8-.6 2.1-.6l1.3.1v-.3q0-.3-.2-.4-.3-.2-1-.2l-1.3.2-.5.1-.4-.2-.2-.4V13l.3-.2.4-.1 1-.2.8-.1q1 0 1.7.5.6.5.6 1.3v2.5h.2l.6.1q.2.2.2.5t-.2.4q-.2.2-.6.2h-1.4Zm0-2.2-1.3-.1q-.8 0-1.3.3-.3.3-.3.5l.1.3q.3.2.8.2l1-.2 1-.5v-.5Zm7.8-3 .4-.1q.3 0 .5.2l.1.6v.7l-.1.7-.5.1-.4-.1-.2-.4q0-.4-.3-.5-.5-.3-1.2-.3-.9 0-1.4.5-.5.5-.5 1.3 0 .7.5 1 .5.5 1.6.5.8 0 1.2-.2.3 0 .6-.3l.4-.2q.3 0 .4.2.2.1.2.4 0 .4-.5.8-.8.5-2.4.5-1.4 0-2.2-.6-1-.8-1-2.1t.8-2.2q.9-.8 2.3-.8h.9l.8.4Zm4.9-.1v.7l1.2-.7.8-.2q.6 0 1.1.4.4.3.4.6t-.2.5l-.4.2q-.2 0-.5-.3l-.4-.2q-.3 0-.8.3l-1.2 1v1.8h1.7l.6.1q.2.2.2.5t-.2.4q-.2.2-.6.2h-3.6q-.5 0-.7-.2l-.1-.4.1-.5.7-.1h.7v-3h-.5l-.6-.1-.2-.4q0-.3.2-.5l.6-.1h1.7Zm8.3 5.3v-.3l-1 .4h-1q-1 0-1.6-.4-.6-.5-.6-1.2t.8-1.4q.8-.6 2.1-.6l1.3.1v-.3q0-.3-.2-.4-.3-.2-1-.2l-1.3.2-.5.1-.4-.2-.2-.4V13l.3-.2.4-.1 1-.2.8-.1q1 0 1.7.5.6.5.6 1.3v2.5h.2l.6.1q.2.2.2.5t-.2.4q-.2.2-.6.2h-1.4Zm0-2.2-1.3-.1q-.8 0-1.3.3-.3.3-.3.5l.1.3q.3.2.8.2l1-.2 1-.5v-.5Zm4.8 1h2.6l.4-.2q.3 0 .5.2l.1.6v.6h-5.4v-1.3l3.9-3.4q.3-.4.3-.8t-.4-.8q-.3-.3-1-.3-.6 0-1 .4-.3.2-.4.6l-.2.3-.4.1-.4-.1q-.2-.2-.2-.5t.3-.8q.4-.6 1-.9.6-.3 1.3-.3 1.2 0 1.9.7t.7 1.7q0 .5-.2.9t-1 1.2l-2.4 2Z"/><path stroke="#242424" stroke-width="3" stroke-linejoin="round" stroke-linecap="round" d="M12.2 551.5v1.4q0 1.1-.7 2.2-.6 1-1.9 1-.7 0-1.2-.2-.5-.4-1-1.2-.4-.9-.4-1.8v-1.4q0-1.1.7-2.2.6-1 1.9-1 .7 0 1.2.2.5.4 1 1.2.4.9.4 1.8Zm-1.2 0q0-1-.5-1.7-.3-.4-1-.4-.5 0-.8.5-.5.6-.5 1.6v1.4q0 1 .5 1.7.3.4 1 .4.5 0 .8-.5.5-.6.5-1.6v-1.4Z"/><path fill="#bdbdbd" d="M12.2 551.5v1.4q0 1.1-.7 2.2-.6 1-1.9 1-.7 0-1.2-.2-.5-.4-1-1.2-.4-.9-.4-1.8v-1.4q0-1.1.7-2.2.6-1 1.9-1 .7 0 1.2.2.5.4 1 1.2.4.9.4 1.8Zm-1.2 0q0-1-.5-1.7-.3-.4-1-.4-.5 0-.8.5-.5.6-.5 1.6v1.4q0 1 .5 1.7.3.4 1 .4.5 0 .8-.5.5-.6.5-1.6v-1.4Z"/><path stroke="#242424" stroke-width="3" stroke-linejoin="round" stroke-linecap="round" d="M8.6 277.6v1.4l1.2-.2q1.1 0 1.8.8.8.7.8 2 0 1.2-.8 1.9-.7.7-2.2.7-1.4 0-2.2-.5-.4-.3-.4-.7 0-.3.2-.4.1-.2.4-.2l.4.2.5.3h1q1 0 1.5-.3.4-.3.4-1 0-.8-.4-1.2-.4-.4-1-.4t-1.5.5H8l-.4-.1q-.2-.2-.2-.5v-3.5H11q.4 0 .6.2.2.1.2.4 0 .3-.2.5l-.6.1H8.6Zm10.6 2v1.3q0 1.1-.7 2.2-.6 1-1.9 1-.7 0-1.2-.2-.5-.4-1-1.2-.4-.9-.4-1.8v-1.4q0-1.1.7-2.2.6-1 1.9-1 .7 0 1.2.2.5.4 1 1.2.4.9.4 1.8Zm-1.2 0q0-1-.5-1.8-.3-.4-1-.4-.5 0-.8.5-.5.6-.5 1.6v1.4q0 1 .5 1.7.3.4 1 .4.5 0 .8-.5.5-.6.5-1.6v-1.4Z"/><path fill="#bdbdbd" d="M8.6 277.6v1.4l1.2-.2q1.1 0 1.8.8.8.7.8 2 0 1.2-.8 1.9-.7.7-2.2.7-1.4 0-2.2-.5-.4-.3-.4-.7 0-.3.2-.4.1-.2.4-.2l.4.2.5.3h1q1 0 1.5-.3.4-.3.4-1 0-.8-.4-1.2-.4-.4-1-.4t-1.5.5H8l-.4-.1q-.2-.2-.2-.5v-3.5H11q.4 0 .6.2.2.1.2.4 0 .3-.2.5l-.6.1H8.6Zm10.6 2v1.3q0 1.1-.7 2.2-.6 1-1.9 1-.7 0-1.2-.2-.5-.4-1-1.2-.4-.9-.4-1.8v-1.4q0-1.1.7-2.2.6-1 1.9-1 .7 0 1.2.2.5.4 1 1.2.4.9.4 1.8Zm-1.2 0q0-1-.5-1.8-.3-.4-1-.4-.5 0-.8.5-.5.6-.5 1.6v1.4q0 1 .5 1.7.3.4 1 .4.5 0 .8-.5.5-.6.5-1.6v-1.4Z"/><path stroke="#242424" stroke-width="3" stroke-linejoin="round" stroke-linecap="round" d="M26 799.1v2.4l.8-.2.7-.1q1 0 1.6.6.6.7.6 1.7 0 1.2-.7 2-.7.7-1.8.7-.7 0-1.3-.3l-.8-.6-.2-.3v-.2h.4q.9.9 2 .9.8 0 1.4-.6.5-.6.5-1.6 0-.8-.5-1.3t-1.2-.5q-.8 0-1.5.4h-.5v-3.5h3.4l.2.1.1.2v.2h-3.3Zm10.6 2.6v1.2q0 1.6-.8 2.6-.6.7-1.5.7l-.8-.2-.7-.5-.3-.6-.3-.8q-.2-.5-.2-1.2v-1.2q0-1.6.8-2.5.6-.7 1.5-.7l.8.1.7.5.3.7.3.7q.2.5.2 1.2Zm-.5 0-.2-1.2-.5-1q-.1-.2-.4-.3-.3-.2-.7-.2-.8 0-1.3.8-.5.9-.5 2v1q0 .8.2 1.4l.5 1 .4.3q.3.2.7.2.8 0 1.3-.9.5-.8.5-2v-1Zm7.5 0v1.2q0 1.6-.8 2.6-.6.7-1.5.7l-.8-.2-.7-.5-.3-.6-.3-.8q-.2-.5-.2-1.2v-1.2q0-1.6.8-2.5.6-.7 1.5-.7l.8.1.7.5.3.7.3.7q.2.5.2 1.2Zm-.5 0-.2-1.2-.5-1q-.1-.2-.4-.3-.3-.2-.7-.2-.8 0-1.3.8-.5.9-.5 2v1q0 .8.2 1.4l.5 1 .4.3q.3.2.7.2.8 0 1.3-.9.5-.8.5-2v-1Zm7.5 0v1.2q0 1.6-.8 2.6-.6.7-1.5.7l-.8-.2-.7-.5-.3-.6-.3-.8q-.2-.5-.2-1.2v-1.2q0-1.6.8-2.5.6-.7 1.5-.7l.8.1.7.5.3.7.3.7q.2.5.2 1.2Zm-.5 0-.2-1.2-.5-1q-.1-.2-.4-.3-.3-.2-.7-.2-.8 0-1.3.8-.5.9-.5 2v1q0 .8.2 1.4l.5 1 .4.3q.3.2.7.2.8 0 1.3-.9.5-.8.5-2v-1Z"/><path fill="#bdbdbd" d="M26 799.1v2.4l.8-.2.7-.1q1 0 1.6.6.6.7.6 1.7 0 1.2-.7 2-.7.7-1.8.7-.7 0-1.3-.3l-.8-.6-.2-.3v-.2h.4q.9.9 2 .9.8 0 1.4-.6.5-.6.5-1.6 0-.8-.5-1.3t-1.2-.5q-.8 0-1.5.4h-.5v-3.5h3.4l.2.1.1.2v.2h-3.3Zm10.6 2.6v1.2q0 1.6-.8 2.6-.6.7-1.5.7l-.8-.2-.7-.5-.3-.6-.3-.8q-.2-.5-.2-1.2v-1.2q0-1.6.8-2.5.6-.7 1.5-.7l.8.1.7.5.3.7.3.7q.2.5.2 1.2Zm-.5 0-.2-1.2-.5-1q-.1-.2-.4-.3-.3-.2-.7-.2-.8 0-1.3.8-.5.9-.5 2v1q0 .8.2 1.4l.5 1 .4.3q.3.2.7.2.8 0 1.3-.9.5-.8.5-2v-1Zm7.5 0v1.2q0 1.6-.8 2.6-.6.7-1.5.7l-.8-.2-.7-.5-.3-.6-.3-.8q-.2-.5-.2-1.2v-1.2q0-1.6.8-2.5.6-.7 1.5-.7l.8.1.7.5.3.7.3.7q.2.5.2 1.2Zm-.5 0-.2-1.2-.5-1q-.1-.2-.4-.3-.3-.2-.7-.2-.8 0-1.3.8-.5.9-.5 2v1q0 .8.2 1.4l.5 1 .4.3q.3.2.7.2.8 0 1.3-.9.5-.8.5-2v-1Zm7.5 0v1.2q0 1.6-.8 2.6-.6.7-1.5.7l-.8-.2-.7-.5-.3-.6-.3-.8q-.2-.5-.2-1.2v-1.2q0-1.6.8-2.5.6-.7 1.5-.7l.8.1.7.5.3.7.3.7q.2.5.2 1.2Zm-.5 0-.2-1.2-.5-1q-.1-.2-.4-.3-.3-.2-.7-.2-.8 0-1.3.8-.5.9-.5 2v1q0 .8.2 1.4l.5 1 .4.3q.3.2.7.2.8 0 1.3-.9.5-.8.5-2v-1Z"/><path stroke="#242424" stroke-width="3" stroke-linejoin="round" stroke-linecap="round" d="M141.2 798.5v7h1.8v.4l-.3.1h-4.1v-.4l.3-.1h1.7v-6.3l-1.6.5h-.4v-.3l.2-.1 2.3-.8Zm9 3.2v1.2q0 1.6-.8 2.6-.6.7-1.5.7l-.8-.2q-.4-.2-.6-.5l-.4-.6-.3-.8-.1-1.2v-1.2q0-1.6.7-2.5.6-.7 1.5-.7l.8.1.7.5.4.7.3.7v1.2Zm-.5 0-.2-1.2-.4-1-.4-.3-.8-.2q-.8 0-1.3.8-.5.9-.5 2v1q0 .8.2 1.4l.5 1 .4.3q.3.2.7.2.9 0 1.3-.9.5-.8.5-2v-1Zm7.5 0v1.2q0 1.6-.8 2.6-.6.7-1.5.7l-.8-.2q-.4-.2-.6-.5l-.4-.6-.3-.8-.1-1.2v-1.2q0-1.6.7-2.5.6-.7 1.5-.7l.8.1.7.5.4.7.3.7v1.2Zm-.5 0-.2-1.2-.4-1-.4-.3-.8-.2q-.8 0-1.3.8-.5.9-.5 2v1q0 .8.2 1.4l.5 1 .4.3q.3.2.7.2.9 0 1.3-.9.5-.8.5-2v-1Zm7.5 0v1.2q0 1.6-.8 2.6-.6.7-1.5.7l-.8-.2q-.4-.2-.6-.5l-.4-.6-.3-.8-.1-1.2v-1.2q0-1.6.7-2.5.6-.7 1.5-.7l.8.1.7.5.4.7.3.7v1.2Zm-.5 0-.2-1.2-.4-1-.4-.3-.8-.2q-.8 0-1.3.8-.5.9-.5 2v1q0 .8.2 1.4l.5 1 .4.3q.3.2.7.2.9 0 1.3-.9.5-.8.5-2v-1Zm7.5 0v1.2q0 1.6-.8 2.6-.6.7-1.5.7l-.8-.2q-.4-.2-.6-.5l-.4-.6-.3-.8-.1-1.2v-1.2q0-1.6.7-2.5.6-.7 1.5-.7l.8.1.7.5.4.7.3.7v1.2Zm-.5 0-.2-1.2-.4-1-.4-.3-.8-.2q-.8 0-1.3.8-.5.9-.5 2v1q0 .8.2 1.4l.5 1 .4.3q.3.2.7.2.9 0 1.3-.9.5-.8.5-2v-1Z"/><path fill="#bdbdbd" d="M141.2 798.5v7h1.8v.4l-.3.1h-4.1v-.4l.3-.1h1.7v-6.3l-1.6.5h-.4v-.3l.2-.1 2.3-.8Zm9 3.2v1.2q0 1.6-.8 2.6-.6.7-1.5.7l-.8-.2q-.4-.2-.6-.5l-.4-.6-.3-.8-.1-1.2v-1.2q0-1.6.7-2.5.6-.7 1.5-.7l.8.1.7.5.4.7.3.7v1.2Zm-.5 0-.2-1.2-.4-1-.4-.3-.8-.2q-.8 0-1.3.8-.5.9-.5 2v1q0 .8.2 1.4l.5 1 .4.3q.3.2.7.2.9 0 1.3-.9.5-.8.5-2v-1Zm7.5 0v1.2q0 1.6-.8 2.6-.6.7-1.5.7l-.8-.2q-.4-.2-.6-.5l-.4-.6-.3-.8-.1-1.2v-1.2q0-1.6.7-2.5.6-.7 1.5-.7l.8.1.7.5.4.7.3.7v1.2Zm-.5 0-.2-1.2-.4-1-.4-.3-.8-.2q-.8 0-1.3.8-.5.9-.5 2v1q0 .8.2 1.4l.5 1 .4.3q.3.2.7.2.9 0 1.3-.9.5-.8.5-2v-1Zm7.5 0v1.2q0 1.6-.8 2.6-.6.7-1.5.7l-.8-.2q-.4-.2-.6-.5l-.4-.6-.3-.8-.1-1.2v-1.2q0-1.6.7-2.5.6-.7 1.5-.7l.8.1.7.5.4.7.3.7v1.2Zm-.5 0-.2-1.2-.4-1-.4-.3-.8-.2q-.8 0-1.3.8-.5.9-.5 2v1q0 .8.2 1.4l.5 1 .4.3q.3.2.7.2.9 0 1.3-.9.5-.8.5-2v-1Zm7.5 0v1.2q0 1.6-.8 2.6-.6.7-1.5.7l-.8-.2q-.4-.2-.6-.5l-.4-.6-.3-.8-.1-1.2v-1.2q0-1.6.7-2.5.6-.7 1.5-.7l.8.1.7.5.4.7.3.7v1.2Zm-.5 0-.2-1.2-.4-1-.4-.3-.8-.2q-.8 0-1.3.8-.5.9-.5 2v1q0 .8.2 1.4l.5 1 .4.3q.3.2.7.2.9 0 1.3-.9.5-.8.5-2v-1Z"/><path stroke="#242424" stroke-width="3" stroke-linejoin="round" stroke-linecap="round" d="M411.5 799.1v2.4l.8-.2.8-.1q1 0 1.5.6.7.7.7 1.7 0 1.2-.8 2-.7.7-1.7.7-.7 0-1.3-.3l-.9-.6-.2-.3v-.2h.4q1 .9 2 .9.8 0 1.4-.6.6-.6.6-1.6 0-.8-.5-1.3t-1.3-.5q-.7 0-1.5.4h-.4l-.1-.2v-3.3h3.4l.3.1v.4h-3.2Zm10.6 2.6v1.2q0 1.6-.7 2.6-.6.7-1.5.7-.5 0-.9-.2l-.6-.5-.4-.6-.3-.8-.1-1.2v-1.2q0-1.6.7-2.5.6-.7 1.5-.7l.9.1.6.5.4.7.3.7.1 1.2Zm-.5 0-.2-1.2-.4-1-.4-.3q-.3-.2-.8-.2-.8 0-1.3.8-.4.9-.4 2v1q0 .8.2 1.4l.4 1 .4.3q.3.2.8.2.8 0 1.3-.9.4-.8.4-2v-1Zm7.5 0v1.2q0 1.6-.7 2.6-.6.7-1.5.7-.5 0-.9-.2l-.6-.5-.4-.6-.3-.8-.1-1.2v-1.2q0-1.6.7-2.5.6-.7 1.5-.7l.9.1.6.5.4.7.3.7.1 1.2Zm-.5 0-.2-1.2-.4-1-.4-.3q-.3-.2-.8-.2-.8 0-1.3.8-.4.9-.4 2v1q0 .8.2 1.4l.4 1 .4.3q.3.2.8.2.8 0 1.3-.9.4-.8.4-2v-1Zm7.5 0v1.2q0 1.6-.7 2.6-.6.7-1.5.7-.5 0-.9-.2l-.6-.5-.4-.6-.3-.8-.1-1.2v-1.2q0-1.6.7-2.5.6-.7 1.5-.7l.9.1.6.5.4.7.3.7.1 1.2Zm-.5 0-.2-1.2-.4-1-.4-.3q-.3-.2-.8-.2-.8 0-1.3.8-.4.9-.4 2v1q0 .8.2 1.4l.4 1 .4.3q.3.2.8.2.8 0 1.3-.9.4-.8.4-2v-1Zm7.5 0v1.2q0 1.6-.7 2.6-.6.7-1.5.7-.5 0-.9-.2l-.6-.5-.4-.6-.3-.8-.1-1.2v-1.2q0-1.6.7-2.5.6-.7 1.5-.7l.9.1.6.5.4.7.3.7.1 1.2Zm-.5 0-.2-1.2-.4-1-.4-.3q-.3-.2-.8-.2-.8 0-1.3.8-.4.9-.4 2v1q0 .8.2 1.4l.4 1 .4.3q.3.2.8.2.8 0 1.3-.9.4-.8.4-2v-1Z"/><path fill="#bdbdbd" d="M411.5 799.1v2.4l.8-.2.8-.1q1 0 1.5.6.7.7.7 1.7 0 1.2-.8 2-.7.7-1.7.7-.7 0-1.3-.3l-.9-.6-.2-.3v-.2h.4q1 .9 2 .9.8 0 1.4-.6.6-.6.6-1.6 0-.8-.5-1.3t-1.3-.5q-.7 0-1.5.4h-.4l-.1-.2v-3.3h3.4l.3.1v.4h-3.2Zm10.6 2.6v1.2q0 1.6-.7 2.6-.6.7-1.5.7-.5 0-.9-.2l-.6-.5-.4-.6-.3-.8-.1-1.2v-1.2q0-1.6.7-2.5.6-.7 1.5-.7l.9.1.6.5.4.7.3.7.1 1.2Zm-.5 0-.2-1.2-.4-1-.4-.3q-.3-.2-.8-.2-.8 0-1.3.8-.4.9-.4 2v1q0 .8.2 1.4l.4 1 .4.3q.3.2.8.2.8 0 1.3-.9.4-.8.4-2v-1Zm7.5 0v1.2q0 1.6-.7 2.6-.6.7-1.5.7-.5 0-.9-.2l-.6-.5-.4-.6-.3-.8-.1-1.2v-1.2q0-1.6.7-2.5.6-.7 1.5-.7l.9.1.6.5.4.7.3.7.1 1.2Zm-.5 0-.2-1.2-.4-1-.4-.3q-.3-.2-.8-.2-.8 0-1.3.8-.4.9-.4 2v1q0 .8.2 1.4l.4 1 .4.3q.3.2.8.2.8 0 1.3-.9.4-.8.4-2v-1Zm7.5 0v1.2q0 1.6-.7 2.6-.6.7-1.5.7-.5 0-.9-.2l-.6-.5-.4-.6-.3-.8-.1-1.2v-1.2q0-1.6.7-2.5.6-.7 1.5-.7l.9.1.6.5.4.7.3.7.1 1.2Zm-.5 0-.2-1.2-.4-1-.4-.3q-.3-.2-.8-.2-.8 0-1.3.8-.4.9-.4 2v1q0 .8.2 1.4l.4 1 .4.3q.3.2.8.2.8 0 1.3-.9.4-.8.4-2v-1Zm7.5 0v1.2q0 1.6-.7 2.6-.6.7-1.5.7-.5 0-.9-.2l-.6-.5-.4-.6-.3-.8-.1-1.2v-1.2q0-1.6.7-2.5.6-.7 1.5-.7l.9.1.6.5.4.7.3.7.1 1.2Zm-.5 0-.2-1.2-.4-1-.4-.3q-.3-.2-.8-.2-.8 0-1.3.8-.4.9-.4 2v1q0 .8.2 1.4l.4 1 .4.3q.3.2.8.2.8 0 1.3-.9.4-.8.4-2v-1Z"/><path stroke="#242424" stroke-width="3" stroke-linejoin="round" stroke-linecap="round" d="M526.7 798.5v7h1.9l.1.3v.1l-.3.1h-4.1v-.4l.2-.1h1.7v-6.3l-1.6.5h-.3v-.3l.2-.1 2.2-.8Zm9 3.2v1.2q0 1.6-.7 2.6-.6.7-1.5.7-.5 0-.9-.2l-.6-.5-.4-.6-.2-.8q-.2-.5-.2-1.2v-1.2q0-1.6.8-2.5.6-.7 1.5-.7l.8.1q.4.2.6.5l.4.7.3.7.1 1.2Zm-.5 0-.2-1.2-.4-1-.4-.3q-.3-.2-.7-.2-.9 0-1.3.8-.5.9-.5 2v1q0 .8.2 1.4l.5 1 .3.3.8.2q.8 0 1.3-.9.4-.8.4-2v-1Zm7.5 0v1.2q0 1.6-.7 2.6-.6.7-1.5.7-.5 0-.9-.2l-.6-.5-.4-.6-.2-.8q-.2-.5-.2-1.2v-1.2q0-1.6.8-2.5.6-.7 1.5-.7l.8.1q.4.2.6.5l.4.7.3.7.1 1.2Zm-.5 0-.2-1.2-.4-1-.4-.3q-.3-.2-.7-.2-.9 0-1.3.8-.5.9-.5 2v1q0 .8.2 1.4l.5 1 .3.3.8.2q.8 0 1.3-.9.4-.8.4-2v-1Zm7.5 0v1.2q0 1.6-.7 2.6-.6.7-1.5.7-.5 0-.9-.2l-.6-.5-.4-.6-.2-.8q-.2-.5-.2-1.2v-1.2q0-1.6.8-2.5.6-.7 1.5-.7l.8.1q.4.2.6.5l.4.7.3.7.1 1.2Zm-.5 0-.2-1.2-.4-1-.4-.3q-.3-.2-.7-.2-.9 0-1.3.8-.5.9-.5 2v1q0 .8.2 1.4l.5 1 .3.3.8.2q.8 0 1.3-.9.4-.8.4-2v-1Zm7.5 0v1.2q0 1.6-.7 2.6-.6.7-1.5.7-.5 0-.9-.2l-.6-.5-.4-.6-.2-.8q-.2-.5-.2-1.2v-1.2q0-1.6.8-2.5.6-.7 1.5-.7l.8.1q.4.2.6.5l.4.7.3.7.1 1.2Zm-.5 0-.2-1.2-.4-1-.4-.3q-.3-.2-.7-.2-.9 0-1.3.8-.5.9-.5 2v1q0 .8.2 1.4l.5 1 .3.3.8.2q.8 0 1.3-.9.4-.8.4-2v-1Zm7.5 0v1.2q0 1.6-.7 2.6-.6.7-1.5.7-.5 0-.9-.2l-.6-.5-.4-.6-.2-.8q-.2-.5-.2-1.2v-1.2q0-1.6.8-2.5.6-.7 1.5-.7l.8.1q.4.2.6.5l.4.7.3.7.1 1.2Zm-.5 0-.2-1.2-.4-1-.4-.3q-.3-.2-.7-.2-.9 0-1.3.8-.5.9-.5 2v1q0 .8.2 1.4l.5 1 .3.3.8.2q.8 0 1.3-.9.4-.8.4-2v-1Z"/><path fill="#bdbdbd" d="M526.7 798.5v7h1.9l.1.3v.1l-.3.1h-4.1v-.4l.2-.1h1.7v-6.3l-1.6.5h-.3v-.3l.2-.1 2.2-.8Zm9 3.2v1.2q0 1.6-.7 2.6-.6.7-1.5.7-.5 0-.9-.2l-.6-.5-.4-.6-.2-.8q-.2-.5-.2-1.2v-1.2q0-1.6.8-2.5.6-.7 1.5-.7l.8.1q.4.2.6.5l.4.7.3.7.1 1.2Zm-.5 0-.2-1.2-.4-1-.4-.3q-.3-.2-.7-.2-.9 0-1.3.8-.5.9-.5 2v1q0 .8.2 1.4l.5 1 .3.3.8.2q.8 0 1.3-.9.4-.8.4-2v-1Zm7.5 0v1.2q0 1.6-.7 2.6-.6.7-1.5.7-.5 0-.9-.2l-.6-.5-.4-.6-.2-.8q-.2-.5-.2-1.2v-1.2q0-1.6.8-2.5.6-.7 1.5-.7l.8.1q.4.2.6.5l.4.7.3.7.1 1.2Zm-.5 0-.2-1.2-.4-1-.4-.3q-.3-.2-.7-.2-.9 0-1.3.8-.5.9-.5 2v1q0 .8.2 1.4l.5 1 .3.3.8.2q.8 0 1.3-.9.4-.8.4-2v-1Zm7.5 0v1.2q0 1.6-.7 2.6-.6.7-1.5.7-.5 0-.9-.2l-.6-.5-.4-.6-.2-.8q-.2-.5-.2-1.2v-1.2q0-1.6.8-2.5.6-.7 1.5-.7l.8.1q.4.2.6.5l.4.7.3.7.1 1.2Zm-.5 0-.2-1.2-.4-1-.4-.3q-.3-.2-.7-.2-.9 0-1.3.8-.5.9-.5 2v1q0 .8.2 1.4l.5 1 .3.3.8.2q.8 0 1.3-.9.4-.8.4-2v-1Zm7.5 0v1.2q0 1.6-.7 2.6-.6.7-1.5.7-.5 0-.9-.2l-.6-.5-.4-.6-.2-.8q-.2-.5-.2-1.2v-1.2q0-1.6.8-2.5.6-.7 1.5-.7l.8.1q.4.2.6.5l.4.7.3.7.1 1.2Zm-.5 0-.2-1.2-.4-1-.4-.3q-.3-.2-.7-.2-.9 0-1.3.8-.5.9-.5 2v1q0 .8.2 1.4l.5 1 .3.3.8.2q.8 0 1.3-.9.4-.8.4-2v-1Zm7.5 0v1.2q0 1.6-.7 2.6-.6.7-1.5.7-.5 0-.9-.2l-.6-.5-.4-.6-.2-.8q-.2-.5-.2-1.2v-1.2q0-1.6.8-2.5.6-.7 1.5-.7l.8.1q.4.2.6.5l.4.7.3.7.1 1.2Zm-.5 0-.2-1.2-.4-1-.4-.3q-.3-.2-.7-.2-.9 0-1.3.8-.5.9-.5 2v1q0 .8.2 1.4l.5 1 .3.3.8.2q.8 0 1.3-.9.4-.8.4-2v-1Z"/><path stroke="#e01b24" stroke-width="4" stroke-linecap="butt" d="M8 45.5h12"/><path stroke="#242424" stroke-width="3" stroke-linejoin="round" stroke-linecap="round" d="M31.3 43.2v.7l1.2-.7.8-.2q.6 0 1.2.4.4.3.4.6t-.2.5q-.2.2-.5.2-.2 0-.4-.3l-.5-.2-.7.3-1.3 1v1.8H33l.7.1.1.5-.1.4q-.2.2-.7.2h-3.6q-.4 0-.6-.2-.2-.1-.2-.4 0-.3.2-.5l.6-.1h.7v-3h-.4l-.6-.1-.2-.4q0-.3.2-.5l.6-.1h1.6Zm8.4 5.3v-.3l-1 .4h-1q-1 0-1.6-.4-.6-.5-.6-1.2t.8-1.4q.7-.6 2.1-.6l1.3.1v-.3q0-.3-.3-.4-.2-.2-.9-.2l-1.3.2-.5.1q-.3 0-.4-.2L36 44v-.3l.2-.2.5-.1.9-.2.8-.1q1.1 0 1.7.5.7.5.7 1.3v2.5h.2l.6.1q.2.2.2.5t-.2.4q-.2.2-.6.2h-1.4Zm0-2.2-1.4-.1q-.7 0-1.2.3-.4.3-.4.5t.2.3q.3.2.8.2l1-.2 1-.5v-.5Zm5.9.7 1.3-2.6-.6-.1q-.3-.2-.3-.5t.2-.5l.6-.1h1.6l.6.1q.2.2.2.5l-.2.4q-.1.2-.6.2h-.2l-2 4H45l-2-4h-.2q-.4 0-.6-.2l-.2-.4q0-.3.2-.5l.6-.1h1.6l.6.1q.2.2.2.5t-.3.5h-.6l1.3 2.7Zm7.6-6.3v6.6h1.2l.6.1q.2.2.2.5t-.2.4q-.2.2-.6.2h-3.6q-.5 0-.6-.2-.2-.1-.2-.4 0-.3.2-.5l.6-.1H52v-5l-1 .2-.5.1-.4-.2-.1-.4v-.4l.6-.2 2.6-.7Zm9.4 5.7h-5q.3.5.7.8.5.3 1.3.3.7 0 1.8-.3l.6-.1.4.1q.2.2.2.5l-.2.4q-.2.2-1.1.4l-1.8.2q-1.4 0-2.3-.8-.8-.9-.8-2 0-1.3.9-2.1 1-.8 2.1-.8.8 0 1.4.3l1 .5.6 1q.2.5.2 1.1v.5Zm-1.3-1.2q-.3-.5-.8-.7-.4-.3-1-.3t-1 .3q-.5.2-.8.7h3.6Z"/><path fill="#bdbdbd" d="M31.3 43.2v.7l1.2-.7.8-.2q.6 0 1.2.4.4.3.4.6t-.2.5q-.2.2-.5.2-.2 0-.4-.3l-.5-.2-.7.3-1.3 1v1.8H33l.7.1.1.5-.1.4q-.2.2-.7.2h-3.6q-.4 0-.6-.2-.2-.1-.2-.4 0-.3.2-.5l.6-.1h.7v-3h-.4l-.6-.1-.2-.4q0-.3.2-.5l.6-.1h1.6Zm8.4 5.3v-.3l-1 .4h-1q-1 0-1.6-.4-.6-.5-.6-1.2t.8-1.4q.7-.6 2.1-.6l1.3.1v-.3q0-.3-.3-.4-.2-.2-.9-.2l-1.3.2-.5.1q-.3 0-.4-.2L36 44v-.3l.2-.2.5-.1.9-.2.8-.1q1.1 0 1.7.5.7.5.7 1.3v2.5h.2l.6.1q.2.2.2.5t-.2.4q-.2.2-.6.2h-1.4Zm0-2.2-1.4-.1q-.7 0-1.2.3-.4.3-.4.5t.2.3q.3.2.8.2l1-.2 1-.5v-.5Zm5.9.7 1.3-2.6-.6-.1q-.3-.2-.3-.5t.2-.5l.6-.1h1.6l.6.1q.2.2.2.5l-.2.4q-.1.2-.6.2h-.2l-2 4H45l-2-4h-.2q-.4 0-.6-.2l-.2-.4q0-.3.2-.5l.6-.1h1.6l.6.1q.2.2.2.5t-.3.5h-.6l1.3 2.7Zm7.6-6.3v6.6h1.2l.6.1q.2.2.2.5t-.2.4q-.2.2-.6.2h-3.6q-.5 0-.6-.2-.2-.1-.2-.4 0-.3.2-.5l.6-.1H52v-5l-1 .2-.5.1-.4-.2-.1-.4v-.4l.6-.2 2.6-.7Zm9.4 5.7h-5q.3.5.7.8.5.3 1.3.3.7 0 1.8-.3l.6-.1.4.1q.2.2.2.5l-.2.4q-.2.2-1.1.4l-1.8.2q-1.4 0-2.3-.8-.8-.9-.8-2 0-1.3.9-2.1 1-.8 2.1-.8.8 0 1.4.3l1 .5.6 1q.2.5.2 1.1v.5Zm-1.3-1.2q-.3-.5-.8-.7-.4-.3-1-.3t-1 .3q-.5.2-.8.7h3.6Z"/><path stroke="#63452c" stroke-width="4" stroke-linecap="butt" d="M79 45.5h12"/><path stroke="#242424" stroke-width="3" stroke-linejoin="round" stroke-linecap="round" d="M105.4 44.4v5.4h.2l.6.1q.2.2.2.5t-.2.4q-.2.2-.6.2h-2.2q-.4 0-.6-.2l-.1-.4.1-.5.6-.1h.8v-2l-1 .4-.8.2q-1.1 0-2-.7-1-.8-1-2 0-1 .9-1.9.8-.8 2-.8l1 .1.9.5v-.4h1.4l.6.1q.2.2.2.5l-.2.4q-.2.2-.6.2h-.2Zm-1.2 1.4-.2-.7q-.2-.4-.7-.6-.4-.3-1-.3-.8 0-1.3.7-.4.4-.4.9 0 .4.5.9t1.3.5q.8 0 1.3-.5t.5-1Zm6.7-1.2-.6-.3-.7-.1q-.7 0-1.1.2-.2.1-.2.3l.2.2.9.2 1.6.3q.7.2 1 .7.3.4.3.9 0 .6-.5 1-.9.7-2.1.7l-1-.1-.8-.3-.2.1h-.2l-.5-.1-.1-.6v-.4l.1-.6q.2-.2.5-.2h.3l.3.5.6.4h1q.7 0 1.2-.2.2-.1.2-.3 0-.2-.3-.3-.3-.2-1.3-.3-1.4-.1-2-.6-.4-.4-.4-1 0-.7.6-1.1.7-.6 1.9-.6h.8l.7.3.2-.1h.2l.4.1q.2.2.2.7v.3l-.1.5q-.2.3-.5.3l-.4-.2q-.2-.1-.2-.3Zm5.7 2.4 1.3-2.6-.6-.1q-.3-.2-.3-.5t.2-.5l.6-.1h1.6l.6.1q.2.2.2.5l-.2.4q-.1.2-.6.2h-.2l-2 4H116l-2-4h-.2q-.4 0-.6-.2l-.2-.4q0-.3.2-.5l.6-.1h1.6l.6.1q.2.2.2.5t-.3.5h-.6l1.3 2.7Zm13.6-1.4q0-1 .3-2.1.2-.8.8-1.7l.5-.9.4-.1.5.1.1.5-.1.4-1 2q-.2.8-.2 1.8 0 .9.3 1.8.3 1 .9 2l.1.4-.1.4q-.2.2-.5.2-.2 0-.3-.2-.3-.2-.7-1l-.7-1.6q-.3-1-.3-2Zm5.9-4.7v2.7q.4-.3.9-.4.4-.2.9-.2 1.2 0 2 .9 1 .8 1 2t-.9 2q-.8.8-2.1.8l-1-.2q-.4 0-.8-.3v.3h-1.4q-.5 0-.7-.2l-.1-.4.1-.5.7-.1h.2V42h-.2q-.5 0-.7-.2l-.1-.4.1-.4q.2-.2.7-.2h1.4Zm3.6 5q0-.7-.6-1.2-.5-.5-1.2-.5-.8 0-1.3.5T136 46q0 .6.4 1 .5.5 1.4.5.8 0 1.3-.5.5-.4.5-1Zm5.3-5v1.3h-1.4v-1.3h1.4Zm.2 2.3v4h1.4q.5 0 .6.2.2.2.2.5t-.2.4q-.1.2-.6.2h-4q-.5 0-.7-.2-.2-.1-.2-.4 0-.3.2-.5l.6-.1h1.5v-3h-1l-.6-.1-.2-.4q0-.3.2-.5l.6-.1h2.2Zm6 1.2v2.4q0 .4.2.5.3.2 1 .2.8 0 1.6-.4l.5-.2.4.2.2.4q0 .3-.2.4-.3.3-1.2.5-.8.3-1.4.3-1.1 0-1.7-.5-.5-.5-.5-1.2v-2.6h-.4q-.5 0-.7-.2l-.1-.4.1-.5.7-.1h.4V42l.1-.6q.2-.2.5-.2l.4.2q.2.1.2.6v1h2.2q.4 0 .6.2.2.2.2.5l-.2.4q-.2.2-.6.2h-2.2Zm7.1-1.2v.7l1.2-.7.8-.2q.6 0 1.2.4.4.3.4.6t-.2.5q-.2.2-.5.2-.2 0-.4-.3l-.5-.2-.7.3-1.3 1v1.8h1.7l.7.1.1.5-.1.4q-.2.2-.7.2h-3.6q-.4 0-.6-.2-.2-.1-.2-.4 0-.3.2-.5l.6-.1h.7v-3h-.4l-.6-.1-.2-.4q0-.3.2-.5l.6-.1h1.6Zm8.4 5.3v-.3l-1 .4h-1q-1 0-1.6-.4-.6-.5-.6-1.2t.8-1.4q.7-.6 2.1-.6l1.3.1v-.3q0-.3-.3-.4-.2-.2-.9-.2l-1.3.2-.5.1q-.3 0-.4-.2l-.2-.4v-.3l.2-.2.5-.1.9-.2.8-.1q1.1 0 1.7.5.7.5.7 1.3v2.5h.2l.6.1q.2.2.2.5t-.2.4q-.2.2-.6.2h-1.4Zm0-2.2-1.4-.1q-.7 0-1.2.3-.4.3-.4.5t.2.3q.3.2.8.2l1-.2 1-.5v-.5Zm5.6-2v2.5l.1.5q.3.2 1 .2.8 0 1.6-.4l.5-.2.4.2.2.4q0 .3-.2.4-.3.3-1.2.5-.8.3-1.4.3-1.1 0-1.7-.5-.5-.5-.5-1.2v-2.6h-.4q-.5 0-.7-.2l-.1-.4.1-.5.7-.1h.4V42l.1-.6q.2-.2.5-.2l.4.2q.2.1.2.6v1h2.2q.4 0 .6.2.2.2.2.5l-.2.4q-.2.2-.6.2h-2.2Zm10.3 2.1h-5q.3.5.7.8.5.3 1.3.3.7 0 1.8-.3l.6-.1.4.1q.2.2.2.5l-.2.4q-.2.2-1.1.4l-1.8.2q-1.4 0-2.3-.8-.8-.9-.8-2 0-1.3.9-2.1 1-.8 2.1-.8.8 0 1.4.3l1 .5.6 1q.2.5.2 1.1v.5Zm-1.3-1.2q-.3-.5-.8-.7-.4-.3-1-.3t-1 .3q-.5.2-.8.7h3.6Zm5.8.4q0 1-.3 2l-.8 1.8-.6.8-.4.2q-.3 0-.4-.2l-.2-.4.1-.4q.7-1 1-2l.2-1.8q0-1-.3-1.9-.2-.9-.9-2l-.1-.3q0-.3.2-.5l.4-.1.4.1.6 1 .8 1.6q.3 1 .3 2Z"/><path fill="#bdbdbd" d="M105.4 44.4v5.4h.2l.6.1q.2.2.2.5t-.2.4q-.2.2-.6.2h-2.2q-.4 0-.6-.2l-.1-.4.1-.5.6-.1h.8v-2l-1 .4-.8.2q-1.1 0-2-.7-1-.8-1-2 0-1 .9-1.9.8-.8 2-.8l1 .1.9.5v-.4h1.4l.6.1q.2.2.2.5l-.2.4q-.2.2-.6.2h-.2Zm-1.2 1.4-.2-.7q-.2-.4-.7-.6-.4-.3-1-.3-.8 0-1.3.7-.4.4-.4.9 0 .4.5.9t1.3.5q.8 0 1.3-.5t.5-1Zm6.7-1.2-.6-.3-.7-.1q-.7 0-1.1.2-.2.1-.2.3l.2.2.9.2 1.6.3q.7.2 1 .7.3.4.3.9 0 .6-.5 1-.9.7-2.1.7l-1-.1-.8-.3-.2.1h-.2l-.5-.1-.1-.6v-.4l.1-.6q.2-.2.5-.2h.3l.3.5.6.4h1q.7 0 1.2-.2.2-.1.2-.3 0-.2-.3-.3-.3-.2-1.3-.3-1.4-.1-2-.6-.4-.4-.4-1 0-.7.6-1.1.7-.6 1.9-.6h.8l.7.3.2-.1h.2l.4.1q.2.2.2.7v.3l-.1.5q-.2.3-.5.3l-.4-.2q-.2-.1-.2-.3Zm5.7 2.4 1.3-2.6-.6-.1q-.3-.2-.3-.5t.2-.5l.6-.1h1.6l.6.1q.2.2.2.5l-.2.4q-.1.2-.6.2h-.2l-2 4H116l-2-4h-.2q-.4 0-.6-.2l-.2-.4q0-.3.2-.5l.6-.1h1.6l.6.1q.2.2.2.5t-.3.5h-.6l1.3 2.7Zm13.6-1.4q0-1 .3-2.1.2-.8.8-1.7l.5-.9.4-.1.5.1.1.5-.1.4-1 2q-.2.8-.2 1.8 0 .9.3 1.8.3 1 .9 2l.1.4-.1.4q-.2.2-.5.2-.2 0-.3-.2-.3-.2-.7-1l-.7-1.6q-.3-1-.3-2Zm5.9-4.7v2.7q.4-.3.9-.4.4-.2.9-.2 1.2 0 2 .9 1 .8 1 2t-.9 2q-.8.8-2.1.8l-1-.2q-.4 0-.8-.3v.3h-1.4q-.5 0-.7-.2l-.1-.4.1-.5.7-.1h.2V42h-.2q-.5 0-.7-.2l-.1-.4.1-.4q.2-.2.7-.2h1.4Zm3.6 5q0-.7-.6-1.2-.5-.5-1.2-.5-.8 0-1.3.5T136 46q0 .6.4 1 .5.5 1.4.5.8 0 1.3-.5.5-.4.5-1Zm5.3-5v1.3h-1.4v-1.3h1.4Zm.2 2.3v4h1.4q.5 0 .6.2.2.2.2.5t-.2.4q-.1.2-.6.2h-4q-.5 0-.7-.2-.2-.1-.2-.4 0-.3.2-.5l.6-.1h1.5v-3h-1l-.6-.1-.2-.4q0-.3.2-.5l.6-.1h2.2Zm6 1.2v2.4q0 .4.2.5.3.2 1 .2.8 0 1.6-.4l.5-.2.4.2.2.4q0 .3-.2.4-.3.3-1.2.5-.8.3-1.4.3-1.1 0-1.7-.5-.5-.5-.5-1.2v-2.6h-.4q-.5 0-.7-.2l-.1-.4.1-.5.7-.1h.4V42l.1-.6q.2-.2.5-.2l.4.2q.2.1.2.6v1h2.2q.4 0 .6.2.2.2.2.5l-.2.4q-.2.2-.6.2h-2.2Zm7.1-1.2v.7l1.2-.7.8-.2q.6 0 1.2.4.4.3.4.6t-.2.5q-.2.2-.5.2-.2 0-.4-.3l-.5-.2-.7.3-1.3 1v1.8h1.7l.7.1.1.5-.1.4q-.2.2-.7.2h-3.6q-.4 0-.6-.2-.2-.1-.2-.4 0-.3.2-.5l.6-.1h.7v-3h-.4l-.6-.1-.2-.4q0-.3.2-.5l.6-.1h1.6Zm8.4 5.3v-.3l-1 .4h-1q-1 0-1.6-.4-.6-.5-.6-1.2t.8-1.4q.7-.6 2.1-.6l1.3.1v-.3q0-.3-.3-.4-.2-.2-.9-.2l-1.3.2-.5.1q-.3 0-.4-.2l-.2-.4v-.3l.2-.2.5-.1.9-.2.8-.1q1.1 0 1.7.5.7.5.7 1.3v2.5h.2l.6.1q.2.2.2.5t-.2.4q-.2.2-.6.2h-1.4Zm0-2.2-1.4-.1q-.7 0-1.2.3-.4.3-.4.5t.2.3q.3.2.8.2l1-.2 1-.5v-.5Zm5.6-2v2.5l.1.5q.3.2 1 .2.8 0 1.6-.4l.5-.2.4.2.2.4q0 .3-.2.4-.3.3-1.2.5-.8.3-1.4.3-1.1 0-1.7-.5-.5-.5-.5-1.2v-2.6h-.4q-.5 0-.7-.2l-.1-.4.1-.5.7-.1h.4V42l.1-.6q.2-.2.5-.2l.4.2q.2.1.2.6v1h2.2q.4 0 .6.2.2.2.2.5l-.2.4q-.2.2-.6.2h-2.2Zm10.3 2.1h-5q.3.5.7.8.5.3 1.3.3.7 0 1.8-.3l.6-.1.4.1q.2.2.2.5l-.2.4q-.2.2-1.1.4l-1.8.2q-1.4 0-2.3-.8-.8-.9-.8-2 0-1.3.9-2.1 1-.8 2.1-.8.8 0 1.4.3l1 .5.6 1q.2.5.2 1.1v.5Zm-1.3-1.2q-.3-.5-.8-.7-.4-.3-1-.3t-1 .3q-.5.2-.8.7h3.6Zm5.8.4q0 1-.3 2l-.8 1.8-.6.8-.4.2q-.3 0-.4-.2l-.2-.4.1-.4q.7-1 1-2l.2-1.8q0-1-.3-1.9-.2-.9-.9-2l-.1-.3q0-.3.2-.5l.4-.1.4.1.6 1 .8 1.6q.3 1 .3 2Z"/><path stroke="#3a3a3a" stroke-width="4" stroke-linecap="butt" d="M206 45.5h12"/><path stroke="#242424" stroke-width="3" stroke-linejoin="round" stroke-linecap="round" d="m230.5 45.7 1.8 1.6q.3 0 .5.2.2.1.2.4 0 .3-.2.4-.2.2-.6.2h-1.4q-.4 0-.6-.2-.2-.1-.2-.4l.1-.4q.1-.2.4-.2l-1-.8-.8.8.4.2v.4l-.1.4q-.2.2-.6.2H227q-.4 0-.6-.2-.2-.1-.2-.4 0-.3.2-.4.2-.2.5-.2l1.8-1.6-1.6-1.3q-.3 0-.5-.2l-.1-.4.1-.5.7-.1h1l.7.1.2.4q0 .4-.3.6l.7.6.7-.6q-.3-.2-.3-.5t.2-.5l.6-.1h1.1l.6.1q.2.2.2.5l-.2.4-.4.2-1.6 1.3Zm5 1.6h2.6l.4-.2q.3 0 .4.2.2.2.2.6v.6h-5.5v-1.3l4-3.4q.3-.4.3-.8t-.4-.8q-.4-.3-1-.3-.7 0-1.1.4l-.4.6q0 .2-.2.3l-.3.1-.5-.1-.1-.5q0-.3.3-.8.3-.6 1-.9.6-.3 1.3-.3 1.1 0 1.9.7.7.7.7 1.7 0 .5-.2.9t-1 1.2l-2.4 2Zm7-3 .8-.4.8-.2q1 0 1.7.7.7.8.7 2 0 1-.7 1.6-.6.7-1.8.7-1 0-1.5-.5-.6-.4-1-1.3-.3-1-.3-2 0-1.4.7-2.3.6-1 1.4-1.4.8-.5 1.8-.5.7 0 1.1.3.3.2.3.5l-.2.4-.4.2-.4-.1-.3-.1q-.6 0-1.2.3t-1.1 1l-.5 1.2Zm.1 2q.2.6.5.9.3.2 1 .2.5 0 .8-.2.4-.4.4-1 0-.5-.4-1-.4-.3-.8-.3t-.8.3l-.7 1Zm9.7-5.4v4.7q.4 0 .6.2.2.1.2.4 0 .3-.2.4-.2.2-.6.2v.5l.6.1q.2.2.2.5t-.2.4q-.2.2-.6.2h-1.6q-.5 0-.6-.2-.2-.1-.2-.4 0-.3.2-.5l.6-.1h.4v-.5H248v-1l2.9-4.9h1.5Zm-1.2 4.7v-3l-1.7 3h1.7Z"/><path fill="#bdbdbd" d="m230.5 45.7 1.8 1.6q.3 0 .5.2.2.1.2.4 0 .3-.2.4-.2.2-.6.2h-1.4q-.4 0-.6-.2-.2-.1-.2-.4l.1-.4q.1-.2.4-.2l-1-.8-.8.8.4.2v.4l-.1.4q-.2.2-.6.2H227q-.4 0-.6-.2-.2-.1-.2-.4 0-.3.2-.4.2-.2.5-.2l1.8-1.6-1.6-1.3q-.3 0-.5-.2l-.1-.4.1-.5.7-.1h1l.7.1.2.4q0 .4-.3.6l.7.6.7-.6q-.3-.2-.3-.5t.2-.5l.6-.1h1.1l.6.1q.2.2.2.5l-.2.4-.4.2-1.6 1.3Zm5 1.6h2.6l.4-.2q.3 0 .4.2.2.2.2.6v.6h-5.5v-1.3l4-3.4q.3-.4.3-.8t-.4-.8q-.4-.3-1-.3-.7 0-1.1.4l-.4.6q0 .2-.2.3l-.3.1-.5-.1-.1-.5q0-.3.3-.8.3-.6 1-.9.6-.3 1.3-.3 1.1 0 1.9.7.7.7.7 1.7 0 .5-.2.9t-1 1.2l-2.4 2Zm7-3 .8-.4.8-.2q1 0 1.7.7.7.8.7 2 0 1-.7 1.6-.6.7-1.8.7-1 0-1.5-.5-.6-.4-1-1.3-.3-1-.3-2 0-1.4.7-2.3.6-1 1.4-1.4.8-.5 1.8-.5.7 0 1.1.3.3.2.3.5l-.2.4-.4.2-.4-.1-.3-.1q-.6 0-1.2.3t-1.1 1l-.5 1.2Zm.1 2q.2.6.5.9.3.2 1 .2.5 0 .8-.2.4-.4.4-1 0-.5-.4-1-.4-.3-.8-.3t-.8.3l-.7 1Zm9.7-5.4v4.7q.4 0 .6.2.2.1.2.4 0 .3-.2.4-.2.2-.6.2v.5l.6.1q.2.2.2.5t-.2.4q-.2.2-.6.2h-1.6q-.5 0-.6-.2-.2-.1-.2-.4 0-.3.2-.5l.6-.1h.4v-.5H248v-1l2.9-4.9h1.5Zm-1.2 4.7v-3l-1.7 3h1.7Z"/><path stroke="#242424" stroke-width="3" stroke-linejoin="round" stroke-linecap="round" d="m17.1 13.7.4-.4q.2-.2.5-.2.4 0 .7.3.3.3.3 1v1.8q0 .7-.3 1-.3.3-.7.3-.4 0-.6-.2-.3-.2-.4-.9 0-.4-.3-.6l-1-.7q-.8-.3-1.5-.3-1 0-1.7.4t-1.3 1.3q-.6.9-.6 2V20q0 1.4 1 2.4 1.1 1 3 1 1 0 1.9-.3l1-.7.4-.4.4-.1q.4 0 .7.3.3.3.3.7 0 .4-.4.9-.6.7-1.5 1-1.3.6-2.8.6-1.8 0-3.2-.8-1.2-.6-2-1.8-.8-1.3-.8-2.8v-1.3q0-1.6.7-3 .8-1.3 2-2 1.3-.8 2.8-.8l1.6.2q.8.2 1.4.7Zm14 7q0 1.2-.6 2.2-.6 1.1-1.9 1.8-1.2.6-2.6.6-1.4 0-2.6-.6-1.3-.7-2-1.7-.6-1.1-.6-2.3 0-1.2.7-2.4.7-1.1 1.9-1.8 1.2-.6 2.6-.6 1.4 0 2.6.6 1.3.7 2 1.9.6 1.1.6 2.3Zm-2 0q0-1-.6-1.8-1-1-2.5-1-1.4 0-2.3.8-.9.9-.9 2 0 1 1 1.8.9.8 2.2.8 1.3 0 2.3-.8.9-.8.9-1.8Zm5.8-4.6v.6l.9-.7q.4-.2.9-.2.4 0 .8.3.5.2.9.6l1-.6 1.1-.2q1.2 0 1.8.5 1 .8 1 2.1V23q.6 0 .9.3.3.2.3.7 0 .4-.3.7-.3.3-1 .3h-2v-6.3l-.1-.7-.5-.1-.6.1-1 1v4q.7 0 1 .3.3.2.3.7 0 .4-.3.7-.3.3-1 .3h-2v-7l-.6-.1-.7.2-.8.8v4q.6 0 1 .4.2.2.2.7 0 .4-.3.7-.3.3-1 .3H33q-.7 0-1-.3-.3-.3-.3-.7 0-.5.3-.7.3-.3.9-.3v-5q-.6 0-1-.3-.2-.3-.2-.7 0-.4.3-.7.3-.3 1-.3h1.9ZM47.5 24v3.3h1.2q.7 0 1 .2.3.3.3.8 0 .4-.3.7-.3.3-1 .3h-3.5q-.8 0-1-.3-.4-.3-.4-.7 0-.5.3-.8.3-.2 1-.2h.4v-9h-.3q-.8 0-1-.4-.4-.2-.4-.7 0-.4.3-.7.3-.3 1-.3h2.4v.7q.7-.5 1.4-.7l1.6-.2q2 0 3.5 1.3 1.4 1.4 1.4 3.2 0 2-1.7 3.3-1.4 1-3.2 1l-1.5-.1-1.5-.7Zm6-3.5q0-.4-.4-1-.3-.7-1-1.1-.7-.4-1.6-.4-1.5 0-2.4 1-.6.8-.6 1.6t.8 1.5q.9.8 2.2.8 1.2 0 2-.8 1-.7 1-1.6Zm8-4.3v1.3q1.3-1 2-1.2.8-.3 1.4-.3 1 0 2 .7.5.5.5 1 0 .4-.3.7-.3.3-.7.3-.4 0-.8-.4-.4-.3-.7-.3-.4 0-1.2.5-.9.5-2.1 1.6v3h2.8q.7 0 1 .3.4.2.4.7 0 .4-.4.7-.3.3-1 .3h-6q-.7 0-1-.3-.4-.3-.4-.7 0-.5.3-.7.4-.3 1-.3h1.3V18h-.8q-.7 0-1-.3-.3-.2-.3-.7 0-.4.3-.7.3-.3 1-.3h2.8ZM79 21.6h-8.2q.3.7 1.1 1.2t2.2.5q1 0 3-.5l1-.2q.4 0 .6.3.3.3.3.7 0 .4-.3.7-.4.4-1.9.7-1.5.3-2.9.3-2.4 0-3.8-1.4-1.5-1.3-1.5-3.3 0-2.1 1.6-3.4 1.5-1.3 3.6-1.3 1.2 0 2.2.4 1 .4 1.5.9.7.7 1.2 1.8.3.7.3 1.7v.9Zm-2.2-2q-.5-.9-1.2-1.3-.8-.4-1.8-.4t-1.7.4q-.8.4-1.2 1.3h5.9Zm11.4-1.2-1-.4H86q-1.2 0-1.8.3-.3.2-.3.4t.4.4q.3.2 1.4.3 2 .3 2.7.6 1 .3 1.6 1 .6.8.6 1.6 0 1-1 1.8-1.3 1-3.5 1l-1.6-.1-1.4-.5-.3.2h-.3q-.5 0-.8-.2-.3-.3-.3-1V23q0-.8.3-1 .3-.4.8-.4l.6.2q.2.2.3.7.5.4 1.1.6.7.2 1.5.2 1.4 0 2.2-.4.3-.2.3-.5 0-.4-.5-.6-.5-.3-2.1-.5-2.4-.2-3.2-1-.9-.6-.9-1.7 0-1 1-1.8 1.2-1 3.2-1 .7 0 1.3.2l1.2.4.4-.2h.3q.4 0 .7.2.2.3.2 1v.5l-.1 1q-.3.4-.9.4l-.6-.2q-.3-.3-.3-.7Zm12 0-1-.4H98q-1.2 0-1.8.3-.3.2-.3.4t.4.4q.3.2 1.4.3 2 .3 2.7.6 1 .3 1.6 1 .6.8.6 1.6 0 1-1 1.8-1.3 1-3.5 1l-1.6-.1-1.4-.5-.3.2h-.3q-.5 0-.8-.2-.3-.3-.3-1V23q0-.8.3-1 .3-.4.8-.4l.6.2q.2.2.3.7.5.4 1.1.6.7.2 1.5.2 1.4 0 2.2-.4.3-.2.3-.5 0-.4-.5-.6-.5-.3-2.1-.5-2.4-.2-3.2-1-.9-.6-.9-1.7 0-1 1-1.8 1.2-1 3.2-1 .7 0 1.3.2l1.2.4.4-.2h.3q.4 0 .7.2.2.3.2 1v.5l-.1 1q-.3.4-.9.4l-.6-.2q-.3-.3-.3-.7Zm10.5-6v2h-2.4v-2h2.4Zm.3 3.7V23h2.4q.7 0 1 .3.3.2.3.7 0 .4-.3.7-.3.3-1 .3h-6.8q-.8 0-1-.3-.4-.3-.4-.7 0-.5.3-.7.3-.3 1-.3h2.5v-5h-1.6q-.7 0-1-.3-.4-.2-.4-.7 0-.4.3-.7.3-.3 1-.3h3.7Zm16.2 4.6q0 1.2-.7 2.2-.6 1.1-1.9 1.8-1.2.6-2.6.6-1.4 0-2.6-.6-1.3-.7-2-1.7-.6-1.1-.6-2.3 0-1.2.7-2.4.7-1.1 1.9-1.8 1.2-.6 2.6-.6 1.4 0 2.6.6 1.3.7 2 1.9.6 1.1.6 2.3Zm-2 0q0-1-.7-1.8-1-1-2.5-1-1.4 0-2.3.8-.9.9-.9 2 0 1 1 1.8.9.8 2.2.8 1.3 0 2.3-.8.9-.8.9-1.8Zm6.7-4.6v.7q.6-.5 1.3-.7.6-.2 1.4-.2 1.8 0 2.8 1 .8 1 .8 2.4V23q.7 0 1 .3.3.2.3.7 0 .4-.3.7-.3.3-1 .3h-1.9q-.7 0-1-.3-.3-.3-.3-.7 0-.5.3-.7.3-.3 1-.3v-3.8q0-.7-.4-1-.5-.3-1.4-.3-.7 0-1.2.2l-1.4 1.2V23l1 .1q.5.3.5.9 0 .4-.3.7-.3.3-1 .3h-2.3q-.7 0-1-.3-.3-.3-.3-.7 0-.6.4-.9l1-.1v-5q-.6 0-.9-.3-.3-.3-.3-.7 0-.4.3-.7.3-.3 1-.3h2Zm29.2-2.4.4-.4q.2-.2.5-.2.4 0 .7.3.3.3.3 1v1.8q0 .7-.3 1-.3.3-.7.3-.4 0-.6-.2-.3-.2-.4-.9 0-.4-.3-.6l-1-.7q-.8-.3-1.5-.3-1 0-1.7.4t-1.3 1.3q-.6.9-.6 2V20q0 1.4 1 2.4 1.1 1 3 1 1 0 1.9-.3l1-.7.4-.4.4-.1q.4 0 .7.3.3.3.3.7 0 .4-.4.9-.6.7-1.5 1-1.3.6-2.8.6-1.8 0-3.2-.8-1.2-.6-2-1.8-.8-1.3-.8-2.8v-1.3q0-1.6.7-3 .8-1.3 2-2 1.3-.8 2.8-.8l1.6.2q.8.2 1.4.7Zm14 7q0 1.2-.6 2.2-.6 1.1-1.9 1.8-1.2.6-2.6.6-1.4 0-2.6-.6-1.3-.7-2-1.7-.6-1.1-.6-2.3 0-1.2.7-2.4.7-1.1 1.9-1.8 1.2-.6 2.6-.6 1.4 0 2.6.6 1.3.7 2 1.9.6 1.1.6 2.3Zm-2 0q0-1-.6-1.8-1-1-2.5-1-1.4 0-2.3.8-.9.9-.9 2 0 1 1 1.8.9.8 2.2.8 1.3 0 2.3-.8.9-.8.9-1.8Zm5.8-4.6v.6l.9-.7q.4-.2.9-.2.4 0 .8.3.5.2.9.6l1-.6 1.1-.2q1.2 0 1.8.5 1 .8 1 2.1V23q.6 0 .9.3.3.2.3.7 0 .4-.3.7-.3.3-1 .3h-2v-6.3l-.1-.7-.5-.1-.6.1-1 1v4q.7 0 1 .3.3.2.3.7 0 .4-.3.7-.3.3-1 .3h-2v-7l-.6-.1-.7.2-.8.8v4q.6 0 1 .4.2.2.2.7 0 .4-.3.7-.3.3-1 .3H177q-.7 0-1-.3-.3-.3-.3-.7 0-.5.3-.7.3-.3.9-.3v-5q-.6 0-1-.3-.2-.3-.2-.7 0-.4.3-.7.3-.3 1-.3h1.9Zm12.6 7.8v3.3h1.2q.7 0 1 .2.3.3.3.8 0 .4-.3.7-.3.3-1 .3h-3.5q-.8 0-1-.3-.4-.3-.4-.7 0-.5.3-.8.3-.2 1-.2h.4v-9h-.3q-.8 0-1-.4-.4-.2-.4-.7 0-.4.3-.7.3-.3 1-.3h2.4v.7q.7-.5 1.4-.7l1.6-.2q2 0 3.5 1.3 1.4 1.4 1.4 3.2 0 2-1.7 3.3-1.4 1-3.2 1l-1.5-.1-1.5-.7Zm6-3.5q0-.4-.4-1-.3-.7-1-1.1-.7-.4-1.6-.4-1.5 0-2.4 1-.6.8-.6 1.6t.8 1.5q.9.8 2.2.8 1.2 0 2-.8 1-.7 1-1.6Zm10.3 4.6v-.5q-.8.4-1.7.6l-1.6.2q-1.6 0-2.6-.8-1-.9-1-2 0-1.2 1.2-2.3 1.3-1 3.6-1l2 .1V19q0-.5-.3-.8-.4-.2-1.5-.2-.9 0-2.3.3l-.8.1q-.4 0-.7-.3-.3-.3-.3-.7l.1-.4.3-.3q.2-.2.7-.3l1.6-.3 1.4-.1q1.8 0 2.9.8 1 .8 1 2.2v4h.3q.8 0 1 .4.4.2.4.7 0 .4-.3.7-.3.3-1 .3h-2.4Zm0-3.6-2.2-.2q-1.3 0-2.1.6-.6.3-.6.7 0 .3.3.5.5.3 1.3.3.7 0 1.7-.3l1.6-.7v-.9Zm9.8-5.3v1.3q1.2-1 2-1.2.7-.3 1.3-.3 1 0 2 .7.5.5.5 1 0 .4-.3.7-.3.3-.7.3-.4 0-.8-.4-.4-.3-.7-.3-.4 0-1.2.5-.9.5-2.1 1.6v3h2.8q.7 0 1 .3.4.2.4.7 0 .4-.4.7-.3.3-1 .3h-6q-.7 0-1-.3-.4-.3-.4-.7 0-.5.3-.7.4-.3 1-.3h1.3v-5h-.8q-.7 0-1-.3-.3-.2-.3-.7 0-.4.3-.7.3-.3 1-.3h2.8Zm13.1-3.8v2.1h-2.4v-2h2.4Zm.3 3.8V23h2.4q.7 0 1 .3.3.2.3.7 0 .4-.3.7-.3.3-1 .3h-6.8q-.8 0-1-.3-.4-.3-.4-.7 0-.5.3-.7.3-.3 1-.3h2.5v-5h-1.6q-.7 0-1-.3-.4-.2-.4-.7 0-.4.3-.7.3-.3 1-.3h3.7Zm13.2 2.3-1-.4-1.2-.1q-1.2 0-1.8.3-.3.2-.3.4t.4.4q.3.2 1.4.3 2 .3 2.7.6 1 .3 1.6 1 .6.8.6 1.6 0 1-1 1.8-1.3 1-3.5 1l-1.6-.1-1.4-.5-.3.2h-.3q-.5 0-.8-.2-.3-.3-.3-1V23q0-.8.3-1 .3-.4.8-.4l.6.2q.2.2.3.7.5.4 1.1.6.7.2 1.5.2 1.4 0 2.2-.4.3-.2.3-.5 0-.4-.5-.6-.5-.3-2.1-.5-2.4-.2-3.2-1-.9-.6-.9-1.7 0-1 1-1.8 1.2-1 3.2-1 .7 0 1.3.2l1.2.4.4-.2h.3q.4 0 .7.2.2.3.2 1v.5l-.1 1q-.3.4-.9.4l-.6-.2q-.3-.3-.3-.7Zm15 2.3q0 1.2-.7 2.2-.6 1.1-1.9 1.8-1.2.6-2.6.6-1.4 0-2.6-.6-1.3-.7-2-1.7-.6-1.1-.6-2.3 0-1.2.7-2.4.7-1.1 1.9-1.8 1.2-.6 2.6-.6 1.4 0 2.6.6 1.3.7 2 1.9.6 1.1.6 2.3Zm-2 0q0-1-.7-1.8-1-1-2.5-1-1.4 0-2.3.8-.9.9-.9 2 0 1 1 1.8.9.8 2.2.8 1.3 0 2.3-.8.9-.8.9-1.8Zm6.7-4.6v.7q.6-.5 1.3-.7.6-.2 1.4-.2 1.8 0 2.8 1 .8 1 .8 2.4V23q.7 0 1 .3.3.2.3.7 0 .4-.3.7-.3.3-1 .3h-1.9q-.7 0-1-.3-.3-.3-.3-.7 0-.5.3-.7.3-.3 1-.3v-3.8q0-.7-.4-1-.5-.3-1.4-.3-.7 0-1.2.2l-1.4 1.2V23l1 .1q.5.3.5.9 0 .4-.3.7-.3.3-1 .3h-2.3q-.7 0-1-.3-.3-.3-.3-.7 0-.6.4-.9l1-.1v-5q-.6 0-.9-.3-.3-.3-.3-.7 0-.4.3-.7.3-.3 1-.3h2Z"/><path fill="#fff" d="m17.1 13.7.4-.4q.2-.2.5-.2.4 0 .7.3.3.3.3 1v1.8q0 .7-.3 1-.3.3-.7.3-.4 0-.6-.2-.3-.2-.4-.9 0-.4-.3-.6l-1-.7q-.8-.3-1.5-.3-1 0-1.7.4t-1.3 1.3q-.6.9-.6 2V20q0 1.4 1 2.4 1.1 1 3 1 1 0 1.9-.3l1-.7.4-.4.4-.1q.4 0 .7.3.3.3.3.7 0 .4-.4.9-.6.7-1.5 1-1.3.6-2.8.6-1.8 0-3.2-.8-1.2-.6-2-1.8-.8-1.3-.8-2.8v-1.3q0-1.6.7-3 .8-1.3 2-2 1.3-.8 2.8-.8l1.6.2q.8.2 1.4.7Zm14 7q0 1.2-.6 2.2-.6 1.1-1.9 1.8-1.2.6-2.6.6-1.4 0-2.6-.6-1.3-.7-2-1.7-.6-1.1-.6-2.3 0-1.2.7-2.4.7-1.1 1.9-1.8 1.2-.6 2.6-.6 1.4 0 2.6.6 1.3.7 2 1.9.6 1.1.6 2.3Zm-2 0q0-1-.6-1.8-1-1-2.5-1-1.4 0-2.3.8-.9.9-.9 2 0 1 1 1.8.9.8 2.2.8 1.3 0 2.3-.8.9-.8.9-1.8Zm5.8-4.6v.6l.9-.7q.4-.2.9-.2.4 0 .8.3.5.2.9.6l1-.6 1.1-.2q1.2 0 1.8.5 1 .8 1 2.1V23q.6 0 .9.3.3.2.3.7 0 .4-.3.7-.3.3-1 .3h-2v-6.3l-.1-.7-.5-.1-.6.1-1 1v4q.7 0 1 .3.3.2.3.7 0 .4-.3.7-.3.3-1 .3h-2v-7l-.6-.1-.7.2-.8.8v4q.6 0 1 .4.2.2.2.7 0 .4-.3.7-.3.3-1 .3H33q-.7 0-1-.3-.3-.3-.3-.7 0-.5.3-.7.3-.3.9-.3v-5q-.6 0-1-.3-.2-.3-.2-.7 0-.4.3-.7.3-.3 1-.3h1.9ZM47.5 24v3.3h1.2q.7 0 1 .2.3.3.3.8 0 .4-.3.7-.3.3-1 .3h-3.5q-.8 0-1-.3-.4-.3-.4-.7 0-.5.3-.8.3-.2 1-.2h.4v-9h-.3q-.8 0-1-.4-.4-.2-.4-.7 0-.4.3-.7.3-.3 1-.3h2.4v.7q.7-.5 1.4-.7l1.6-.2q2 0 3.5 1.3 1.4 1.4 1.4 3.2 0 2-1.7 3.3-1.4 1-3.2 1l-1.5-.1-1.5-.7Zm6-3.5q0-.4-.4-1-.3-.7-1-1.1-.7-.4-1.6-.4-1.5 0-2.4 1-.6.8-.6 1.6t.8 1.5q.9.8 2.2.8 1.2 0 2-.8 1-.7 1-1.6Zm8-4.3v1.3q1.3-1 2-1.2.8-.3 1.4-.3 1 0 2 .7.5.5.5 1 0 .4-.3.7-.3.3-.7.3-.4 0-.8-.4-.4-.3-.7-.3-.4 0-1.2.5-.9.5-2.1 1.6v3h2.8q.7 0 1 .3.4.2.4.7 0 .4-.4.7-.3.3-1 .3h-6q-.7 0-1-.3-.4-.3-.4-.7 0-.5.3-.7.4-.3 1-.3h1.3V18h-.8q-.7 0-1-.3-.3-.2-.3-.7 0-.4.3-.7.3-.3 1-.3h2.8ZM79 21.6h-8.2q.3.7 1.1 1.2t2.2.5q1 0 3-.5l1-.2q.4 0 .6.3.3.3.3.7 0 .4-.3.7-.4.4-1.9.7-1.5.3-2.9.3-2.4 0-3.8-1.4-1.5-1.3-1.5-3.3 0-2.1 1.6-3.4 1.5-1.3 3.6-1.3 1.2 0 2.2.4 1 .4 1.5.9.7.7 1.2 1.8.3.7.3 1.7v.9Zm-2.2-2q-.5-.9-1.2-1.3-.8-.4-1.8-.4t-1.7.4q-.8.4-1.2 1.3h5.9Zm11.4-1.2-1-.4H86q-1.2 0-1.8.3-.3.2-.3.4t.4.4q.3.2 1.4.3 2 .3 2.7.6 1 .3 1.6 1 .6.8.6 1.6 0 1-1 1.8-1.3 1-3.5 1l-1.6-.1-1.4-.5-.3.2h-.3q-.5 0-.8-.2-.3-.3-.3-1V23q0-.8.3-1 .3-.4.8-.4l.6.2q.2.2.3.7.5.4 1.1.6.7.2 1.5.2 1.4 0 2.2-.4.3-.2.3-.5 0-.4-.5-.6-.5-.3-2.1-.5-2.4-.2-3.2-1-.9-.6-.9-1.7 0-1 1-1.8 1.2-1 3.2-1 .7 0 1.3.2l1.2.4.4-.2h.3q.4 0 .7.2.2.3.2 1v.5l-.1 1q-.3.4-.9.4l-.6-.2q-.3-.3-.3-.7Zm12 0-1-.4H98q-1.2 0-1.8.3-.3.2-.3.4t.4.4q.3.2 1.4.3 2 .3 2.7.6 1 .3 1.6 1 .6.8.6 1.6 0 1-1 1.8-1.3 1-3.5 1l-1.6-.1-1.4-.5-.3.2h-.3q-.5 0-.8-.2-.3-.3-.3-1V23q0-.8.3-1 .3-.4.8-.4l.6.2q.2.2.3.7.5.4 1.1.6.7.2 1.5.2 1.4 0 2.2-.4.3-.2.3-.5 0-.4-.5-.6-.5-.3-2.1-.5-2.4-.2-3.2-1-.9-.6-.9-1.7 0-1 1-1.8 1.2-1 3.2-1 .7 0 1.3.2l1.2.4.4-.2h.3q.4 0 .7.2.2.3.2 1v.5l-.1 1q-.3.4-.9.4l-.6-.2q-.3-.3-.3-.7Zm10.5-6v2h-2.4v-2h2.4Zm.3 3.7V23h2.4q.7 0 1 .3.3.2.3.7 0 .4-.3.7-.3.3-1 .3h-6.8q-.8 0-1-.3-.4-.3-.4-.7 0-.5.3-.7.3-.3 1-.3h2.5v-5h-1.6q-.7 0-1-.3-.4-.2-.4-.7 0-.4.3-.7.3-.3 1-.3h3.7Zm16.2 4.6q0 1.2-.7 2.2-.6 1.1-1.9 1.8-1.2.6-2.6.6-1.4 0-2.6-.6-1.3-.7-2-1.7-.6-1.1-.6-2.3 0-1.2.7-2.4.7-1.1 1.9-1.8 1.2-.6 2.6-.6 1.4 0 2.6.6 1.3.7 2 1.9.6 1.1.6 2.3Zm-2 0q0-1-.7-1.8-1-1-2.5-1-1.4 0-2.3.8-.9.9-.9 2 0 1 1 1.8.9.8 2.2.8 1.3 0 2.3-.8.9-.8.9-1.8Zm6.7-4.6v.7q.6-.5 1.3-.7.6-.2 1.4-.2 1.8 0 2.8 1 .8 1 .8 2.4V23q.7 0 1 .3.3.2.3.7 0 .4-.3.7-.3.3-1 .3h-1.9q-.7 0-1-.3-.3-.3-.3-.7 0-.5.3-.7.3-.3 1-.3v-3.8q0-.7-.4-1-.5-.3-1.4-.3-.7 0-1.2.2l-1.4 1.2V23l1 .1q.5.3.5.9 0 .4-.3.7-.3.3-1 .3h-2.3q-.7 0-1-.3-.3-.3-.3-.7 0-.6.4-.9l1-.1v-5q-.6 0-.9-.3-.3-.3-.3-.7 0-.4.3-.7.3-.3 1-.3h2Zm29.2-2.4.4-.4q.2-.2.5-.2.4 0 .7.3.3.3.3 1v1.8q0 .7-.3 1-.3.3-.7.3-.4 0-.6-.2-.3-.2-.4-.9 0-.4-.3-.6l-1-.7q-.8-.3-1.5-.3-1 0-1.7.4t-1.3 1.3q-.6.9-.6 2V20q0 1.4 1 2.4 1.1 1 3 1 1 0 1.9-.3l1-.7.4-.4.4-.1q.4 0 .7.3.3.3.3.7 0 .4-.4.9-.6.7-1.5 1-1.3.6-2.8.6-1.8 0-3.2-.8-1.2-.6-2-1.8-.8-1.3-.8-2.8v-1.3q0-1.6.7-3 .8-1.3 2-2 1.3-.8 2.8-.8l1.6.2q.8.2 1.4.7Zm14 7q0 1.2-.6 2.2-.6 1.1-1.9 1.8-1.2.6-2.6.6-1.4 0-2.6-.6-1.3-.7-2-1.7-.6-1.1-.6-2.3 0-1.2.7-2.4.7-1.1 1.9-1.8 1.2-.6 2.6-.6 1.4 0 2.6.6 1.3.7 2 1.9.6 1.1.6 2.3Zm-2 0q0-1-.6-1.8-1-1-2.5-1-1.4 0-2.3.8-.9.9-.9 2 0 1 1 1.8.9.8 2.2.8 1.3 0 2.3-.8.9-.8.9-1.8Zm5.8-4.6v.6l.9-.7q.4-.2.9-.2.4 0 .8.3.5.2.9.6l1-.6 1.1-.2q1.2 0 1.8.5 1 .8 1 2.1V23q.6 0 .9.3.3.2.3.7 0 .4-.3.7-.3.3-1 .3h-2v-6.3l-.1-.7-.5-.1-.6.1-1 1v4q.7 0 1 .3.3.2.3.7 0 .4-.3.7-.3.3-1 .3h-2v-7l-.6-.1-.7.2-.8.8v4q.6 0 1 .4.2.2.2.7 0 .4-.3.7-.3.3-1 .3H177q-.7 0-1-.3-.3-.3-.3-.7 0-.5.3-.7.3-.3.9-.3v-5q-.6 0-1-.3-.2-.3-.2-.7 0-.4.3-.7.3-.3 1-.3h1.9Zm12.6 7.8v3.3h1.2q.7 0 1 .2.3.3.3.8 0 .4-.3.7-.3.3-1 .3h-3.5q-.8 0-1-.3-.4-.3-.4-.7 0-.5.3-.8.3-.2 1-.2h.4v-9h-.3q-.8 0-1-.4-.4-.2-.4-.7 0-.4.3-.7.3-.3 1-.3h2.4v.7q.7-.5 1.4-.7l1.6-.2q2 0 3.5 1.3 1.4 1.4 1.4 3.2 0 2-1.7 3.3-1.4 1-3.2 1l-1.5-.1-1.5-.7Zm6-3.5q0-.4-.4-1-.3-.7-1-1.1-.7-.4-1.6-.4-1.5 0-2.4 1-.6.8-.6 1.6t.8 1.5q.9.8 2.2.8 1.2 0 2-.8 1-.7 1-1.6Zm10.3 4.6v-.5q-.8.4-1.7.6l-1.6.2q-1.6 0-2.6-.8-1-.9-1-2 0-1.2 1.2-2.3 1.3-1 3.6-1l2 .1V19q0-.5-.3-.8-.4-.2-1.5-.2-.9 0-2.3.3l-.8.1q-.4 0-.7-.3-.3-.3-.3-.7l.1-.4.3-.3q.2-.2.7-.3l1.6-.3 1.4-.1q1.8 0 2.9.8 1 .8 1 2.2v4h.3q.8 0 1 .4.4.2.4.7 0 .4-.3.7-.3.3-1 .3h-2.4Zm0-3.6-2.2-.2q-1.3 0-2.1.6-.6.3-.6.7 0 .3.3.5.5.3 1.3.3.7 0 1.7-.3l1.6-.7v-.9Zm9.8-5.3v1.3q1.2-1 2-1.2.7-.3 1.3-.3 1 0 2 .7.5.5.5 1 0 .4-.3.7-.3.3-.7.3-.4 0-.8-.4-.4-.3-.7-.3-.4 0-1.2.5-.9.5-2.1 1.6v3h2.8q.7 0 1 .3.4.2.4.7 0 .4-.4.7-.3.3-1 .3h-6q-.7 0-1-.3-.4-.3-.4-.7 0-.5.3-.7.4-.3 1-.3h1.3v-5h-.8q-.7 0-1-.3-.3-.2-.3-.7 0-.4.3-.7.3-.3 1-.3h2.8Zm13.1-3.8v2.1h-2.4v-2h2.4Zm.3 3.8V23h2.4q.7 0 1 .3.3.2.3.7 0 .4-.3.7-.3.3-1 .3h-6.8q-.8 0-1-.3-.4-.3-.4-.7 0-.5.3-.7.3-.3 1-.3h2.5v-5h-1.6q-.7 0-1-.3-.4-.2-.4-.7 0-.4.3-.7.3-.3 1-.3h3.7Zm13.2 2.3-1-.4-1.2-.1q-1.2 0-1.8.3-.3.2-.3.4t.4.4q.3.2 1.4.3 2 .3 2.7.6 1 .3 1.6 1 .6.8.6 1.6 0 1-1 1.8-1.3 1-3.5 1l-1.6-.1-1.4-.5-.3.2h-.3q-.5 0-.8-.2-.3-.3-.3-1V23q0-.8.3-1 .3-.4.8-.4l.6.2q.2.2.3.7.5.4 1.1.6.7.2 1.5.2 1.4 0 2.2-.4.3-.2.3-.5 0-.4-.5-.6-.5-.3-2.1-.5-2.4-.2-3.2-1-.9-.6-.9-1.7 0-1 1-1.8 1.2-1 3.2-1 .7 0 1.3.2l1.2.4.4-.2h.3q.4 0 .7.2.2.3.2 1v.5l-.1 1q-.3.4-.9.4l-.6-.2q-.3-.3-.3-.7Zm15 2.3q0 1.2-.7 2.2-.6 1.1-1.9 1.8-1.2.6-2.6.6-1.4 0-2.6-.6-1.3-.7-2-1.7-.6-1.1-.6-2.3 0-1.2.7-2.4.7-1.1 1.9-1.8 1.2-.6 2.6-.6 1.4 0 2.6.6 1.3.7 2 1.9.6 1.1.6 2.3Zm-2 0q0-1-.7-1.8-1-1-2.5-1-1.4 0-2.3.8-.9.9-.9 2 0 1 1 1.8.9.8 2.2.8 1.3 0 2.3-.8.9-.8.9-1.8Zm6.7-4.6v.7q.6-.5 1.3-.7.6-.2 1.4-.2 1.8 0 2.8 1 .8 1 .8 2.4V23q.7 0 1 .3.3.2.3.7 0 .4-.3.7-.3.3-1 .3h-1.9q-.7 0-1-.3-.3-.3-.3-.7 0-.5.3-.7.3-.3 1-.3v-3.8q0-.7-.4-1-.5-.3-1.4-.3-.7 0-1.2.2l-1.4 1.2V23l1 .1q.5.3.5.9 0 .4-.3.7-.3.3-1 .3h-2.3q-.7 0-1-.3-.3-.3-.3-.7 0-.6.4-.9l1-.1v-5q-.6 0-.9-.3-.3-.3-.3-.7 0-.4.3-.7.3-.3 1-.3h2Z"/></svg>